<svg id="App_Approval" data-name="App Approval" xmlns="http://www.w3.org/2000/svg" xmlns:xlink="http://www.w3.org/1999/xlink" width="1280.076" height="712.085" viewBox="0 0 1280.076 712.085">
  <defs>
    <style>
      .cls-1 {
        fill: none;
      }

      .cls-2 {
        clip-path: url(#clip-path);
      }

      .cls-3 {
        fill: #f2f2f2;
      }

      .cls-4 {
        fill: #e7e7e7;
      }

      .cls-5 {
        fill: #e2e2e2;
      }

      .cls-6 {
        fill: #ddd;
      }

      .cls-7 {
        fill: #b2b2b2;
      }

      .cls-8 {
        fill: #c1c1c1;
      }

      .cls-9 {
        fill: #fff;
      }

      .cls-10 {
        fill: #121b28;
      }

      .cls-11 {
        fill: #cf785c;
      }

      .cls-12 {
        fill: #fdc76c;
      }

      .cls-13 {
        fill: #ffcfa9;
      }

      .cls-14 {
        fill: #6259e7;
      }

      .cls-15 {
        fill: #0a0a0a;
      }

      .cls-16 {
        fill: #c38a63;
      }

      .cls-17 {
        fill: #090a0a;
      }

      .cls-18 {
        fill: #1d1d1b;
      }

      .cls-19 {
        filter: url(#Path_3611);
      }

      .cls-20 {
        filter: url(#Path_3610);
      }
    </style>
    <clipPath id="clip-path">
      <rect id="Rectangle_174" data-name="Rectangle 174" class="cls-1" width="1280.076" height="712.085"/>
    </clipPath>
    <filter id="Path_3610" x="283.305" y="260.342" width="145.466" height="145.467" filterUnits="userSpaceOnUse">
      <feOffset input="SourceAlpha"/>
      <feGaussianBlur stdDeviation="3" result="blur"/>
      <feFlood flood-opacity="0.161"/>
      <feComposite operator="in" in2="blur"/>
      <feComposite in="SourceGraphic"/>
    </filter>
    <filter id="Path_3611" x="423.637" y="121.161" width="701.907" height="596.527" filterUnits="userSpaceOnUse">
      <feOffset input="SourceAlpha"/>
      <feGaussianBlur stdDeviation="3" result="blur-2"/>
      <feFlood flood-opacity="0.161"/>
      <feComposite operator="in" in2="blur-2"/>
      <feComposite in="SourceGraphic"/>
    </filter>
  </defs>
  <g id="Group_108" data-name="Group 108" class="cls-2">
    <path id="Path_3597" data-name="Path 3597" d="M464.133,434.691a1.686,1.686,0,0,1-.858-.238A6.02,6.02,0,0,1,460.1,430.1c-.535-3.593,2.446-6.956,2.794-7.329a1.7,1.7,0,0,1,2.505,2.293c-.628.688-2.191,2.845-1.936,4.543A2.774,2.774,0,0,0,465,431.532a1.7,1.7,0,0,1-.866,3.168Z"/>
    <path id="Path_3598" data-name="Path 3598" class="cls-3" d="M1226.456,613.591c0,.382,0,.756-.008,1.138-.017.8-.035,1.588-.068,2.378a99.9,99.9,0,0,1-5.142,28.806c-.144.416-.286.832-.429,1.24-5.949,16.78-17.065,33.162-35.467,49.408q-5.583,4.925-12.083,9.834-1.514,1.146-3.092,2.293h-31.209l-639.472-.213-46.005-.017L91.5,708.339s-.252-.662-.731-1.953a709.456,709.456,0,0,1-21.847-73.628C59.289,592.987,50.676,529.73,50.407,463.565v-6.888c.378-78.383,12.755-159.816,49.189-210.354.428-.594.857-1.189,1.294-1.775.63-.849,1.269-1.7,1.9-2.53.286-.382.571-.748.857-1.121C204.276,109.36,365.027,109.572,442.827,117.92c7.621.824,14.444,1.715,20.334,2.573,3.546.518,6.756,1.019,9.6,1.478C583.932,140.093,634.113,83.6,634.113,83.6,712.475,10.664,786.6-7.153,889.166,2.348q19.309,1.771,38.282,5.283c49.92,9.188,97.411,27.1,138.165,52.584q6.628,4.14,13,8.552,2.293,1.58,4.563,3.21,8.1,5.808,15.771,12.042c28.981,23.574,52.961,51.726,69.8,83.87a234.125,234.125,0,0,1,25.317,81.933q1.046,8.955,1.437,18.165.506,12.076-.177,24.568a285.7,285.7,0,0,1-7.78,51.769v.009c-.336,1.393-.656,2.785-.966,4.161a233.631,233.631,0,0,0-5.051,67.038c5.186,77.9,45.275,140.989,44.938,198.057Z"/>
    <rect id="Rectangle_156" data-name="Rectangle 156" class="cls-4" width="137.923" height="347.937" transform="translate(211.344 186.896)"/>
    <rect id="Rectangle_157" data-name="Rectangle 157" class="cls-5" width="121.737" height="334.214" transform="translate(219.929 193.096)"/>
    <rect id="Rectangle_158" data-name="Rectangle 158" class="cls-6" width="271.558" height="11.439" transform="translate(885.954 349.914)"/>
    <rect id="Rectangle_159" data-name="Rectangle 159" class="cls-6" width="32.39" height="122.45" transform="translate(901.562 227.456)"/>
    <rect id="Rectangle_160" data-name="Rectangle 160" class="cls-6" width="32.387" height="122.45" transform="translate(929.367 239.16) rotate(-17.708)"/>
    <rect id="Rectangle_161" data-name="Rectangle 161" class="cls-5" width="27.946" height="81.347" transform="translate(932.184 240.671) rotate(-17.701)"/>
    <rect id="Rectangle_162" data-name="Rectangle 162" class="cls-3" width="28.05" height="2.768" transform="translate(903.669 229.74)"/>
    <rect id="Rectangle_163" data-name="Rectangle 163" class="cls-3" width="28.05" height="2.768" transform="translate(903.669 234.538)"/>
    <rect id="Rectangle_164" data-name="Rectangle 164" class="cls-3" width="28.05" height="2.768" transform="translate(903.669 239.778)"/>
    <rect id="Rectangle_165" data-name="Rectangle 165" class="cls-3" width="28.05" height="21.137" transform="translate(903.669 325.686)"/>
    <path id="Path_3599" data-name="Path 3599" class="cls-5" d="M1109.573,274.452s-8.935,2.624-13.75-1.146,1.07-13.563,6.87-16.628,6.565-10.505,15.66-11.924,22.606-6.564,25.052-3.668-11.761,11.923-11.227,14.658-3.923,7.906-11.99,13.621c-7.177,5.087-10.615,5.087-10.615,5.087"/>
    <path id="Path_3600" data-name="Path 3600" class="cls-7" d="M1084.469,321.7a.414.414,0,0,1-.416-.365,73.308,73.308,0,0,1,2.131-25.766c3.406-13.188,12.093-31.642,34.131-44.669a.425.425,0,0,1,.425.73c-41.7,24.653-35.914,69.144-35.855,69.586a.428.428,0,0,1-.357.484Z"/>
    <path id="Path_3601" data-name="Path 3601" class="cls-5" d="M1071.391,266.648s5.826,5.936,11.388,2.463,5.486-17.758,2.336-23.363-.281-15.4-6.794-19.829S1063.536,211,1060.258,214.03s3.719,18.708,2.021,22.08-.6,11.294,3.108,20.959c3.3,8.6,6,9.587,6,9.587Z"/>
    <path id="Path_3602" data-name="Path 3602" class="cls-7" d="M1069.345,334.492a.344.344,0,0,1-.178-.042.419.419,0,0,1-.207-.555l0-.006c.263-.56,25.662-56.312,4.229-100.039a.425.425,0,1,1,.764-.374c21.622,44.092-3.957,100.209-4.22,100.77a.424.424,0,0,1-.382.246Z"/>
    <path id="Path_3603" data-name="Path 3603" class="cls-5" d="M1052.8,280.023s7.21,2.115,11.091-.926-.866-10.946-5.545-13.417-5.3-8.476-12.629-9.622-18.232-5.3-20.211-2.956,9.486,9.622,9.053,11.83,3.167,6.378,9.672,10.989c5.792,4.1,8.56,4.1,8.56,4.1Z"/>
    <path id="Path_3604" data-name="Path 3604" class="cls-7" d="M1073.047,318.221h-.059a.437.437,0,0,1-.366-.484c.051-.357,4.688-36.2-28.882-56.058a.425.425,0,0,1,.425-.73c34.071,20.144,29.349,56.542,29.3,56.907a.424.424,0,0,1-.416.365"/>
    <path id="Path_3605" data-name="Path 3605" class="cls-6" d="M1094.872,349.914h-32.347l-15.354-45.451h61.093Z"/>
    <path id="Path_3606" data-name="Path 3606" class="cls-4" d="M473.7,285.534A50.707,50.707,0,1,0,423,234.827,50.707,50.707,0,0,0,473.7,285.534"/>
    <rect id="Rectangle_166" data-name="Rectangle 166" class="cls-8" width="4.951" height="2.548" transform="translate(511.032 233.812) rotate(-0.348)"/>
    <rect id="Rectangle_167" data-name="Rectangle 167" class="cls-8" width="2.548" height="4.951" transform="translate(472.106 273.174) rotate(-0.36)"/>
    <rect id="Rectangle_168" data-name="Rectangle 168" class="cls-8" width="4.951" height="2.548" transform="translate(430.214 234.298) rotate(-0.359)"/>
    <rect id="Rectangle_169" data-name="Rectangle 169" class="cls-8" width="2.548" height="4.951" transform="matrix(1, -0.006, 0.006, 1, 471.588, 192.408)"/>
    <path id="Path_3607" data-name="Path 3607" class="cls-8" d="M505.779,237.33H471.852V204.7H474.4v30.079h31.379Z"/>
    <rect id="Rectangle_170" data-name="Rectangle 170" class="cls-4" width="8.144" height="337.543" transform="translate(276.734 189.767)"/>
    <rect id="Rectangle_171" data-name="Rectangle 171" class="cls-4" width="131.605" height="6.004" transform="translate(214.791 348.352)"/>
    <path id="Path_3608" data-name="Path 3608" class="cls-9" d="M830.949,161.505A17.248,17.248,0,1,0,813.7,144.257a17.248,17.248,0,0,0,17.248,17.248"/>
    <rect id="Rectangle_172" data-name="Rectangle 172" class="cls-4" width="9.291" height="124.616" transform="translate(826.303 1.459)"/>
    <path id="Path_3609" data-name="Path 3609" class="cls-4" d="M874.965,148.077H786.934a44.016,44.016,0,1,1,88.031-.068Z"/>
    <g class="cls-20" transform="matrix(1, 0, 0, 1, 0, 0)">
      <path id="Path_3610-2" data-name="Path 3610" class="cls-9" d="M356.038,269.342a63.733,63.733,0,1,0,63.733,63.734,63.806,63.806,0,0,0-63.733-63.734"/>
    </g>
    <g class="cls-19" transform="matrix(1, 0, 0, 1, 0, 0)">
      <path id="Path_3611-2" data-name="Path 3611" class="cls-9" d="M1116.537,472.369c-.766-21.866-11.271-42.137-29.828-57.957a12,12,0,0,0-3.8-12.806c-2.734-2.265-67.525-55.646-118.706-70.534-14.288-4.134-30.221-8.356-44.487-10.053-.86-12.442-1.916-28.631-2.622-40.057a35.668,35.668,0,0,0,12.75-5.6c5.438-3.881,12.04-11.259,12.649-24.386a30.512,30.512,0,0,0-.493-7.413c13.19-24.383,9.226-43.627,3.287-55.747-6.579-13.426-18.25-23.165-27.914-26.758-6.885-8.271-25.692-27.356-51.259-25.334-8.472-4.669-22.978-8.522-39.971-2.421-8.242,2.959-13.965,6.26-17.911,9.563a18.066,18.066,0,0,0-11.579,2.3c-2.273,1.277-8.311,4.667-11.036,23.68-.882,6.153-1.95,18.2.795,29.732,2.756,11.565,8.258,17.871,13.761,21.288-.267,1.442-.54,3.007-.819,4.706a131.949,131.949,0,0,0-1,39.138c3.021,21.947,12.928,38.96,28.763,49.513-.013,1.249-.085,3.059-.279,5.671-.135,1.843-.38,5.493-.652,9.61-29.523,6.026-72.937,17.593-135.74,87.055a11.979,11.979,0,0,0-2.582,4.565c-1.161.942-2.541,1.99-3.894,2.971-12.137-11.976-40.442-49.47-63.63-82.848l-.509-1.623c6.416.889,12.627,1.2,17.982.314.222-.036.8-.128,2.295-.481,23.368-5.082,38.739-27.93,35-52.019-3.742-24.185-25.317-41.032-49.168-38.408-.677.065-1.582.161-2.225.261l-.11.017c-12.74,2.092-26.91,10.852-37.256,17.248-2.362,1.46-5.182,3.2-6.84,4.112a129.385,129.385,0,0,0-36.094-3.806,12.817,12.817,0,0,0-6.992.583,70.716,70.716,0,0,0-8.533,1.933,12.842,12.842,0,0,0-4.6,1.123c-.733.336-1.457.7-2.162,1.1-7.7,3.013-12.755,6.392-16.018,9.736l-1.838-11.1c-4.45-26.848-44.79-25.846-49.376-25.639a12,12,0,0,0-11.307,13.95l.662,3.995-.507.081a12,12,0,0,0-9.956,13.743L447.894,369.9a12,12,0,0,0,13.744,9.956l1.183-.189,1.521,9.175a12,12,0,0,0,15.322,9.522c4.385-1.33,42.719-13.76,38.351-40.154q-.042-.252-.093-.5L515.651,344l9.274-1.66a21.627,21.627,0,0,0,1.8,1.236c5.791,3.615,19.452,11.088,25.815,14.543,4.308,8.477,16.263,31.374,32.82,58.013,27.9,44.892,54.291,77.178,78.431,95.961,9.672,7.525,24.573,7.278,45.558-.754,6.152-2.354,12.014-5.078,16.724-7.454a12,12,0,0,0,12.594-.286l29.125-18.888L769.856,696.8a12,12,0,0,0,12,11.883h222.657a12,12,0,0,0,11.957-13.014l-4.207-49.635c7.3-2.84,16.037-10.19,29.2-22.469,1.282-1.2,2.412-2.251,3.336-3.09,17-15.445,70.122-93.685,69.861-128.661l1.827-17.8a12.221,12.221,0,0,0,.053-1.645m-80.273,27.087-27.494,68.495c-1.192-.972-2.3-1.822-3.335-2.557-3.556-42.063-5.725-67.8-7.011-83.135l33.889,16.093a11.958,11.958,0,0,0,3.951,1.1"/>
    </g>
    <rect id="Rectangle_173" data-name="Rectangle 173" class="cls-10" width="18.572" height="95.723" transform="translate(444.914 271.783) rotate(-9.082)"/>
    <path id="Path_3612" data-name="Path 3612" class="cls-11" d="M506.443,358.47l-14.732-88.962C488.872,252.382,454.7,253.9,454.7,253.9l21.752,131.286s32.772-9.942,30-26.712Z"/>
    <path id="Path_3613" data-name="Path 3613" class="cls-12" d="M637.809,325.044s-1.2.287-1.6.351c-8.469,1.4-21.626-1.4-32.183-3.868-7.1-1.65-13.012-3.157-15.556-3.157a41.571,41.571,0,0,0-4.417.319c-.088.008-.176.016-.264.032-3.061.358-6.737.943-9.974,1.491-3.564.621-6.61,1.212-7.759,1.435l-.2.04-.191.032h-.08l-.032.008-35.18,5.8-28.8,5.159-6.1-37.8,28.354-5.3,11.554-1.9.462-.072,12.439-2.049.319-.048,13.18-2.169,16.37-2.7.048.3a42.406,42.406,0,0,0,4.593-1.148c5.957-2.01,27.564-18.8,43.034-21.336.471-.073,1.627-.184,1.627-.184,17.335-1.953,33.3,10.374,36.072,28.307,2.784,17.916-8.643,34.761-25.706,38.463Z"/>
    <path id="Path_3614" data-name="Path 3614" class="cls-13" d="M601.274,321.312,586.65,333.1l-16.84-13.882-3.381-2.783-1.81-1.491s-6.411-12.088,2.854-11.075c8.007.885,27.454,13.292,32.557,16.624.694.456,1.116.742,1.22.814a.035.035,0,0,1,.024.008"/>
    <path id="Path_3615" data-name="Path 3615" class="cls-13" d="M581.1,281.468l-.08.024-.29.048-.454.08-.973.159-.455.079-.821.128-2.089.351-1.172.191-.718.112-1.161.2-.383.055-2.3.383-1.348.218-.8.135-1.244.2-1.332.224c-4.185.693-7.686,2.95-9.009,5.225-3.565,6.147-8.54-.486-9.561-1.866.016.073.423,1.722-2.161,3.859-3.253,2.679-12.047,1.419-10.071-1.715,0,0,0-.145.024-.4.146-1.954,1.116-10.589,7.456-12.845,16.115-1.515,38.863,3.421,38.943,5.135Z"/>
    <path id="Path_3616" data-name="Path 3616" class="cls-13" d="M542.283,276.11c-6.339,2.256-7.32,10.892-7.455,12.845-.016.255-.024.4-.024.4s-7.017,5.119-12.337,2.193a3.156,3.156,0,0,0,.016-.559c.032-2.128.406-9.724,8.213-12.526a1.428,1.428,0,0,1,.191-.064,58.615,58.615,0,0,1,11.394-2.3Z"/>
    <path id="Path_3617" data-name="Path 3617" class="cls-13" d="M530.164,278.55c-7.806,2.8-8.181,10.4-8.213,12.526a3.168,3.168,0,0,1-.016.559s-4.361,6.881-9.273,1.467a2.679,2.679,0,0,1-.327-.43c-2.757-4.155,6.34-10.582,17.829-14.122"/>
    <path id="Path_3618" data-name="Path 3618" class="cls-14" d="M356.316,383.11a51.733,51.733,0,1,0-51.733-51.733v0a51.732,51.732,0,0,0,51.733,51.73"/>
    <path id="Path_3619" data-name="Path 3619" class="cls-9" d="M372.063,309.553a4.023,4.023,0,0,0-5.58,1.067l-19.014,32.322-6.977-8.294a4.017,4.017,0,0,0-6.143,5.179l10.64,12.643a4,4,0,0,0,3.1,1.422l.862-.186a4.262,4.262,0,0,0,1.906-.956,4.056,4.056,0,0,0,.661-.842l21.8-37.071.085-.157a4.03,4.03,0,0,0-1.334-5.127"/>
    <path id="Path_3620" data-name="Path 3620" d="M985.024,460.779c.356,5.335,19.766,234.21,19.766,234.21H782.134l-2.277-233.922-47.441,30.765-32.787-69.917c67.37-74.513,109.787-79.273,138.965-85.3-.008,2.623-.319,4.744-.422,6.841,41.327,33.139,69.458-11,68.764-12.918,15.493-.255,36.543,5.252,54.208,10.363,49.364,14.36,114.385,68.246,114.385,68.246l-37.791,76.667Z"/>
    <path id="Path_3621" data-name="Path 3621" class="cls-13" d="M729.964,486.512c1.834-.822-43.543,26.07-58.526,14.412-55.5-43.185-109.59-153.261-109.59-153.261s-21.3-11.466-28.529-15.988a10.272,10.272,0,0,1-3.9-4.321l35.18-5.629s0,.008.032,0h.079l.192-.04.2-.04c1.149-.218,4.194-.789,7.758-1.4l15.07,11.69,12.977-10.794,8.811,22.746s60.632,87.535,73.94,91.968c.757.255,13.493-8.317,16.635-12.527Z"/>
    <path id="Path_3622" data-name="Path 3622" class="cls-15" d="M813.812,210.113s10.995-21.37,29.172-20.923c55.386,1.363,33.8,59.428,43.306,57.37,17.246-3.723,9.306-18.005,22.892-16.784,7.99.717,15.724,5.55,19.024,12.295,28.729-44.23-7.534-71.125-17.573-72.2,0,0-19.742-28.418-47.076-23.379,0,0-13.093-10.764-33.083-3.588-19.653,7.056-18.227,14.145-18.227,14.145s-3.661-6.355-9.442-3.11-13.443,55.106,11,56.183Z"/>
    <path id="Path_3623" data-name="Path 3623" class="cls-13" d="M837.406,303.587h.008a1.7,1.7,0,0,1,.295.218c1.993,1.651,1.882,7.487,1.379,14.265-.39,5.37-1.754,26.464-1.85,28.33,36.631,29.375,72.84-5.964,72.226-7.679-.391-1.092-4.122-58.231-4.768-70.574,1.834.542,25.156,1.69,26.09-19.488a18.486,18.486,0,0,0-1.372-8.173c-3.477-8.253-12.726-11.657-18.953-12.144-.566-.047-1.077-.073-1.571-.073-3.82-.072-5.694.909-6.874,2.448a.649.649,0,0,0-.087.145,9.92,9.92,0,0,0-1.234,2.4.064.064,0,0,0-.024.04c-1.563,3.906-2.685,9.121-13.1,11.825a1.283,1.283,0,0,1-.239.04c-1.61.262-2.288-1.444-2.528-4.394a.2.2,0,0,1-.008-.064c-.111-1.26-.127-2.743-.111-4.393,0-1.428.048-3.006.087-4.657A54.519,54.519,0,0,0,882.9,215a38.77,38.77,0,0,0-2.137-5.734c-10.454-22.424-37.519-21.425-37.779-21.417A30.01,30.01,0,0,0,822.9,196.9a1.405,1.405,0,0,1-.112.12,34.847,34.847,0,0,0-3.619,4.305.181.181,0,0,1-.064.073,33.354,33.354,0,0,0-4.011,7.257c-.008.008-22.031,70.031,22.31,94.942Z"/>
    <path id="Path_3624" data-name="Path 3624" class="cls-16" d="M837.709,303.8c12.232,1.148,25.006-3.349,33.067-7.783l-31.624,25.255s1.739-15.812-1.443-17.47Z"/>
    <path id="Path_3625" data-name="Path 3625" class="cls-17" d="M836.178,260.538a11.588,11.588,0,0,1-3.15-.47,4.571,4.571,0,0,1-3.5-4.657l1.2-15.852a1,1,0,0,1,2,.152l-1.2,15.852a2.586,2.586,0,0,0,2.042,2.567,8,8,0,0,0,4.545.112,1,1,0,1,1,.58,1.922,8.6,8.6,0,0,1-2.535.362Z"/>
    <path id="Path_3626" data-name="Path 3626" class="cls-16" d="M912.565,254.693a1,1,0,0,1-.574-1.827c2.032-1.4,3.07-2.894,3.086-4.441.024-2.726-3.062-4.975-3.094-5a1,1,0,0,1,1.161-1.635c.16.112,3.971,2.863,3.939,6.642-.016,2.241-1.347,4.29-3.955,6.084a1,1,0,0,1-.566.176Z"/>
    <path id="Path_3627" data-name="Path 3627" class="cls-17" d="M846.312,276.5a1,1,0,0,1-.1-2c12.327-1.292,13.651-7.742,13.7-8.022a1.007,1.007,0,1,1,1.985.336c-.056.334-1.524,8.22-15.468,9.679h-.1Z"/>
    <path id="Path_3628" data-name="Path 3628" class="cls-13" d="M1102.923,489.624c1.038,29.016-49.432,105.292-65.92,120.275-6.56,5.964-23.243,22.45-30.4,23.725-11.8,2.1-27.526,2.01-36.59,2.831-11.474,1.045-12.047-5.443-6.467-8.8.088-.048-9.013,2.48-7.8-6.211.3-2.162,3.962-4.728,3.962-4.728-12.757-5.153-.217-10.829-.217-10.829s-7.657,1.467-6.35-6.355c.471-2.807,3.795-5.366,10.958-7.176,7.547-1.906,27.925-7.918,33.18-8.3a4.44,4.44,0,0,0-.083-1.217c-.4-2.957-.726-10.727-.726-10.727,1.147-.384,17.365,14.418,17.365,14.418l39.663-98.812-12.728-8.079,30.787-63.681c20.052,13.908,32.489,33,33.266,55.127Z"/>
    <path id="Path_3629" data-name="Path 3629" class="cls-16" d="M958.157,606.769a.8.8,0,0,1-.167-1.579l26.068-5.566a.8.8,0,0,1,.333,1.564l-26.067,5.565a.553.553,0,0,1-.167.016"/>
    <path id="Path_3630" data-name="Path 3630" class="cls-16" d="M959.615,617.334a.783.783,0,0,1-.777-.662.8.8,0,0,1,.646-.925l25.306-4.5a.8.8,0,0,1,.276,1.572l-25.306,4.5a.876.876,0,0,1-.145.016"/>
    <path id="Path_3631" data-name="Path 3631" class="cls-16" d="M962.91,628.561a.791.791,0,0,1-.784-.662.8.8,0,0,1,.646-.925l24.58-4.306a.8.8,0,0,1,.276,1.571l-24.573,4.306c-.051,0-.094.008-.138.008Z"/>
    <path id="Path_3632" data-name="Path 3632" class="cls-16" d="M522.471,292.336a.8.8,0,0,1-.757-.55c-.032-.088-2.711-8.7,6.841-13.063a.8.8,0,0,1,1.053.391.811.811,0,0,1-.391,1.061c-8.237,3.763-6.084,10.82-5.988,11.115a.8.8,0,0,1-.508,1.005.952.952,0,0,1-.248.039Z"/>
    <path id="Path_3633" data-name="Path 3633" class="cls-16" d="M534.808,290.144a.8.8,0,0,1-.758-.55c-1.044-3.214-.949-10.2,6.882-13.611a.8.8,0,1,1,.637,1.467c-8.436,3.676-6.1,11.338-5.995,11.658a.8.8,0,0,1-.517,1h0a.9.9,0,0,1-.247.04Z"/>
    <path id="Path_3634" data-name="Path 3634" class="cls-16" d="M547.3,288.254a.7.7,0,0,1-.176-.016.8.8,0,0,1-.606-.949c.024-.1,2.353-10.222,10.909-10.86a.8.8,0,0,1,.253,1.577.856.856,0,0,1-.134.01c-7.367.55-9.448,9.52-9.464,9.608a.794.794,0,0,1-.782.622Z"/>
    <path id="Path_3635" data-name="Path 3635" class="cls-16" d="M538.769,327.38a.788.788,0,0,1-.782-.662.806.806,0,0,1,.646-.924l33.17-5.773a.8.8,0,1,1,.347,1.558c-.022.005-.045.009-.067.012l-33.171,5.773c-.048,0-.1.008-.135.008Z"/>
    <path id="Path_3636" data-name="Path 3636" d="M812.979,227.924c3.291-2.823,8.867-2.211,8.907-2.206a2.447,2.447,0,0,1,1.684.915,2.086,2.086,0,0,1,.421,1.6,2.409,2.409,0,0,1-2.679,1.937c-1.118-.112-3.826-.009-5.038,1.025a2.565,2.565,0,0,1-1.51.6l-.7.042-.019-.107a2.419,2.419,0,0,1-1.139-.582,2.115,2.115,0,0,1-.707-1.608,2.2,2.2,0,0,1,.78-1.621"/>
    <path id="Path_3637" data-name="Path 3637" d="M839.092,225.706c7.131-2.684,15.587,1.991,16.548,2.545a2.242,2.242,0,0,1-2.293,3.854c-.071-.043-7.35-4.205-12.688-2.2a2.241,2.241,0,0,1-1.567-4.2"/>
    <path id="Path_3638" data-name="Path 3638" class="cls-18" d="M818.2,238.63a2.255,2.255,0,1,0,2.256-2.254h0a2.256,2.256,0,0,0-2.255,2.254"/>
    <path id="Path_3639" data-name="Path 3639" class="cls-18" d="M841.369,238.124a2.254,2.254,0,1,0,2.254-2.254h0a2.254,2.254,0,0,0-2.253,2.254"/>
    <path id="Path_3640" data-name="Path 3640" d="M1276.68,712.085H3.4a3.4,3.4,0,0,1,0-6.794H1276.68a3.4,3.4,0,0,1,0,6.794"/>
  </g>
</svg>
