<svg id="Checklist" xmlns="http://www.w3.org/2000/svg" xmlns:xlink="http://www.w3.org/1999/xlink" width="1280.076" height="710.795" viewBox="0 0 1280.076 710.795">
  <defs>
    <style>
      .cls-1, .cls-17 {
        fill: none;
      }

      .cls-2 {
        clip-path: url(#clip-path);
      }

      .cls-3 {
        fill: #f2f2f2;
      }

      .cls-4 {
        fill: #e7e7e7;
      }

      .cls-5 {
        fill: #e2e2e2;
      }

      .cls-6 {
        fill: #ddd;
      }

      .cls-7 {
        fill: #b2b2b2;
      }

      .cls-8 {
        fill: #c1c1c1;
      }

      .cls-9 {
        fill: #fff;
      }

      .cls-10 {
        fill: #c18863;
      }

      .cls-11 {
        fill: #6259ef;
      }

      .cls-12 {
        fill: #ffcda7;
      }

      .cls-13 {
        fill: #0a0a0a;
      }

      .cls-14 {
        fill: #161617;
      }

      .cls-15 {
        fill: #090a0a;
      }

      .cls-16 {
        fill: #1d1d1b;
      }

      .cls-17 {
        stroke: #fff;
        stroke-linecap: round;
        stroke-linejoin: round;
        stroke-width: 8px;
      }

      .cls-18 {
        filter: url(#Path_4505);
      }
    </style>
    <clipPath id="clip-path">
      <rect id="Rectangle_460" data-name="Rectangle 460" class="cls-1" width="1280.076" height="710.795"/>
    </clipPath>
    <filter id="Path_4505" x="226.311" y="144.208" width="876.616" height="569.934" filterUnits="userSpaceOnUse">
      <feOffset input="SourceAlpha"/>
      <feGaussianBlur stdDeviation="3" result="blur"/>
      <feFlood flood-opacity="0.161"/>
      <feComposite operator="in" in2="blur"/>
      <feComposite in="SourceGraphic"/>
    </filter>
  </defs>
  <g id="Group_150" data-name="Group 150" class="cls-2">
    <path id="Path_4490" data-name="Path 4490" d="M464.133,433.4a1.686,1.686,0,0,1-.858-.238,6.02,6.02,0,0,1-3.176-4.356c-.535-3.593,2.446-6.956,2.794-7.329a1.7,1.7,0,0,1,2.505,2.293c-.628.688-2.191,2.845-1.936,4.543A2.774,2.774,0,0,0,465,430.242a1.7,1.7,0,0,1-.866,3.168Z"/>
    <path id="Path_4491" data-name="Path 4491" class="cls-3" d="M1232.643,613.591c0,.382,0,.756-.008,1.138-.017.8-.035,1.588-.068,2.378a99.9,99.9,0,0,1-5.142,28.806c-.144.416-.286.832-.43,1.24-5.948,16.78-17.064,33.162-35.466,49.408q-5.583,4.925-12.083,9.834-1.512,1.146-3.092,2.293h-31.208l-639.473-.213-46.005-.017-361.985-.119s-.252-.662-.731-1.953a709.454,709.454,0,0,1-21.847-73.628C65.476,592.987,56.863,529.73,56.594,463.565v-6.888c.378-78.383,12.755-159.816,49.189-210.354.428-.594.857-1.189,1.294-1.775.63-.849,1.269-1.7,1.9-2.53.286-.382.571-.748.857-1.121C210.463,109.36,371.214,109.572,449.014,117.92c7.621.824,14.444,1.715,20.334,2.573,3.546.518,6.756,1.019,9.6,1.478C590.119,140.093,640.3,83.6,640.3,83.6,718.662,10.664,792.79-7.153,895.353,2.348q19.309,1.771,38.282,5.283c49.92,9.188,97.412,27.1,138.165,52.584q6.628,4.14,13,8.552,2.294,1.58,4.561,3.21,8.106,5.808,15.773,12.042c28.981,23.574,52.961,51.726,69.8,83.87a234.125,234.125,0,0,1,25.317,81.933q1.047,8.955,1.438,18.165.5,12.076-.178,24.568a285.7,285.7,0,0,1-7.78,51.769v.009c-.336,1.393-.656,2.785-.966,4.161a233.6,233.6,0,0,0-5.05,67.038c5.185,77.9,45.273,140.989,44.937,198.057Z"/>
    <rect id="Rectangle_443" data-name="Rectangle 443" class="cls-4" width="137.923" height="347.937" transform="translate(211.344 185.606)"/>
    <rect id="Rectangle_444" data-name="Rectangle 444" class="cls-5" width="121.737" height="334.214" transform="translate(219.929 191.806)"/>
    <rect id="Rectangle_445" data-name="Rectangle 445" class="cls-6" width="271.558" height="11.439" transform="translate(885.954 348.624)"/>
    <rect id="Rectangle_446" data-name="Rectangle 446" class="cls-6" width="32.39" height="122.45" transform="translate(901.562 226.166)"/>
    <rect id="Rectangle_447" data-name="Rectangle 447" class="cls-6" width="32.387" height="122.45" transform="translate(929.367 237.87) rotate(-17.708)"/>
    <rect id="Rectangle_448" data-name="Rectangle 448" class="cls-5" width="27.946" height="81.347" transform="translate(932.184 239.381) rotate(-17.701)"/>
    <rect id="Rectangle_449" data-name="Rectangle 449" class="cls-3" width="28.05" height="2.768" transform="translate(903.669 228.45)"/>
    <rect id="Rectangle_450" data-name="Rectangle 450" class="cls-3" width="28.05" height="2.768" transform="translate(903.669 233.248)"/>
    <rect id="Rectangle_451" data-name="Rectangle 451" class="cls-3" width="28.05" height="2.768" transform="translate(903.669 238.488)"/>
    <rect id="Rectangle_452" data-name="Rectangle 452" class="cls-3" width="28.05" height="21.137" transform="translate(903.669 324.396)"/>
    <path id="Path_4492" data-name="Path 4492" class="cls-5" d="M1109.573,273.162s-8.935,2.624-13.75-1.146,1.07-13.563,6.87-16.628,6.565-10.505,15.66-11.924,22.606-6.564,25.052-3.668-11.761,11.923-11.227,14.658-3.923,7.906-11.99,13.621c-7.177,5.087-10.615,5.087-10.615,5.087"/>
    <path id="Path_4493" data-name="Path 4493" class="cls-7" d="M1084.469,320.4a.414.414,0,0,1-.416-.365,73.308,73.308,0,0,1,2.131-25.766c3.406-13.188,12.093-31.641,34.131-44.669a.425.425,0,0,1,.425.731c-41.7,24.652-35.914,69.143-35.855,69.586a.428.428,0,0,1-.357.483Z"/>
    <path id="Path_4494" data-name="Path 4494" class="cls-5" d="M1071.391,265.357s5.826,5.936,11.388,2.463,5.486-17.757,2.336-23.363-.281-15.4-6.794-19.828-14.785-14.922-18.063-11.889,3.719,18.708,2.021,22.079-.6,11.294,3.108,20.96c3.3,8.6,6,9.587,6,9.587Z"/>
    <path id="Path_4495" data-name="Path 4495" class="cls-7" d="M1069.345,333.2a.344.344,0,0,1-.178-.042.419.419,0,0,1-.207-.555l0-.006c.263-.56,25.662-56.312,4.229-100.039a.425.425,0,1,1,.764-.374c21.622,44.092-3.957,100.209-4.22,100.77a.424.424,0,0,1-.382.246Z"/>
    <path id="Path_4496" data-name="Path 4496" class="cls-5" d="M1052.8,278.733s7.21,2.115,11.091-.926-.866-10.946-5.545-13.417-5.3-8.476-12.629-9.622-18.232-5.3-20.211-2.956,9.486,9.622,9.053,11.83,3.167,6.378,9.672,10.989c5.792,4.1,8.56,4.1,8.56,4.1Z"/>
    <path id="Path_4497" data-name="Path 4497" class="cls-7" d="M1073.047,316.931h-.059a.437.437,0,0,1-.366-.484c.051-.357,4.688-36.2-28.882-56.058a.425.425,0,0,1,.425-.73c34.071,20.144,29.349,56.542,29.3,56.907a.424.424,0,0,1-.416.365"/>
    <path id="Path_4498" data-name="Path 4498" class="cls-6" d="M1094.872,348.624h-32.347l-15.354-45.451h61.093Z"/>
    <path id="Path_4499" data-name="Path 4499" class="cls-4" d="M473.7,284.244A50.707,50.707,0,1,0,423,233.537,50.707,50.707,0,0,0,473.7,284.244"/>
    <rect id="Rectangle_453" data-name="Rectangle 453" class="cls-8" width="4.951" height="2.548" transform="translate(511.032 232.522) rotate(-0.348)"/>
    <rect id="Rectangle_454" data-name="Rectangle 454" class="cls-8" width="2.548" height="4.951" transform="translate(472.106 271.884) rotate(-0.36)"/>
    <rect id="Rectangle_455" data-name="Rectangle 455" class="cls-8" width="4.951" height="2.548" transform="translate(430.214 233.008) rotate(-0.359)"/>
    <rect id="Rectangle_456" data-name="Rectangle 456" class="cls-8" width="2.548" height="4.951" transform="matrix(1, -0.006, 0.006, 1, 471.588, 191.118)"/>
    <path id="Path_4500" data-name="Path 4500" class="cls-8" d="M505.779,236.04H471.852V203.413H474.4v30.079h31.379Z"/>
    <rect id="Rectangle_457" data-name="Rectangle 457" class="cls-4" width="8.144" height="337.543" transform="translate(276.734 188.477)"/>
    <rect id="Rectangle_458" data-name="Rectangle 458" class="cls-4" width="131.605" height="6.004" transform="translate(214.791 347.062)"/>
    <path id="Path_4501" data-name="Path 4501" class="cls-9" d="M830.949,160.214A17.248,17.248,0,1,0,813.7,142.966a17.248,17.248,0,0,0,17.248,17.248"/>
    <rect id="Rectangle_459" data-name="Rectangle 459" class="cls-4" width="9.291" height="124.616" transform="translate(826.303 0.169)"/>
    <path id="Path_4502" data-name="Path 4502" class="cls-4" d="M874.965,146.786H786.934a44.016,44.016,0,0,1,88.031-.067Z"/>
    <path id="Path_4504" data-name="Path 4504" class="cls-10" d="M911.992,624.86a.739.739,0,0,1-.733-.62.749.749,0,0,1,.605-.868h0l23.037-4.036a.747.747,0,1,1,.261,1.472l-23.036,4.037c-.045,0-.09.008-.128.008Z"/>
    <g class="cls-18" transform="matrix(1, 0, 0, 1, 0, 0)">
      <path id="Path_4505-2" data-name="Path 4505" class="cls-9" d="M1089.8,508.492c-18.96,39.08-82.92,104.89-95.2,116.04-3.7,3.37-16.91,13.69-28.46,19.32l3.7,39.65a15.991,15.991,0,0,1-15.63,17.48l-220.12,4.16h-.3a15.891,15.891,0,0,1-11.23-4.6,16.105,16.105,0,0,1-4.77-11.47l.84-179.92-13.44,6.78a16.106,16.106,0,0,1-12.55.79c-.08-.03-.15-.06-.22-.08-20.84,11.29-46.13,20.05-61.59,8.02-9.83-7.65-19.91-18.24-30.73-32.4l2.24,30.34c1.18,12.45-3.42,20.45-7.5,24.97-6.39,7.09-16.08,10.87-28.03,10.95h-.3l-276.61-5.11c-18.64,0-34.79-16.15-36-36l-18.56-322.16a15.781,15.781,0,0,1,1.14-6.92,36.2,36.2,0,0,1,9.21-17.47,34.47,34.47,0,0,1,25.94-10.62l272.84,5.92c17.53.38,32.18,15.3,34.08,34.7.01.1.01.19.02.29l7.47,100.98,12.46,1.6a16.425,16.425,0,0,1,2.95.65c.15.04.3.1.45.15a16.167,16.167,0,0,1,2.54,1.14c.05.03.11.06.16.09.15.09.3.19.45.28.1.07.2.13.3.2a16.553,16.553,0,0,1,1.71,1.28c.18.16.38.34.56.52a14.52,14.52,0,0,1,1.5,1.65c.13.16.3.38.43.57a15.747,15.747,0,0,1,1.18,1.9,7.422,7.422,0,0,1,.34.69,15.07,15.07,0,0,1,.81,2.09c.06.2.11.39.17.59.01.03.01.07.02.1a15.351,15.351,0,0,1,.41,2.23c.02.17.04.33.05.5a.969.969,0,0,1,.01.17,15.8,15.8,0,0,1-.12,3.37l-1.78,13.9a15.99,15.99,0,0,1-18.26,13.78l-1.38-.2,17.4,23.25a16.177,16.177,0,0,1,2.21,2.46c9.92,13.7,20.41,28.08,29.95,40.22,4.25,5.4,7.55,9.38,10.08,12.29a15.981,15.981,0,0,1,3.73-7.14c33.22-36.74,69.96-67.21,86.29-75.44,11.14-5.62,27.02-7.09,39.53-7.5.09-2.75.15-5.82.15-8.74-13.95-10.63-22.58-26.1-25.68-46.07-2.2-14.21-1-28.1.39-37.25a.687.687,0,0,0,.02-.13c.03-.17.09-.5.16-.94-5.97-4.71-10.26-11.91-12.46-21.13-3.56-14.97-2.62-47.16,11.9-55.31a22.022,22.022,0,0,1,11.64-2.9,62.773,62.773,0,0,1,16.73-8.56c18.11-6.5,32.33-2,40.04,1.92,24.62-1.32,42.52,15.85,50.01,24.64,9.33,3.94,20.82,13.27,27.52,26.93,5.9,12.05,10.02,31.15-2.4,55.16a32.77,32.77,0,0,1,.25,6.42c-.51,11.06-5.42,20.45-13.84,26.46a36.866,36.866,0,0,1-9.73,4.89c.57,9.06,1.3,20.36,1.96,29.99,9.48-.73,19.32-1.05,30.07,2.44,46.38,13.69,131.32,73.47,140.86,80.25a15.971,15.971,0,0,1,6.2,9.01c9.53,8.89,20.71,23.34,33.33,43.06a42.1,42.1,0,0,1,2.49,40.83"/>
    </g>
    <path id="Path_4506" data-name="Path 4506" class="cls-11" d="M250.7,192.317l18.552,322.11c.737,12.081,10.156,21.038,20.151,20.969l276.691,5.114c11.461-.072,21.038-4.818,19.69-18.607L562.007,200.412c-1.119-11.43-9-20.062-18.5-20.267L270.67,174.227c-11.3-.246-20.529,8.906-19.691,22.559Z"/>
    <path id="Path_4507" data-name="Path 4507" d="M719.707,401.639v.015a.468.468,0,0,0-.067.1Z"/>
    <path id="Path_4508" data-name="Path 4508" d="M997.234,491.957l-63.858-23.766c.337,5,19.918,214.784,19.918,214.784l-220.117,4.156.964-206.043-36.769,18.541L665.62,429.182c32.91-36.4,68.392-65.219,81.623-71.888,13.142-6.625,38.749-5.817,47.493-6-.007,2.46-.471,7.069-.568,9.035,38.745,31.068,67.885-10.64,67.235-12.442,14.524-.239,27.131-3.58,40.159.728C946.679,361.8,1037.9,426.622,1037.9,426.622l-40.674,65.335Z"/>
    <path id="Path_4509" data-name="Path 4509" class="cls-12" d="M694.947,494.249s-41.192,26.448-54.909,15.774c-31.172-24.251-61.437-81.044-81.045-114.646l38.042-12.905c17.807,24.572,45.331,62.368,53.367,65.044.71.24,13.778-11.046,16.724-14.993Z"/>
    <path id="Path_4510" data-name="Path 4510" class="cls-13" d="M772.2,232.554s10.309-20.034,27.352-19.615c51.924,1.278,31.688,55.714,40.6,53.785,16.169-3.491,8.724-16.88,21.462-15.736,7.49.673,14.741,5.2,17.836,11.527,26.934-41.466-7.064-66.68-16.476-67.689,0,0-18.509-26.642-44.134-21.918,0,0-12.275-10.092-31.015-3.364C769.4,176.16,770.738,182.8,770.738,182.8s-3.431-5.957-8.851-2.915-12.6,51.662,10.316,52.671Z"/>
    <path id="Path_4511" data-name="Path 4511" class="cls-12" d="M795.9,333.77c-.366,5.038-1.645,24.811-1.734,26.56,34.342,27.539,68.287-5.592,67.712-7.2-.367-1.024-3.865-54.592-4.471-66.164,1.72.508,23.585,1.585,24.46-18.27a17.3,17.3,0,0,0-1.286-7.662c-3.259-7.737-11.931-10.929-17.769-11.385-.531-.045-1.009-.068-1.473-.068-3.58-.067-5.337.853-6.443,2.295a.6.6,0,0,0-.083.135,9.257,9.257,0,0,0-1.158,2.25.064.064,0,0,0-.023.037c-1.465,3.663-2.519,8.552-12.282,11.086a1.129,1.129,0,0,1-.224.038c-1.51.246-2.145-1.353-2.37-4.119a.174.174,0,0,1-.007-.06c-.1-1.181-.12-2.572-.1-4.119,0-1.338.045-2.818.082-4.365a51.15,51.15,0,0,0-1.756-15.617,36.272,36.272,0,0,0-2-5.374c-9.8-21.021-35.171-20.087-35.418-20.079a28.132,28.132,0,0,0-18.823,8.484,1.408,1.408,0,0,1-.1.113,32.537,32.537,0,0,0-3.393,4.036.162.162,0,0,1-.06.067,31.283,31.283,0,0,0-3.76,6.8c-.008.008-19.542,63.441,22.028,86.794a115.02,115.02,0,0,1,.465,15.783"/>
    <path id="Path_4512" data-name="Path 4512" class="cls-10" d="M795.437,317.988c8.335,6.188,29.894-3.14,37.452-7.3l-37.7,33.616s1.021-16.666.246-26.32"/>
    <path id="Path_4513" data-name="Path 4513" class="cls-14" d="M774.209,252.6a1.389,1.389,0,0,1-1.068-.493,1.41,1.41,0,0,1,.148-1.988h0c2.677-2.295,7.05-1.5,7.236-1.472a1.41,1.41,0,0,1-.476,2.78l-.039-.007c-.9-.165-3.521-.329-4.882.837a1.389,1.389,0,0,1-.919.337Z"/>
    <path id="Path_4514" data-name="Path 4514" class="cls-14" d="M795.5,250.921a1.412,1.412,0,0,1-.792-2.579c6.062-4.126,15.182-1.413,15.563-1.293a1.415,1.415,0,0,1-.829,2.706c-.083-.023-8.216-2.43-13.157.927a1.419,1.419,0,0,1-.792.246Z"/>
    <path id="Path_4515" data-name="Path 4515" class="cls-15" d="M793.181,279.828a10.854,10.854,0,0,1-2.953-.441,4.286,4.286,0,0,1-3.281-4.366l1.128-14.861a.942.942,0,0,1,1.877.142l-1.129,14.861a2.423,2.423,0,0,0,1.914,2.407,7.492,7.492,0,0,0,4.261.1.941.941,0,0,1,.545,1.8,8.109,8.109,0,0,1-2.377.344Z"/>
    <path id="Path_4516" data-name="Path 4516" class="cls-12" d="M864.789,263.015s7.423,5.278,0,10.391Z"/>
    <path id="Path_4517" data-name="Path 4517" class="cls-10" d="M864.788,274.349a.954.954,0,0,1-.777-.4.944.944,0,0,1,.239-1.308c1.906-1.316,2.878-2.713,2.893-4.164.022-2.556-2.871-4.664-2.9-4.687a.935.935,0,0,1-.219-1.3l0,0a.944.944,0,0,1,1.308-.224c.149.1,3.722,2.684,3.693,6.227-.015,2.1-1.264,4.022-3.708,5.7a.952.952,0,0,1-.531.165Z"/>
    <path id="Path_4518" data-name="Path 4518" class="cls-16" d="M778.822,263.688a2.183,2.183,0,1,0-2.183-2.183,2.183,2.183,0,0,0,2.183,2.183"/>
    <path id="Path_4519" data-name="Path 4519" class="cls-16" d="M802.675,262.538a2.183,2.183,0,1,0-2.183-2.183,2.183,2.183,0,0,0,2.183,2.183"/>
    <path id="Path_4520" data-name="Path 4520" class="cls-15" d="M802.675,294.794a.94.94,0,0,1-.1-1.876c11.557-1.211,12.8-7.259,12.842-7.521a.944.944,0,0,1,1.862.314c-.052.314-1.428,7.708-14.5,9.076h-.1Z"/>
    <path id="Path_4521" data-name="Path 4521" class="cls-12" d="M1073.219,474.272a25.87,25.87,0,0,1,1.568,25.226c-17.188,35.423-78.386,99.209-91.561,111.181-6.153,5.592-23.57,17.724-30.276,18.92-11.063,1.974-25.8,1.884-34.3,2.654-10.755.979-11.293-5.106-6.06-8.245.082-.045-8.448,2.324-7.311-5.824.284-2.026,3.715-4.433,3.715-4.433-11.961-4.829-.209-10.151-.209-10.151s-7.177,1.375-5.951-5.958c.441-2.631,3.558-5.031,10.271-6.728,7.077-1.786,26-7.026,30.925-7.385a3.792,3.792,0,0,0-.09-.974c-.374-2.773-.64-6.483-.64-6.483,1.077-.359,21.121,6.986,21.121,6.986l55.671-77.4-21.662-15.509,37.828-60.824c12.137,7.833,28.316,31.436,36.965,44.951"/>
    <path id="Path_4522" data-name="Path 4522" class="cls-10" d="M907.532,604.422a.747.747,0,0,1-.157-1.48l24.435-5.218a.749.749,0,0,1,.314,1.465l-24.435,5.218a.588.588,0,0,1-.157.015"/>
    <path id="Path_4523" data-name="Path 4523" class="cls-10" d="M908.9,614.328a.75.75,0,0,1-.127-1.488l23.724-4.216a.748.748,0,1,1,.261,1.473l-23.723,4.215a.893.893,0,0,1-.135.016"/>
    <path id="Path_4524" data-name="Path 4524" class="cls-12" d="M598.082,384.355l-39.089,11.022c-7.393-11.946-20.4-43.427-20.2-45.026s-21.543-15.449-24.346-25.526c-.546-1.966-3.284-11.614-2.768-12.571,2.213-4.074,3.967-4.977,6.591-4.641a2.759,2.759,0,0,1,2.392,1.749,68.179,68.179,0,0,0,6,10.667l39.964,5.136c3.012,6.279,2.085,19.944,2.085,19.944l29.363,39.238Z"/>
    <path id="Path_4525" data-name="Path 4525" d="M512.5,317.666a22.242,22.242,0,0,1,.921,3.427l-34.525-4.151,1.816-14.151,37.542,4.822c-3.349-.609-5.094,3.686-5.813,6.163a6.654,6.654,0,0,0,.059,3.89"/>
    <path id="Path_4526" data-name="Path 4526" d="M595.966,317.6l-1.816,14.151L531.073,322.4a8.939,8.939,0,0,1-6.416-4.356,43.113,43.113,0,0,1-4.043-8.3,2.691,2.691,0,0,0-2.339-2.123l77.7,9.988Z"/>
    <path id="Path_4527" data-name="Path 4527" class="cls-12" d="M558.993,312.853l-56.364-7.244s-5.7-.157-5.7-3.879c-.007-5.338,7.109-7.042,14.592-5.614,4.575-2.931,13.291-4.448,18.113-4,6.219.568,22.665,13.715,29.363,20.737"/>
    <path id="Path_4528" data-name="Path 4528" d="M481.137,302.99l-13.306,5.479,11.482,8.672Z"/>
    <path id="Path_4529" data-name="Path 4529" class="cls-10" d="M512.36,306.2a.775.775,0,0,1-.449-.15c-.186-.142-4.582-3.513-3.476-7.258,1.2-4.067,8.119-6.5,21.141-7.431a.749.749,0,1,1,.1,1.495c-15.93,1.144-19.249,4.478-19.809,6.362-.815,2.751,2.908,5.614,2.945,5.644a.741.741,0,0,1,.148,1.038l-.006.008a.756.756,0,0,1-.6.3Z"/>
    <path id="Path_4530" data-name="Path 4530" class="cls-17" d="M295.966,259.359l8.764,12.375a4.956,4.956,0,0,0,7.381.8l31.243-33.665"/>
    <path id="Path_4531" data-name="Path 4531" class="cls-17" d="M304.288,349.459l8.764,12.375a4.956,4.956,0,0,0,7.381.8l31.243-33.665"/>
    <path id="Path_4532" data-name="Path 4532" class="cls-17" d="M310.2,438.35l8.764,12.375a4.956,4.956,0,0,0,7.381.8l31.243-33.665"/>
    <line id="Line_1" data-name="Line 1" class="cls-17" y1="0.116" x2="121.746" transform="translate(389.255 258.583)"/>
    <line id="Line_2" data-name="Line 2" class="cls-17" y1="0.116" x2="121.746" transform="translate(397.805 346.93)"/>
    <line id="Line_3" data-name="Line 3" class="cls-17" y1="0.116" x2="121.746" transform="translate(405.643 430.175)"/>
    <path id="Path_4503" data-name="Path 4503" d="M1276.68,710.795H3.4A3.4,3.4,0,0,1,3.4,704H1276.68a3.4,3.4,0,0,1,0,6.794"/>
  </g>
</svg>
