<svg id="Bug_Tracker" data-name="Bug Tracker" xmlns="http://www.w3.org/2000/svg" xmlns:xlink="http://www.w3.org/1999/xlink" width="1280.076" height="710.626" viewBox="0 0 1280.076 710.626">
  <defs>
    <style>
      .cls-1 {
        fill: none;
      }

      .cls-2 {
        clip-path: url(#clip-path);
      }

      .cls-3 {
        fill: #f2f2f2;
      }

      .cls-4 {
        fill: #e7e7e7;
      }

      .cls-5 {
        fill: #e2e2e2;
      }

      .cls-6 {
        fill: #ddd;
      }

      .cls-7 {
        fill: #b2b2b2;
      }

      .cls-8 {
        fill: #c1c1c1;
      }

      .cls-9 {
        fill: #fff;
      }

      .cls-10 {
        fill: #b88765;
      }

      .cls-11 {
        fill: #0a0a0a;
      }

      .cls-12 {
        fill: #1d1d1b;
      }

      .cls-13 {
        fill: #9a6247;
      }

      .cls-14 {
        fill: #6259ec;
      }

      .cls-15 {
        fill: #6259e8;
      }

      .cls-16 {
        fill: #252728;
      }

      .cls-17 {
        fill: #ff6167;
      }

      .cls-18 {
        filter: url(#Path_4280);
      }

      .cls-19 {
        filter: url(#Path_4249);
      }
    </style>
    <clipPath id="clip-path">
      <rect id="Rectangle_384" data-name="Rectangle 384" class="cls-1" width="1280.076" height="710.626"/>
    </clipPath>
    <filter id="Path_4249" x="531.514" y="118.464" width="548.983" height="594.117" filterUnits="userSpaceOnUse">
      <feOffset input="SourceAlpha"/>
      <feGaussianBlur stdDeviation="3" result="blur"/>
      <feFlood flood-opacity="0.161"/>
      <feComposite operator="in" in2="blur"/>
      <feComposite in="SourceGraphic"/>
    </filter>
    <filter id="Path_4280" x="366.589" y="247.757" width="161.164" height="161.531" filterUnits="userSpaceOnUse">
      <feOffset input="SourceAlpha"/>
      <feGaussianBlur stdDeviation="3" result="blur-2"/>
      <feFlood flood-opacity="0.161"/>
      <feComposite operator="in" in2="blur-2"/>
      <feComposite in="SourceGraphic"/>
    </filter>
  </defs>
  <g id="Group_132" data-name="Group 132" class="cls-2">
    <path id="Path_4235" data-name="Path 4235" d="M464.133,433.232a1.686,1.686,0,0,1-.858-.238,6.02,6.02,0,0,1-3.176-4.356c-.535-3.593,2.446-6.956,2.794-7.329A1.7,1.7,0,0,1,465.4,423.6c-.628.688-2.191,2.845-1.936,4.543A2.774,2.774,0,0,0,465,430.073a1.7,1.7,0,0,1-.866,3.168Z"/>
    <path id="Path_4236" data-name="Path 4236" class="cls-3" d="M1231.01,614.027c0,.382,0,.756-.008,1.138-.017.8-.034,1.588-.068,2.378a99.862,99.862,0,0,1-5.142,28.806c-.143.416-.286.832-.429,1.24-5.949,16.78-17.065,33.162-35.467,49.408q-5.583,4.925-12.083,9.834-1.512,1.146-3.092,2.293h-31.208l-639.472-.213-46-.017-361.985-.119s-.253-.662-.732-1.953a709.205,709.205,0,0,1-21.846-73.628C63.844,593.423,55.23,530.166,54.962,464v-6.888c.377-78.383,12.755-159.816,49.189-210.354.427-.594.856-1.189,1.293-1.775.63-.849,1.27-1.7,1.9-2.53.286-.382.571-.748.856-1.121C208.831,109.8,369.581,110.008,447.381,118.356c7.622.824,14.445,1.715,20.335,2.573,3.545.518,6.755,1.019,9.6,1.478,111.167,18.122,161.347-38.368,161.347-38.368C717.029,11.1,791.157-6.717,893.72,2.784Q913.031,4.555,932,8.067c49.919,9.188,97.411,27.1,138.164,52.584q6.63,4.14,13,8.552,2.292,1.579,4.561,3.21,8.1,5.808,15.772,12.042c28.981,23.574,52.962,51.726,69.8,83.87a234.148,234.148,0,0,1,25.317,81.933q1.045,8.955,1.437,18.165.5,12.076-.177,24.568a285.618,285.618,0,0,1-7.781,51.769v.009c-.336,1.393-.655,2.785-.966,4.161a233.63,233.63,0,0,0-5.05,67.038c5.185,77.9,45.273,140.989,44.937,198.057Z"/>
    <rect id="Rectangle_367" data-name="Rectangle 367" class="cls-4" width="137.923" height="347.937" transform="translate(211.344 185.437)"/>
    <rect id="Rectangle_368" data-name="Rectangle 368" class="cls-5" width="121.737" height="334.214" transform="translate(219.929 191.637)"/>
    <rect id="Rectangle_369" data-name="Rectangle 369" class="cls-6" width="271.558" height="11.439" transform="translate(885.954 348.455)"/>
    <rect id="Rectangle_370" data-name="Rectangle 370" class="cls-6" width="32.39" height="122.45" transform="translate(901.562 225.997)"/>
    <rect id="Rectangle_371" data-name="Rectangle 371" class="cls-6" width="32.387" height="122.45" transform="translate(929.367 237.701) rotate(-17.708)"/>
    <rect id="Rectangle_372" data-name="Rectangle 372" class="cls-5" width="27.946" height="81.347" transform="translate(932.184 239.212) rotate(-17.701)"/>
    <rect id="Rectangle_373" data-name="Rectangle 373" class="cls-3" width="28.05" height="2.768" transform="translate(903.669 228.281)"/>
    <rect id="Rectangle_374" data-name="Rectangle 374" class="cls-3" width="28.05" height="2.768" transform="translate(903.669 233.079)"/>
    <rect id="Rectangle_375" data-name="Rectangle 375" class="cls-3" width="28.05" height="2.768" transform="translate(903.669 238.319)"/>
    <rect id="Rectangle_376" data-name="Rectangle 376" class="cls-3" width="28.05" height="21.137" transform="translate(903.669 324.227)"/>
    <path id="Path_4237" data-name="Path 4237" class="cls-5" d="M1109.573,272.993s-8.935,2.624-13.75-1.146,1.07-13.563,6.87-16.628,6.565-10.5,15.66-11.924,22.606-6.564,25.052-3.668-11.761,11.923-11.227,14.658-3.923,7.906-11.99,13.621c-7.177,5.087-10.615,5.087-10.615,5.087"/>
    <path id="Path_4238" data-name="Path 4238" class="cls-7" d="M1084.469,320.235a.414.414,0,0,1-.416-.365,73.308,73.308,0,0,1,2.131-25.766c3.406-13.188,12.093-31.642,34.131-44.669a.425.425,0,0,1,.425.73c-41.7,24.653-35.914,69.144-35.855,69.586a.428.428,0,0,1-.357.484Z"/>
    <path id="Path_4239" data-name="Path 4239" class="cls-5" d="M1071.391,265.188s5.826,5.936,11.388,2.463,5.486-17.758,2.336-23.363-.281-15.4-6.794-19.828-14.785-14.922-18.063-11.89,3.719,18.709,2.021,22.08-.6,11.294,3.108,20.959c3.3,8.6,6,9.588,6,9.588Z"/>
    <path id="Path_4240" data-name="Path 4240" class="cls-7" d="M1069.345,333.033a.344.344,0,0,1-.178-.042.419.419,0,0,1-.207-.555l0-.006c.263-.56,25.662-56.312,4.229-100.039a.425.425,0,1,1,.764-.374c21.622,44.092-3.957,100.209-4.22,100.77a.424.424,0,0,1-.382.246Z"/>
    <path id="Path_4241" data-name="Path 4241" class="cls-5" d="M1052.8,278.564s7.21,2.115,11.091-.926-.866-10.946-5.545-13.417-5.3-8.476-12.629-9.622-18.232-5.3-20.211-2.956,9.486,9.622,9.053,11.83,3.167,6.378,9.672,10.989c5.792,4.1,8.56,4.1,8.56,4.1Z"/>
    <path id="Path_4242" data-name="Path 4242" class="cls-7" d="M1073.047,316.762h-.059a.437.437,0,0,1-.366-.484c.051-.357,4.688-36.2-28.882-56.058a.425.425,0,0,1,.425-.73c34.071,20.144,29.349,56.542,29.3,56.907a.424.424,0,0,1-.416.365"/>
    <path id="Path_4243" data-name="Path 4243" class="cls-6" d="M1094.872,348.455h-32.347L1047.171,303h61.093Z"/>
    <path id="Path_4244" data-name="Path 4244" class="cls-4" d="M473.7,284.075A50.708,50.708,0,1,0,423,233.368,50.707,50.707,0,0,0,473.7,284.075"/>
    <rect id="Rectangle_377" data-name="Rectangle 377" class="cls-8" width="4.951" height="2.548" transform="translate(511.032 232.353) rotate(-0.348)"/>
    <rect id="Rectangle_378" data-name="Rectangle 378" class="cls-8" width="2.548" height="4.951" transform="translate(472.106 271.715) rotate(-0.36)"/>
    <rect id="Rectangle_379" data-name="Rectangle 379" class="cls-8" width="4.951" height="2.548" transform="translate(430.214 232.839) rotate(-0.359)"/>
    <rect id="Rectangle_380" data-name="Rectangle 380" class="cls-8" width="2.548" height="4.951" transform="matrix(1, -0.006, 0.006, 1, 471.588, 190.949)"/>
    <path id="Path_4245" data-name="Path 4245" class="cls-8" d="M505.779,235.871H471.852V203.244H474.4v30.079h31.379Z"/>
    <rect id="Rectangle_381" data-name="Rectangle 381" class="cls-4" width="8.144" height="337.543" transform="translate(276.734 188.308)"/>
    <rect id="Rectangle_382" data-name="Rectangle 382" class="cls-4" width="131.605" height="6.004" transform="translate(214.791 346.893)"/>
    <path id="Path_4246" data-name="Path 4246" class="cls-9" d="M830.949,160.045A17.248,17.248,0,1,0,813.7,142.8a17.248,17.248,0,0,0,17.248,17.248"/>
    <rect id="Rectangle_383" data-name="Rectangle 383" class="cls-4" width="9.291" height="124.616" transform="translate(826.303)"/>
    <path id="Path_4247" data-name="Path 4247" class="cls-4" d="M874.965,146.617H786.934a44.016,44.016,0,0,1,88.031-.068Z"/>
    <path id="Path_4248" data-name="Path 4248" d="M1276.68,710.626H3.4a3.4,3.4,0,0,1,0-6.794H1276.68a3.4,3.4,0,0,1,0,6.794"/>
    <g class="cls-19" transform="matrix(1, 0, 0, 1, 0, 0)">
      <path id="Path_4249-2" data-name="Path 4249" class="cls-9" d="M998.844,345.227c-17.588-15.15-54.843-18.309-88-18.789l-7.593-26.524c8.347-7.313,14.444-19.026,17.558-34.048,3.988-19.235,2.869-44.048-6.377-65.02a37.51,37.51,0,0,0-10.945-73.382h-.007a37.553,37.553,0,0,0-37.293,33.556c-35.558-7.714-59.854.688-74.214,9.4a75.516,75.516,0,0,0-24.157,23.187c-22.075-20.027-46.116-27.975-67.747-21.921-23.8,6.66-41.119,28.823-48.763,62.407-7.057,31.005-5.146,68.8,5.384,106.407,14.229,50.829,41.663,92.631,72.972,112.108-12.839,43.9-17.183,55.892-18.48,59.052a11.984,11.984,0,0,0-2.2,8.532c.048.38.12.754.2,1.124l-1.326,4.65-83.749-66.115c1.827-11.441,3.853-26.126.324-36.7-2.2-6.623-5.913-11.008-11.023-13.034a17.1,17.1,0,0,0-9.189-.911c-4.738-4.972-11.3-11.431-17.91-17.362-17.83-16-25.075-18.63-30.25-19.089a13.865,13.865,0,0,0-13.956,7.257c-4.861,9.456,1.461,19.191,18.57,39.367q-.324.665-.6,1.373a18.412,18.412,0,0,0-7.048,9.257,15.419,15.419,0,0,0-2.005,1.417c-7,5.829-6.92,15.721-6.562,19.7a11.861,11.861,0,0,0,.366,2.049c.336,1.247,8.146,29.252,32.6,39.983,13.323,19.129,37.736,52.515,64.657,81.234,33.351,35.578,60.14,52.927,81.775,52.925.863,0,1.721-.028,2.569-.083,14.045-.916,28.261-11.848,42.254-32.494,2.134-3.148,4.1-6.278,5.864-9.241a22.477,22.477,0,0,0,1.855,6.451l-.842,34.095c0,.148-.005.3,0,.446l.813,65.236a12,12,0,0,0,12,11.851H999a12,12,0,0,0,11.988-12.563l-3.69-78.641a221.9,221.9,0,0,0,27.5-6.211c15.077-4.342,25.321-21.937,31.318-53.785a349.035,349.035,0,0,0,5.134-47.023,11.972,11.972,0,0,0,.245-2.751c-2.086-78.46-54.417-141.445-72.649-157.38"/>
    </g>
    <path id="Path_4250" data-name="Path 4250" class="cls-10" d="M881.964,266.561l18.424,64.369,8.921,39.4c-30.069,41.715-74.647,16.734-74.426,16.43l.157-34.521-3.186-39.674c-66.64,1.81-68.044-99.074-44.448-113.98,0,0,10.371-10.084,30.014,17.122,20.585,28.518,41.613,22.8,51.033,18.692a18.2,18.2,0,0,1,6.594-2.78,17.817,17.817,0,0,1,7,34.941l-.072.014Z"/>
    <path id="Path_4251" data-name="Path 4251" class="cls-11" d="M820.116,231.172a1.314,1.314,0,0,0,.453-2.447c-.315-.176-7.86-4.285-14.564-.139a1.315,1.315,0,0,0,1.385,2.236c5.393-3.335,11.839.157,11.9.194a1.241,1.241,0,0,0,.822.148Z"/>
    <path id="Path_4252" data-name="Path 4252" class="cls-12" d="M813.559,247.14a2.542,2.542,0,1,1,0-.005Z"/>
    <path id="Path_4253" data-name="Path 4253" class="cls-11" d="M817.013,286.5c3.906-.573,10.029-3.38,14.047-14.462a1.312,1.312,0,1,0-2.466-.9c-5.449,15.044-14.527,12.772-14.619,12.754a1.31,1.31,0,1,0-.684,2.53,10.33,10.33,0,0,0,3.731.065Z"/>
    <path id="Path_4254" data-name="Path 4254" class="cls-11" d="M804.711,273.46a20.519,20.519,0,0,0,4.47-1.081,1.314,1.314,0,0,0-.979-2.438,27.558,27.558,0,0,1-7.517,1.3,3.307,3.307,0,0,1-2.466-.822,2.779,2.779,0,0,1-.942-1.995l-.665-19.468a1.312,1.312,0,0,0-2.623.093l.665,19.467a5.4,5.4,0,0,0,1.81,3.86,5.968,5.968,0,0,0,4.405,1.487c1.413-.1,2.7-.231,3.851-.406Z"/>
    <path id="Path_4255" data-name="Path 4255" class="cls-13" d="M878.962,255.821a1.327,1.327,0,0,0,.887-.545c1.985-2.826,2.511-5.255,1.551-7.222-1.588-3.26-6.492-3.6-7.046-3.629a1.31,1.31,0,0,0-1.376,1.237,1.324,1.324,0,0,0,1.237,1.386c1.007.055,4.054.572,4.83,2.161.628,1.3-.378,3.2-1.339,4.553a1.308,1.308,0,0,0,1.265,2.05Z"/>
    <path id="Path_4256" data-name="Path 4256" class="cls-13" d="M831.881,312.524c13.271.212,29.358-5.209,34.964-11.165,0,0-32.733,39.318-33.552,29.118-.782-9.741-1.412-17.953-1.412-17.953"/>
    <path id="Path_4257" data-name="Path 4257" class="cls-11" d="M904.14,139.167a25.5,25.5,0,0,0-20.368,40.844,45.851,45.851,0,0,0-13.98-6.252c-74.333-19.255-104.1,35.029-97.467,52.344.24.619,1.9,1.173,2.078.536,2.586-9.115,5.541-16.937,11.424-22.192.018-.009.027-.028.046-.037.674-.508,13.427-7.259,28.61,10.085,23.882,27.29,40.357,33.69,50.1,29.5a.516.516,0,0,0,.139-.074c1.939-1.5,2.946-10.694,14.028-10.787,10.177-.083,17.177,6.973,17.177,17.141,0,12.8-14.074,15.976-13.963,16.29l.009.01s7.573,28.065,7.878,27.936c26.073-11.061,30.945-77.01,2.479-107.242a25.5,25.5,0,0,0,37.3-22.6v-.01a25.5,25.5,0,0,0-25.494-25.494"/>
    <path id="Path_4258" data-name="Path 4258" class="cls-14" d="M798.413,243.049A26.281,26.281,0,1,1,829.3,263.725h0c-.434.083-.868.157-1.293.222a26.313,26.313,0,0,1-29.589-20.9M819.6,214.743a23.581,23.581,0,1,0,1.173-.2c-.4.055-.785.129-1.182.2Z"/>
    <path id="Path_4259" data-name="Path 4259" class="cls-10" d="M796.4,511.651s-19.735,46.259-22.266,50.008c0,0-23.342,51.708-47.833,53.306-41.457,2.706-111.217-89.588-140.446-131.949-21.8-7.333-28.792-33.259-28.792-33.259s-1.126-12.476,6.594-9.89c1.164-12.541,7.01-9.91,7.25-9.235.323-10.085,4.461-8.377,7.915-9.236.97-.24-35.066-38.039-23.162-36.986,9.382.831,39.941,31.381,45.75,38.556,6.853-3.952,10.1-2.927,12.293,3.676,3.315,9.937-.444,28.2-1.894,37.975L715.14,546.19,726.1,507.745l17.86,1.007,52.419,2.909Z"/>
    <path id="Path_4260" data-name="Path 4260" d="M1060.137,502.629s-43.349,2.5-65.516,6.139l-4.716-25.373,9.752,207.889H789.021l-.812-65.237,2.429-98.335-69.1-9.319s.628,4.978,22.256-69.438c18.664-64.221,79.053-89.546,91.234-94.616.065,1.4.711,4.472.738,5.7,35.916,22.746,54.983,4.044,68.475-11.915a95.139,95.139,0,0,1-2.277-10.055c18.174.028,71.308.107,89.7,15.953,19.643,17.168,66.593,77.441,68.486,148.607Z"/>
    <path id="Path_4261" data-name="Path 4261" class="cls-15" d="M774.5,440.616l-4.45.819a5.541,5.541,0,0,0-4.446,6.453L805.364,663.9a5.54,5.54,0,0,0,6.452,4.446l4.45-.819a5.541,5.541,0,0,0,4.447-6.452h0L780.951,445.063a5.541,5.541,0,0,0-6.453-4.447"/>
    <path id="Path_4262" data-name="Path 4262" class="cls-9" d="M993.635,508.774a2.032,2.032,0,0,1-2-1.718L987.7,481.115a2.027,2.027,0,0,1,4.008-.61l3.934,25.942a2.025,2.025,0,0,1-1.7,2.308h0a1.74,1.74,0,0,1-.3.027Z"/>
    <path id="Path_4263" data-name="Path 4263" class="cls-12" d="M1028.839,536.965c-11.581,0-20.438-5.246-25.979-15.543a2.025,2.025,0,0,1,3.565-1.921c6.677,12.394,18.517,16.236,35.205,11.424a2.032,2.032,0,0,1,1.126,3.9,50.345,50.345,0,0,1-13.917,2.152Z"/>
    <path id="Path_4264" data-name="Path 4264" class="cls-10" d="M1060.026,501.391s-1.893,85.576-27.951,92.962c-66,19.948-187.856,7.47-187.856,7.47l-13.039,6.27s-28.352,8.026-36.8-3.066c-3.1-4.063-6.437-10.472-.868-12.144,0,0-10.27-6.206-5.006-16.078,0,0-8.182-2.734-2.669-14.693,0,0-9.494-8.672-1.976-13.954s42.472,1.329,54.542,9.235L854,571.811l143.92-17.332-3.3-45.711,65.414-7.386Z"/>
    <path id="Path_4265" data-name="Path 4265" class="cls-13" d="M798.321,567.192c-4.525,0-11.7-3.6-12.606-4.063a1.017,1.017,0,0,1,.924-1.811c2.585,1.321,9.909,4.572,12.763,3.713a1.017,1.017,0,1,1,.581,1.949,5.832,5.832,0,0,1-1.662.212"/>
    <path id="Path_4266" data-name="Path 4266" class="cls-13" d="M798.441,581.386c-4.885,0-9.6-3.343-9.826-3.5a1.016,1.016,0,0,1,1.182-1.644c.055.037,5.615,3.971,10.251,2.965a1.011,1.011,0,0,1,.425,1.976,9.442,9.442,0,0,1-2.032.212Z"/>
    <path id="Path_4267" data-name="Path 4267" class="cls-13" d="M801.065,596.338c-3.049,0-7.1-1.81-7.63-2.05a1.011,1.011,0,1,1,.841-1.838c2.086.951,6.022,2.272,7.73,1.755a1.016,1.016,0,1,1,.581,1.948,5.2,5.2,0,0,1-1.514.194Z"/>
    <path id="Path_4268" data-name="Path 4268" class="cls-15" d="M813.863,296.4C793.2,222.538,743.991,171.745,703.957,182.947S648.223,263.107,668.9,336.97s69.872,124.664,109.906,113.462a42,42,0,0,0,8.828-3.6l1.506-.877a51.357,51.357,0,0,0,14.712-13.622c8.293-11.11,14.065-26.338,16.965-44.236,4.294-26.394,2.336-58.56-6.945-91.7Zm-7.582,106.619c-3.177,10.26-7.636,18.895-13.3,25.341v.019a36.92,36.92,0,0,1-17.861,11.682c-34.53,9.669-78.037-37.919-97.163-106.3s-6.649-131.628,27.89-141.288,78.037,37.929,97.163,106.3c11.082,39.6,11.553,77.492,3.278,104.237Z"/>
    <path id="Path_4269" data-name="Path 4269" class="cls-9" d="M808.526,404.58c-3.232,10.38-7.785,19.1-13.566,25.618v.019a37.633,37.633,0,0,1-18.231,11.8c-35.251,9.752-79.708-38.418-99.3-107.57s-6.889-133.124,28.361-142.867,79.708,38.427,99.3,107.57c11.35,40.053,11.858,78.378,3.426,105.419Z"/>
    <path id="Path_4270" data-name="Path 4270" class="cls-13" d="M597.014,439.784a5.353,5.353,0,0,1-3.676-1.339,4.051,4.051,0,0,1-1.385-3.158c0-5.126,7.9-12.283,8.8-13.077a1.016,1.016,0,0,1,1.349,1.514c-2.254,2-8.118,7.989-8.118,11.563a2.048,2.048,0,0,0,.7,1.643c3.2,2.845,10.075-2.336,12.467-4.562a1.016,1.016,0,1,1,1.5,1.368,1.093,1.093,0,0,1-.116.11c-.324.3-6.41,5.947-11.526,5.947Z"/>
    <path id="Path_4271" data-name="Path 4271" class="cls-13" d="M567.979,465.042a5.2,5.2,0,0,1-2.65-.767c-5.144-3.019-8.1-14.536-8.229-15.025a1.016,1.016,0,1,1,1.967-.489c.785,3.1,3.62,11.617,7.287,13.769a2.961,2.961,0,0,0,2.382.379c4.8-1.293,3.99-5.08,3.879-5.514a1.016,1.016,0,0,1,1.958-.508c.563,2.115.166,6.5-5.32,7.98a5.07,5.07,0,0,1-1.274.175"/>
    <path id="Path_4272" data-name="Path 4272" class="cls-13" d="M575.552,458.865c-.185,0-.36,0-.554-.018-4.7-.315-10.833-15.081-12.015-18.046a1.016,1.016,0,0,1,1.884-.748c2.743,6.862,7.748,16.6,10.269,16.771a4.3,4.3,0,0,0,3.353-1.053c1.182-1.108,1.828-3.084,1.828-5.569a1.016,1.016,0,0,1,2.032,0c0,3.1-.859,5.541-2.475,7.056A6.135,6.135,0,0,1,575.552,458.865Z"/>
    <path id="Path_4273" data-name="Path 4273" class="cls-13" d="M583.069,451.874c-5.716,0-11.738-16.475-12.948-19.939a1.016,1.016,0,0,1,1.921-.664c3.334,9.6,8.6,19.4,11.313,18.525a7.067,7.067,0,0,0,4.415-5.227,8.371,8.371,0,0,0-2.291-7.951c-4.516-4.442-7.563-10.528-8.237-14.259a1.009,1.009,0,1,1,1.975-.417c0,.019.007.037.01.056.5,2.762,2.956,8.543,7.665,13.17a10.372,10.372,0,0,1,2.845,9.863,9.07,9.07,0,0,1-5.763,6.686,2.9,2.9,0,0,1-.914.148Z"/>
    <path id="Path_4274" data-name="Path 4274" class="cls-10" d="M766.82,220.646c-13.2,43.174-1.237,108.355,47.1,125.616-1.986-24.492-13.908-88.186-47.1-125.616"/>
    <path id="Path_4275" data-name="Path 4275" class="cls-11" d="M774.5,254.889c7.564-4.562-14.416-5.79-11.969.536a1.756,1.756,0,0,0,2.429.351c3.944-2.559,8.5-.647,9.531-.887Z"/>
    <path id="Path_4276" data-name="Path 4276" class="cls-12" d="M779.573,274.2c1.108,4.119-5.486,5.7-6.465,1.6-1.108-4.119,5.486-5.7,6.465-1.6"/>
    <path id="Path_4277" data-name="Path 4277" class="cls-11" d="M761.14,215.354c-4.433,11.119-4.054,21.019,1.274,26.025a86.727,86.727,0,0,1,6.308-18.96c-2.623-2.531-5.255-4.655-7.582-7.065"/>
    <path id="Path_4278" data-name="Path 4278" class="cls-14" d="M743.4,300.325c-33.69-21.028-3.159-69.318,30.725-50.331,33.671,21.028,3.177,69.319-30.725,50.331m8.892-50.294c-33.782,8.93-20.677,58.163,12.938,50.248,33.838-9.29,20.862-57.876-12.938-50.248"/>
    <path id="Path_4279" data-name="Path 4279" class="cls-11" d="M804.97,298.663c-3.343.6-5.643,1.663-8.995-.2-2.143-.139-1.524-24.733-1.976-26.164-.037-2.069-3.334-1.966-3.223.112l.812,23.724c.148,6.39,7.545,7.277,12.366,6.022,1.284-.361.517-.177,1.792-.5-.37-1.108-.4-1.9-.776-3Z"/>
    <g class="cls-18" transform="matrix(1, 0, 0, 1, 0, 0)">
      <path id="Path_4280-2" data-name="Path 4280" class="cls-9" d="M516.6,347.814l-9.536-11.673a20.462,20.462,0,0,0-13.768-7.636A47.329,47.329,0,0,0,482.839,306.8a41.432,41.432,0,0,0,9.07-18.938l.39-2.044a9.545,9.545,0,1,0-18.74-3.639l-.395,2.066a22.265,22.265,0,0,1-5.448,10.847,46.623,46.623,0,0,0-10.94-3.735,25.655,25.655,0,0,0-13.593-18.347l1.243-3.77a9.558,9.558,0,0,0-6.088-11.992l-.225-.072a9.552,9.552,0,0,0-11.853,6.182l-2.681,8.132q-1,.326-1.973.734l-7.436-4.355a9.549,9.549,0,0,0-9.62,16.5l3.186,1.866a25.787,25.787,0,0,0,1.823,22.944,46.674,46.674,0,0,0-5.743,10.036,22.268,22.268,0,0,1-11.16-4.5l-1.7-1.311a9.549,9.549,0,0,0-11.669,15.119l1.7,1.318a41.836,41.836,0,0,0,19.2,8.148,46.819,46.819,0,0,0,6.559,23.306,20.562,20.562,0,0,0-5.195,14.742l.587,15.069a9.522,9.522,0,0,0,9.544,9.188,9.068,9.068,0,0,0,1.633-.148,9.553,9.553,0,0,0,7.91-9.782l-.553-14.216a46.545,46.545,0,0,0,26.477,8.167h.068A46.693,46.693,0,0,0,463.6,381.34c.094-.032.188-.066.281-.1.074-.028.148-.058.222-.089a46.984,46.984,0,0,0,28.62-32.369l9.077,11.112.1.117a9.512,9.512,0,0,0,7.2,3.388,9.612,9.612,0,0,0,6.067-2.084l.119-.1a9.546,9.546,0,0,0,1.318-13.4"/>
    </g>
    <path id="Path_4281" data-name="Path 4281" class="cls-16" d="M421.862,307.505a16.122,16.122,0,1,1,25.549-9.66"/>
    <path id="Path_4282" data-name="Path 4282" class="cls-17" d="M447.3,373.527a37.34,37.34,0,1,0-37.34-37.34,37.34,37.34,0,0,0,37.34,37.34"/>
    <path id="Path_4283" data-name="Path 4283" class="cls-16" d="M421.851,308.057a.565.565,0,0,1-.329-.11,16.667,16.667,0,1,1,26.41-9.98.552.552,0,0,1-1.081-.22,15.574,15.574,0,1,0-24.679,9.34.55.55,0,0,1-.33.99Z"/>
    <path id="Path_4284" data-name="Path 4284" class="cls-16" d="M447.282,374.1a37.976,37.976,0,1,1,13.419-2.47,37.975,37.975,0,0,1-13.419,2.47m.03-74.72a36.564,36.564,0,1,0,.01,0Z"/>
    <path id="Path_4285" data-name="Path 4285" class="cls-16" d="M430.972,279.086a.343.343,0,0,1-.17-.03.545.545,0,0,1-.351-.686v0l4.43-13.44a.537.537,0,0,1,.671-.356l.019.006a.545.545,0,0,1,.351.686v0l-4.43,13.44a.556.556,0,0,1-.52.38"/>
    <path id="Path_4286" data-name="Path 4286" class="cls-16" d="M421.652,282.605a.575.575,0,0,1-.281-.07l-12.21-7.15a.549.549,0,1,1,.551-.95l12.21,7.15a.546.546,0,0,1-.27,1.02Z"/>
    <path id="Path_4287" data-name="Path 4287" class="cls-16" d="M468.662,306.105a.545.545,0,0,1-.46-.25.559.559,0,0,1,.16-.76,31.448,31.448,0,0,0,13.7-20.35l.4-2.09a.545.545,0,0,1,1.07.21l-.4,2.09a32.588,32.588,0,0,1-14.18,21.06.55.55,0,0,1-.3.09Z"/>
    <path id="Path_4288" data-name="Path 4288" class="cls-16" d="M406.4,328.236a32.612,32.612,0,0,1-19.86-6.75l-1.68-1.3a.549.549,0,1,1,.67-.87l1.68,1.3a31.489,31.489,0,0,0,23.74,6.19.537.537,0,0,1,.617.442l0,.018a.543.543,0,0,1-.456.619h0a32.419,32.419,0,0,1-4.71.35"/>
    <path id="Path_4289" data-name="Path 4289" class="cls-16" d="M509.262,353.186a.565.565,0,0,1-.43-.2l-9.59-11.74a10.39,10.39,0,0,0-8.49-3.98c-.32.02-.63.05-.95.1l-5.1.76a.537.537,0,0,1-.617-.442l0-.018a.543.543,0,0,1,.456-.619h0l5.1-.76c.35-.05.7-.09,1.05-.11a11.4,11.4,0,0,1,9.41,4.38l9.59,11.74a.544.544,0,0,1-.075.766l-.005,0a.549.549,0,0,1-.35.12"/>
    <path id="Path_4290" data-name="Path 4290" class="cls-16" d="M411.752,390.076a.55.55,0,0,1-.55-.53l-.59-15.15a11.473,11.473,0,0,1,4.15-9.51c.28-.22.56-.42.85-.61l4.33-2.81a.549.549,0,1,1,.6.92l-4.33,2.81a8.829,8.829,0,0,0-.77.55,10.347,10.347,0,0,0-3.73,8.6l.59,15.15a.549.549,0,0,1-.527.57h-.023Z"/>
    <path id="Path_4291" data-name="Path 4291" class="cls-16" d="M460.512,371.656a.538.538,0,0,1-.51-.35l-13.21-34.92a.555.555,0,0,1,.32-.71.564.564,0,0,1,.71.32l13.21,34.92a.555.555,0,0,1-.32.71.651.651,0,0,1-.19.04Z"/>
    <path id="Path_4292" data-name="Path 4292" class="cls-9" d="M444.212,285.115a15.643,15.643,0,0,0-7.44-5.63,4.77,4.77,0,0,0-.24,3.87,4.722,4.722,0,0,0,6.082,2.757l.018-.007a4.662,4.662,0,0,0,1.58-.99"/>
    <path id="Path_4293" data-name="Path 4293" class="cls-9" d="M415.772,295.876a15.692,15.692,0,0,1,1.86-9.15,4.725,4.725,0,0,1-1.85,9.14Z"/>
    <path id="Path_4294" data-name="Path 4294" class="cls-16" d="M456.652,316.455a7.58,7.58,0,1,0,9.77,4.411h0a7.578,7.578,0,0,0-9.767-4.411h0"/>
    <path id="Path_4295" data-name="Path 4295" class="cls-16" d="M427.182,327.606a7.58,7.58,0,1,0,9.77,4.411h0a7.578,7.578,0,0,0-9.767-4.411h0"/>
    <path id="Path_4296" data-name="Path 4296" class="cls-16" d="M463.192,340.436a7.58,7.58,0,1,0,9.77,4.411h0a7.578,7.578,0,0,0-9.767-4.411h0"/>
    <path id="Path_4297" data-name="Path 4297" class="cls-16" d="M437.962,349.976a7.58,7.58,0,1,0,9.77,4.411h0a7.578,7.578,0,0,0-9.767-4.411h0"/>
    <path id="Path_4298" data-name="Path 4298" class="cls-16" d="M436.742,316.125a7.86,7.86,0,1,0-7.86-7.86,7.86,7.86,0,0,0,7.86,7.86Z"/>
    <path id="Path_4299" data-name="Path 4299" class="cls-16" d="M473.872,309.946a7.9,7.9,0,0,0,8.01,12.16,37.136,37.136,0,0,0-8.01-12.17Z"/>
    <path id="Path_4300" data-name="Path 4300" class="cls-16" d="M415.4,355.586a37.017,37.017,0,0,0,8.52,9.71,7.9,7.9,0,0,0-8.52-9.71"/>
    <path id="Path_4301" data-name="Path 4301" class="cls-16" d="M481.252,338.856a7.868,7.868,0,0,0,2.84,3.67,37.018,37.018,0,0,0-.04-12.9A7.908,7.908,0,0,0,481.252,338.856Z"/>
    <path id="Path_4302" data-name="Path 4302" class="cls-16" d="M415.422,338.935a7.9,7.9,0,0,0-5.4-4.85,37.219,37.219,0,0,0,2.05,14.43,7.914,7.914,0,0,0,3.35-9.59Z"/>
  </g>
</svg>
