<svg id="Authorization_Pending" data-name="Authorization Pending" xmlns="http://www.w3.org/2000/svg" xmlns:xlink="http://www.w3.org/1999/xlink" width="1280.076" height="712.085" viewBox="0 0 1280.076 712.085">
  <defs>
    <style>
      .cls-1, .cls-13 {
        fill: none;
      }

      .cls-2 {
        clip-path: url(#clip-path);
      }

      .cls-3 {
        fill: #f2f2f2;
      }

      .cls-4 {
        fill: #e7e7e7;
      }

      .cls-5 {
        fill: #e2e2e2;
      }

      .cls-6 {
        fill: #ddd;
      }

      .cls-7 {
        fill: #b2b2b2;
      }

      .cls-8 {
        fill: #c1c1c1;
      }

      .cls-9 {
        fill: #fff;
      }

      .cls-10 {
        fill: #b88765;
      }

      .cls-11 {
        fill: #9a6247;
      }

      .cls-12 {
        fill: #6259e7;
      }

      .cls-13 {
        stroke: #000;
        stroke-width: 3px;
      }

      .cls-14 {
        filter: url(#Path_3825);
      }

      .cls-15 {
        filter: url(#Path_3824);
      }
    </style>
    <clipPath id="clip-path">
      <rect id="Rectangle_231" data-name="Rectangle 231" class="cls-1" width="1280.076" height="712.085"/>
    </clipPath>
    <filter id="Path_3824" x="529.135" y="179.083" width="481.397" height="537.605" filterUnits="userSpaceOnUse">
      <feOffset input="SourceAlpha"/>
      <feGaussianBlur stdDeviation="3" result="blur"/>
      <feFlood flood-opacity="0.161"/>
      <feComposite operator="in" in2="blur"/>
      <feComposite in="SourceGraphic"/>
    </filter>
    <filter id="Path_3825" x="239.206" y="130.168" width="336.306" height="309.463" filterUnits="userSpaceOnUse">
      <feOffset input="SourceAlpha"/>
      <feGaussianBlur stdDeviation="3" result="blur-2"/>
      <feFlood flood-opacity="0.161"/>
      <feComposite operator="in" in2="blur-2"/>
      <feComposite in="SourceGraphic"/>
    </filter>
  </defs>
  <g id="Group_122" data-name="Group 122" class="cls-2">
    <path id="Path_3811" data-name="Path 3811" d="M464.133,434.691a1.686,1.686,0,0,1-.858-.238A6.02,6.02,0,0,1,460.1,430.1c-.535-3.593,2.446-6.956,2.794-7.329a1.7,1.7,0,0,1,2.505,2.293c-.628.688-2.191,2.845-1.936,4.543A2.774,2.774,0,0,0,465,431.532a1.7,1.7,0,0,1-.866,3.168Z"/>
    <path id="Path_3812" data-name="Path 3812" class="cls-3" d="M1226.456,613.591c0,.382,0,.756-.008,1.138-.017.8-.035,1.588-.068,2.378a99.9,99.9,0,0,1-5.142,28.806c-.144.416-.286.832-.429,1.24-5.949,16.78-17.065,33.162-35.467,49.408q-5.583,4.925-12.083,9.834-1.514,1.146-3.092,2.293h-31.209l-639.472-.213-46.005-.017L91.5,708.339s-.252-.662-.731-1.953a709.456,709.456,0,0,1-21.847-73.628C59.289,592.987,50.676,529.73,50.407,463.565v-6.888c.378-78.383,12.755-159.816,49.189-210.354.428-.594.857-1.189,1.294-1.775.63-.849,1.269-1.7,1.9-2.53.286-.382.571-.748.857-1.121C204.276,109.36,365.027,109.572,442.827,117.92c7.621.824,14.444,1.715,20.334,2.573,3.546.518,6.756,1.019,9.6,1.478C583.932,140.093,634.113,83.6,634.113,83.6,712.475,10.664,786.6-7.153,889.166,2.348q19.309,1.771,38.282,5.283c49.92,9.188,97.411,27.1,138.165,52.584q6.628,4.14,13,8.552,2.293,1.58,4.563,3.21,8.1,5.808,15.771,12.042c28.981,23.574,52.961,51.726,69.8,83.87a234.125,234.125,0,0,1,25.317,81.933q1.046,8.955,1.437,18.165.506,12.076-.177,24.568a285.7,285.7,0,0,1-7.78,51.769v.009c-.336,1.393-.656,2.785-.966,4.161a233.631,233.631,0,0,0-5.051,67.038c5.186,77.9,45.275,140.989,44.938,198.057Z"/>
    <rect id="Rectangle_214" data-name="Rectangle 214" class="cls-4" width="137.923" height="347.937" transform="translate(211.344 186.896)"/>
    <rect id="Rectangle_215" data-name="Rectangle 215" class="cls-5" width="121.737" height="334.214" transform="translate(219.929 193.096)"/>
    <rect id="Rectangle_216" data-name="Rectangle 216" class="cls-6" width="271.558" height="11.439" transform="translate(885.954 349.914)"/>
    <rect id="Rectangle_217" data-name="Rectangle 217" class="cls-6" width="32.39" height="122.45" transform="translate(901.562 227.456)"/>
    <rect id="Rectangle_218" data-name="Rectangle 218" class="cls-6" width="32.387" height="122.45" transform="translate(929.367 239.16) rotate(-17.708)"/>
    <rect id="Rectangle_219" data-name="Rectangle 219" class="cls-5" width="27.946" height="81.347" transform="translate(932.184 240.671) rotate(-17.701)"/>
    <rect id="Rectangle_220" data-name="Rectangle 220" class="cls-3" width="28.05" height="2.768" transform="translate(903.669 229.74)"/>
    <rect id="Rectangle_221" data-name="Rectangle 221" class="cls-3" width="28.05" height="2.768" transform="translate(903.669 234.538)"/>
    <rect id="Rectangle_222" data-name="Rectangle 222" class="cls-3" width="28.05" height="2.768" transform="translate(903.669 239.778)"/>
    <rect id="Rectangle_223" data-name="Rectangle 223" class="cls-3" width="28.05" height="21.137" transform="translate(903.669 325.686)"/>
    <path id="Path_3813" data-name="Path 3813" class="cls-5" d="M1109.573,274.452s-8.935,2.624-13.75-1.146,1.07-13.563,6.87-16.628,6.565-10.505,15.66-11.924,22.606-6.564,25.052-3.668-11.761,11.923-11.227,14.658-3.923,7.906-11.99,13.621c-7.177,5.087-10.615,5.087-10.615,5.087"/>
    <path id="Path_3814" data-name="Path 3814" class="cls-7" d="M1084.469,321.7a.414.414,0,0,1-.416-.365,73.308,73.308,0,0,1,2.131-25.766c3.406-13.188,12.093-31.642,34.131-44.669a.425.425,0,0,1,.425.73c-41.7,24.653-35.914,69.144-35.855,69.586a.428.428,0,0,1-.357.484Z"/>
    <path id="Path_3815" data-name="Path 3815" class="cls-5" d="M1071.391,266.648s5.826,5.936,11.388,2.463,5.486-17.758,2.336-23.363-.281-15.4-6.794-19.829S1063.536,211,1060.258,214.03s3.719,18.708,2.021,22.08-.6,11.294,3.108,20.959c3.3,8.6,6,9.587,6,9.587Z"/>
    <path id="Path_3816" data-name="Path 3816" class="cls-7" d="M1069.345,334.492a.344.344,0,0,1-.178-.042.419.419,0,0,1-.207-.555l0-.006c.263-.56,25.662-56.312,4.229-100.039a.425.425,0,1,1,.764-.374c21.622,44.092-3.957,100.209-4.22,100.77a.424.424,0,0,1-.382.246Z"/>
    <path id="Path_3817" data-name="Path 3817" class="cls-5" d="M1052.8,280.023s7.21,2.115,11.091-.926-.866-10.946-5.545-13.417-5.3-8.476-12.629-9.622-18.232-5.3-20.211-2.956,9.486,9.622,9.053,11.83,3.167,6.378,9.672,10.989c5.792,4.1,8.56,4.1,8.56,4.1Z"/>
    <path id="Path_3818" data-name="Path 3818" class="cls-7" d="M1073.047,318.221h-.059a.437.437,0,0,1-.366-.484c.051-.357,4.688-36.2-28.882-56.058a.425.425,0,0,1,.425-.73c34.071,20.144,29.349,56.542,29.3,56.907a.424.424,0,0,1-.416.365"/>
    <path id="Path_3819" data-name="Path 3819" class="cls-6" d="M1094.872,349.914h-32.347l-15.354-45.451h61.093Z"/>
    <path id="Path_3820" data-name="Path 3820" class="cls-4" d="M473.7,285.534A50.707,50.707,0,1,0,423,234.827,50.707,50.707,0,0,0,473.7,285.534"/>
    <rect id="Rectangle_224" data-name="Rectangle 224" class="cls-8" width="4.951" height="2.548" transform="translate(511.032 233.812) rotate(-0.348)"/>
    <rect id="Rectangle_225" data-name="Rectangle 225" class="cls-8" width="2.548" height="4.951" transform="translate(472.106 273.174) rotate(-0.36)"/>
    <rect id="Rectangle_226" data-name="Rectangle 226" class="cls-8" width="4.951" height="2.548" transform="translate(430.214 234.298) rotate(-0.359)"/>
    <rect id="Rectangle_227" data-name="Rectangle 227" class="cls-8" width="2.548" height="4.951" transform="matrix(1, -0.006, 0.006, 1, 471.588, 192.408)"/>
    <path id="Path_3821" data-name="Path 3821" class="cls-8" d="M505.779,237.33H471.852V204.7H474.4v30.079h31.379Z"/>
    <rect id="Rectangle_228" data-name="Rectangle 228" class="cls-4" width="8.144" height="337.543" transform="translate(276.734 189.767)"/>
    <rect id="Rectangle_229" data-name="Rectangle 229" class="cls-4" width="131.605" height="6.004" transform="translate(214.791 348.352)"/>
    <path id="Path_3822" data-name="Path 3822" class="cls-9" d="M830.949,161.505A17.248,17.248,0,1,0,813.7,144.257a17.248,17.248,0,0,0,17.248,17.248"/>
    <rect id="Rectangle_230" data-name="Rectangle 230" class="cls-4" width="9.291" height="124.616" transform="translate(826.303 1.459)"/>
    <path id="Path_3823" data-name="Path 3823" class="cls-4" d="M874.965,148.077H786.934a44.016,44.016,0,1,1,88.031-.068Z"/>
    <g class="cls-15" transform="matrix(1, 0, 0, 1, 0, 0)">
      <path id="Path_3824-2" data-name="Path 3824" class="cls-9" d="M995.928,685.693c-5.24,11.7-14.56,18.8-26.26,19.99-8.87.9-14.4,1.44-18.2,1.72-2.82.21-4.82.28-6.67.28-1.66,0-3.2-.05-5.09-.13-1.01-.04-2.17-.08-3.55-.12-4.97-.16-13.84-.32-33.4,0H701.408a2.036,2.036,0,0,1-.24.05l-.21.03a12.826,12.826,0,0,1-1.64.17,12.606,12.606,0,0,1-2.22-.13c-.23-.03-.46-.07-.68-.12h-7.91c-.26.05-.52.1-.79.13a12.738,12.738,0,0,1-2.14.12,13.5,13.5,0,0,1-2.11-.25h-97.48c-.34,0-.69-.01-1.03-.04-23.86-2.05-35.12-14.69-40.36-24.93-12.81-25.05-6.62-66.81,18.94-127.66,19.53-46.49,46.03-93.65,64.82-125.03a11.82,11.82,0,0,1,1.81-2.33c3.91-6.48,7.2-11.81,9.66-15.75l-9.71-10.85c-.06-.07-.12-.13-.18-.2-26.87-31.39-38.97-58.88-35.98-81.73,2.41-18.37,13.82-26.69,15.11-27.58a12.074,12.074,0,0,1,7.16-2.1l38.96,1.17a12.022,12.022,0,0,1,9.2,4.74c4.41,5.81,4.78,11.15,4.14,14.9a65.389,65.389,0,0,1,9.43,2.84l.76-.06a35.474,35.474,0,0,1,25.78-57.81c2.53-11.8,11.26-24.68,23.78-34.13a81.117,81.117,0,0,1,42.97-15.8c15.14-1.13,31.14,1.48,47.7,7.78a43.773,43.773,0,0,1,83.21,19,43.82,43.82,0,0,1-33.85,42.68c3.24,24.06-1.68,51.11-13.56,71.2-5.65,9.55-12.42,16.59-19.94,20.82l2.36,28.3c52.06,2.83,83.36,13.74,98.07,34.03v.01c11.93,16.47,32.67,68.43,47.22,118.28,13.58,46.58,26.95,108.42,13.47,138.51"/>
    </g>
    <g class="cls-14" transform="matrix(1, 0, 0, 1, 0, 0)">
      <path id="Path_3825-2" data-name="Path 3825" class="cls-9" d="M566.512,198.838a59.666,59.666,0,0,0-104.349-39.545,144.718,144.718,0,0,0-69.417-17.743c-79.7,0-144.54,64.841-144.54,144.54a144.541,144.541,0,0,0,144.54,144.541c79.7,0,144.541-64.84,144.541-144.541a145.038,145.038,0,0,0-3.977-33.763,59.9,59.9,0,0,0,33.2-53.489"/>
    </g>
    <path id="Path_3826" data-name="Path 3826" class="cls-9" d="M815.15,658.209s-.044.009-.071.018c.009.026.009.053.018.079.027.088.053.168.079.247Z"/>
    <path id="Path_3827" data-name="Path 3827" class="cls-9" d="M815.177,658.553c-.026-.079-.053-.159-.079-.247-.009-.027-.009-.053-.018-.079.026-.009.044-.009.071-.018Z"/>
    <path id="Path_3828" data-name="Path 3828" class="cls-10" d="M818.45,693.962H674.864a10.6,10.6,0,0,1-.026-1.817c.076-4,1.276-17.9,10.56-27.773,4.493-4.779,11.761-13.115,20.831-14.43,48.367,4.111,68.854,9.114,84.371,11.5,3.564.547,12.642-1.235,24.523-4.3Z"/>
    <path id="Path_3829" data-name="Path 3829" d="M810.328,292.279a1.736,1.736,0,0,1-1.464-.785,1.765,1.765,0,0,1,.485-2.444,2.625,2.625,0,0,1,.494-.255,1.776,1.776,0,1,1,.494,3.484Z"/>
    <path id="Path_3830" data-name="Path 3830" class="cls-10" d="M819.52,326.594l5.9,70.774,1.164,42.828c-39.89,37.208-81.121,2.029-80.83,1.755l7.277-35.894,4.861-41.946c-69.724-11.856-50.4-117.121-22.759-127.768,0,0,12.87-8.363,27.708,24,15.543,33.91,38.6,32.3,49.249,29.976a19.342,19.342,0,0,1,7.437-1.535,18.9,18.9,0,1,1,0,37.8Z"/>
    <path id="Path_3831" data-name="Path 3831" d="M722.582,275.907a1.379,1.379,0,0,1-.635-.159c-.053-.026-4.12-2.2-7.048-1a1.323,1.323,0,0,1-1.015-2.443c4.111-1.694,9.121,1.006,9.333,1.12a1.323,1.323,0,0,1-.644,2.488Z"/>
    <path id="Path_3832" data-name="Path 3832" d="M762.525,276.965a1.325,1.325,0,0,1-.856-.318c-.061-.052-6.086-5.045-12.42-2.672a1.324,1.324,0,0,1-.958-2.468l.032-.011c7.806-2.929,14.767,2.884,15.058,3.131a1.323,1.323,0,0,1-.856,2.329Z"/>
    <path id="Path_3833" data-name="Path 3833" d="M752.345,292.3a2.673,2.673,0,1,1-2.673-2.673,2.673,2.673,0,0,1,2.673,2.673"/>
    <path id="Path_3834" data-name="Path 3834" d="M722.591,292.3a2.673,2.673,0,1,1-2.673-2.673,2.673,2.673,0,0,1,2.673,2.673"/>
    <path id="Path_3835" data-name="Path 3835" d="M748.534,333.96a11.068,11.068,0,0,1-4.552-.891,1.323,1.323,0,0,1,1.165-2.373c.388.185,9.218,4.181,17.934-10.277a1.324,1.324,0,1,1,2.267,1.367c-5.179,8.584-10.621,11.23-14.282,11.936a13.455,13.455,0,0,1-2.541.247Z"/>
    <path id="Path_3836" data-name="Path 3836" d="M739.378,317.826a47.405,47.405,0,0,1-5.734-.415,6.3,6.3,0,0,1-4.234-2.425,5.682,5.682,0,0,1-1.076-4.341l3.325-20.395a1.324,1.324,0,0,1,2.612.424l-3.326,20.395a3.049,3.049,0,0,0,.582,2.329,3.6,3.6,0,0,0,2.444,1.385,29.3,29.3,0,0,0,8.115.194,1.323,1.323,0,1,1,.485,2.6,17.42,17.42,0,0,1-3.193.247"/>
    <path id="Path_3837" data-name="Path 3837" class="cls-11" d="M818.682,314.738a1.323,1.323,0,0,1-.909-2.276c1.288-1.235,2.753-3.026,2.347-4.534-.485-1.861-3.582-3.026-4.623-3.29a1.324,1.324,0,0,1,.644-2.568c.565.142,5.567,1.5,6.537,5.187.582,2.215-.45,4.614-3.079,7.128a1.309,1.309,0,0,1-.917.371Z"/>
    <path id="Path_3838" data-name="Path 3838" class="cls-11" d="M757.929,364.112c13.761,2.955,31.625.626,38.691-4.411,0,0-40.72,29.287-39.838,18.463s1.156-14.052,1.156-14.052Z"/>
    <path id="Path_3839" data-name="Path 3839" d="M825.986,227.495c.225.108.437.228.659.339a31.784,31.784,0,1,1,27,34.018c11.441,38-6.031,90.081-31.675,95.423-.352.07-2.431-30.513-2.443-30.69.176-.358,13.741-1.716,17.66-12.746,3.617-10.171-3.52-20.695-14.132-22.707-11.556-2.187-14.493,7.181-16.813,8.337a.6.6,0,0,1-.159.053c-11,2.355-26.826-7.7-46.056-41.02-12.227-21.18-26.888-16.778-27.691-16.4l-.053.027c-7.2,4.252-11.829,11.609-16.39,20.562-3.334-19.38,36.706-70.544,110.091-35.2"/>
    <path id="Path_3840" data-name="Path 3840" d="M715.9,262.692c.124.688-.318.626,0,0"/>
    <path id="Path_3841" data-name="Path 3841" d="M819.529,326.577v.008l-.01.01Z"/>
    <path id="Path_3842" data-name="Path 3842" class="cls-10" d="M714.507,412.34c-1.306,6.484-3.087,14.37-5.222,23.218H638.379c9.844-16.452,16.416-26.579,16.416-26.579l-15.773-17.616c-57.965-67.713-23.187-91.612-23.187-91.612l38.96,1.175c9.236,12.165-16.328,15.12-29.719,15.826.882,5.381,3.67,18.913,10.127,26.843a33.938,33.938,0,0,1,9.65-16.055s15.041-8.4,20.625-7.348a53.639,53.639,0,0,1,11.071,3.626s11.653-3.441,16.037,7.409c0,0,16.293,18.869,15.34,23.5-.838,4.04-12.35-.83-17.8-2.365H690c-1.5.812,22.945,33.187,26.314,41.117,1.015,2.391.415,7.86-1.808,18.86"/>
    <path id="Path_3843" data-name="Path 3843" d="M968.422,692.269c-9.015.917-14.255,1.429-17.863,1.694-5.946.441-7.437.2-14.062,0-5.636-.177-14.987-.318-33.971,0H818.45l-3.326-36.821c-11.882,3.07-21.641,8.245-25.205,7.7-15.516-2.391-51.121-13.418-79.741-8.165-8.692,1.26-21.257,7.993-25.715,12.494-9.81,9.9-9.017,18.518-9.625,22.976a11.276,11.276,0,0,0,.026,1.818h-88.91c-89.176-7.648,11.044-190,52.663-259.5h70.907c2.134-8.848,3.916-16.734,5.222-23.218l37.615-1.872-2.429,11.981s26.984,36.319,75.836-11.237l-.053-1.978-.088-3.227c37,1.155,83.11,6.43,99.861,29.551,23.183,32,101.129,251.868,42.934,257.8"/>
    <path id="Path_3844" data-name="Path 3844" class="cls-9" d="M660.891,615.946h-.15a1.322,1.322,0,0,1-1.164-1.464c.194-1.738,3.608-13.947,10.691-39.185,10.974-39.131,27.567-98.27,37.3-138.619a1.325,1.325,0,0,1,2.576.618c-9.739,40.4-26.341,99.566-37.315,138.716-5.822,20.765-10.427,37.164-10.6,38.77a1.323,1.323,0,0,1-1.314,1.173Z"/>
    <path id="Path_3845" data-name="Path 3845" class="cls-11" d="M654.8,356.351a1.323,1.323,0,0,1-1.138-.644c-.2-.335-4.905-8.407-1.358-16.972,2.919-7.075,10.506-12.218,22.538-15.288a1.324,1.324,0,0,1,.829,2.514,1.191,1.191,0,0,1-.176.044c-11.159,2.85-18.137,7.463-20.73,13.709-3.044,7.33,1.138,14.564,1.182,14.635a1.322,1.322,0,0,1-1.138,1.993Z"/>
    <path id="Path_3846" data-name="Path 3846" class="cls-11" d="M672.544,355.742a1.319,1.319,0,0,1-1.156-.679c-.15-.274-3.687-6.8-.652-13.726,2.558-5.84,8.909-10.048,18.895-12.491a1.323,1.323,0,1,1,.769,2.532,1.354,1.354,0,0,1-.143.035c-9.121,2.24-14.872,5.919-17.087,10.956-2.514,5.716.5,11.353.538,11.415a1.327,1.327,0,0,1-.52,1.8,1.288,1.288,0,0,1-.635.168Z"/>
    <path id="Path_3847" data-name="Path 3847" class="cls-11" d="M690.248,352.152a.884.884,0,0,1-.653-.291l-4.066-4.49a.882.882,0,0,1,1.3-1.182l4.067,4.49a.882.882,0,0,1-.653,1.473"/>
    <path id="Path_3848" data-name="Path 3848" class="cls-11" d="M698.86,694.2a1.143,1.143,0,0,1-1.093-1.026c-.038-.248-.313-2.54,1.554-7.264a11.206,11.206,0,0,1,9.573-7.381c7.387-.471,21.155-.959,30.379,1.093a1.256,1.256,0,0,1,.816,1.5,1.127,1.127,0,0,1-1.248.93c-8.985-1.994-22.538-1.514-29.813-1.042a8.959,8.959,0,0,0-7.661,5.9c-1.585,4-1.4,5.866-1.4,5.882a1.242,1.242,0,0,1-.944,1.4,1.308,1.308,0,0,1-.164.016Z"/>
    <path id="Path_3849" data-name="Path 3849" class="cls-9" d="M816.773,658.112a1.323,1.323,0,0,1-.326-2.6c39.378-10.18,110.514-34.88,111.228-35.127a1.323,1.323,0,0,1,.961,2.466l-.087.03c-.715.247-71.956,24.983-111.441,35.2a1.514,1.514,0,0,1-.335.044Z"/>
    <path id="Path_3850" data-name="Path 3850" class="cls-12" d="M765.3,312.718a27.8,27.8,0,1,1,27.8-27.8,27.8,27.8,0,0,1-27.8,27.8m0-52.972A25.158,25.158,0,1,0,790.463,284.9,25.159,25.159,0,0,0,765.3,259.746"/>
    <path id="Path_3851" data-name="Path 3851" class="cls-12" d="M706.227,312.48a23.491,23.491,0,1,1,23.491-23.491,23.491,23.491,0,0,1-23.491,23.491m0-45.218a21.727,21.727,0,1,0,21.727,21.727,21.727,21.727,0,0,0-21.727-21.727"/>
    <path id="Path_3852" data-name="Path 3852" class="cls-12" d="M839.342,294.149h-.079l-46.992-4.278a.886.886,0,0,1,.159-1.765l46.991,4.279a.883.883,0,1,1-.079,1.764Z"/>
    <path id="Path_3853" data-name="Path 3853" class="cls-9" d="M878.955,639.014h-.026a1.323,1.323,0,0,1-1.3-1.349h0l2.135-104.992a1.323,1.323,0,0,1,2.646.053l-2.135,104.992a1.322,1.322,0,0,1-1.323,1.3"/>
    <path id="Path_3854" data-name="Path 3854" class="cls-12" d="M738.813,285.8a.885.885,0,0,1-.6-.238c-4.525-4.217-8.962-.177-9.148,0a.882.882,0,0,1-1.2-1.288c2-1.861,6.986-4.261,11.556,0a.882.882,0,0,1-.6,1.526Z"/>
    <path id="Path_3855" data-name="Path 3855" class="cls-11" d="M685.988,694.212h-.044a1.323,1.323,0,0,1-1.279-1.366h0c.291-8.663,3.378-15.411,9.174-20.042,6.995-5.593,16.708-6.987,23.615-7.181a68.378,68.378,0,0,1,13.373.917,1.323,1.323,0,1,1-.315,2.628,1.378,1.378,0,0,1-.179-.034c-.22-.044-22.5-4.146-34.853,5.734-5.161,4.128-7.913,10.206-8.178,18.057a1.322,1.322,0,0,1-1.323,1.279Z"/>
    <path id="Path_3856" data-name="Path 3856" d="M641.881,555.017a1.752,1.752,0,0,1-1.632-1.1c-.053-.123-1.261-3.114-2.823-7.745a1.766,1.766,0,0,1,3.344-1.138c1.526,4.517,2.743,7.516,2.752,7.542a1.772,1.772,0,0,1-1.632,2.435Z"/>
    <path id="Path_3857" data-name="Path 3857" d="M1276.68,712.085H3.4a3.4,3.4,0,0,1,0-6.794H1276.68a3.4,3.4,0,0,1,0,6.794"/>
    <path id="Path_3858" data-name="Path 3858" class="cls-12" d="M392.9,421.091a135.541,135.541,0,1,0-135.54-135.54A135.54,135.54,0,0,0,392.9,421.091Z"/>
    <path id="Path_3859" data-name="Path 3859" class="cls-9" d="M445.966,215.429a1.753,1.753,0,0,1-.944-.273,99.024,99.024,0,0,0-105.742-.336,1.766,1.766,0,0,1-1.879-2.99,102.531,102.531,0,0,1,109.518.344,1.764,1.764,0,0,1-.953,3.246Z"/>
    <path id="Path_3860" data-name="Path 3860" class="cls-9" d="M466.2,262.262a1.786,1.786,0,0,1-1.535-.882c-.22-.388-22.768-38.461-72.785-38.461S319.838,260.709,319.6,261.1a1.765,1.765,0,1,1-3-1.862c.256-.4,6.387-10.118,18.746-19.954A90.207,90.207,0,0,1,391.882,219.4a92.928,92.928,0,0,1,57.656,20.069c12.227,9.924,17.952,19.751,18.19,20.165a1.772,1.772,0,0,1-1.535,2.647Z"/>
    <path id="Path_3861" data-name="Path 3861" class="cls-9" d="M419.608,375.4a1.681,1.681,0,0,1-.574-.1c-20.969-7.163-35.708-18.41-43.815-33.424a58.807,58.807,0,0,1-6.723-32.26,27.667,27.667,0,0,1,6.361-16.143c6.739-7.86,14.582-7.807,15.517-7.772,22.724-.282,24.911,17.8,25.035,23.368a25.72,25.72,0,0,0,.926,6.775C421.01,331.713,437.789,330,438.5,329.931c7.569-1.006,13.037-4.111,16.2-9.236,6.891-11.124,1.121-28.361,1.06-28.528-16.982-49.136-63.082-47.539-63.55-47.512h-.149c-35.365-1.315-54.032,27.69-57.41,33.512-.257.45-.529.891-.795,1.341l-.484.811c-7.569,12.756-7.34,29.481-5.8,41.267a122.469,122.469,0,0,0,5.267,22.988,1.765,1.765,0,0,1-3.318,1.2c-.6-1.676-14.589-41.266.83-67.254l.5-.838c.257-.424.512-.856.769-1.288,3.554-6.131,23.165-36.635,60.522-35.277a68.866,68.866,0,0,1,26.72,5.381c13.224,5.434,30.937,17.572,40.252,44.513.266.767,6.378,18.966-1.385,31.527-3.758,6.07-10.074,9.73-18.781,10.886-.228.026-20.465,2.161-25.987-16.575a29.787,29.787,0,0,1-1.077-7.7c-.131-6.078-2.47-20.193-21.514-19.919h-.133c-.274-.009-6.862-.265-12.7,6.545a24.194,24.194,0,0,0-5.522,14.115c-3.008,40.172,32.673,56.8,48.155,62.084a1.764,1.764,0,0,1-.564,3.432Z"/>
    <path id="Path_3862" data-name="Path 3862" class="cls-9" d="M437.3,355.415c-8.521,0-21.489-1.614-31.739-9.959-9.536-7.754-14.635-19.681-15.173-35.453a1.765,1.765,0,0,1,3.528-.124c.494,14.705,5.17,25.75,13.868,32.833,15.155,12.324,37.658,8.61,37.879,8.575a1.764,1.764,0,0,1,.6,3.475,57.066,57.066,0,0,1-8.962.644Z"/>
    <path id="Path_3863" data-name="Path 3863" class="cls-9" d="M373.895,375.4a1.761,1.761,0,0,1-1.244-.52c-1.191-1.191-29.154-29.614-26.843-67.087a46.811,46.811,0,0,1,13-29.657c10.613-10.965,22.927-15.861,36.609-14.538a54.85,54.85,0,0,1,21.366,7.754c9.853,6.122,21.762,18.3,22.565,41.522a1.766,1.766,0,0,1-3.529.124c-.6-17.4-7.63-30.408-20.9-38.647a51.983,51.983,0,0,0-19.848-7.233c-12.72-1.235-23.765,3.175-33.733,13.479a43.248,43.248,0,0,0-12.015,27.417c-2.214,35.858,25.538,64.1,25.821,64.378a1.769,1.769,0,0,1-1.244,3.017Z"/>
    <path id="Path_3864" data-name="Path 3864" class="cls-9" d="M557.671,198.3A50.67,50.67,0,1,1,507,147.628a50.67,50.67,0,0,1,50.67,50.67"/>
    <circle id="Ellipse_2" data-name="Ellipse 2" class="cls-13" cx="50.67" cy="50.67" r="50.67" transform="matrix(0.23, -0.973, 0.973, 0.23, 446.045, 235.971)"/>
    <path id="Path_3865" data-name="Path 3865" class="cls-12" d="M488.608,226.147a2.209,2.209,0,0,1-1.306-.432,34.011,34.011,0,1,1,50.388-42.943,2.207,2.207,0,1,1-3.925,2.02,29.6,29.6,0,1,0-43.851,37.377,2.205,2.205,0,0,1-1.315,3.978Z"/>
    <path id="Path_3866" data-name="Path 3866" class="cls-12" d="M507.495,232.322a34.323,34.323,0,0,1-7.93-.935,2.205,2.205,0,0,1,.863-4.325c.054.01.107.023.16.038a29.593,29.593,0,0,0,35.637-21.943v-.005a2.206,2.206,0,0,1,4.326.863c-.011.054-.024.107-.039.16a34.042,34.042,0,0,1-33.027,26.156Z"/>
    <path id="Path_3867" data-name="Path 3867" class="cls-12" d="M537.629,186.839l-11.08-2.638a2.205,2.205,0,1,1,.863-4.325c.054.011.108.023.161.038l6.792,1.615,1.614-6.793a2.206,2.206,0,0,1,4.288,1.023Z"/>
    <path id="Path_3868" data-name="Path 3868" class="cls-12" d="M506.992,202.541a4.267,4.267,0,1,1,.459-.027,4.159,4.159,0,0,1-.459.027m0-4.411h-.009a.182.182,0,0,0-.15.185.163.163,0,0,0,.175.151h.01a.168.168,0,0,0-.026-.335Z"/>
    <path id="Path_3869" data-name="Path 3869" class="cls-12" d="M508.659,198.951a2.178,2.178,0,0,1-1.553-.644,2.213,2.213,0,0,1-.008-3.123l10.568-10.629a2.208,2.208,0,1,1,3.131,3.113L510.229,198.3a2.2,2.2,0,0,1-1.561.653Z"/>
  </g>
</svg>
