<svg id="Error_401_Unauthorized" data-name="Error 401 Unauthorized" xmlns="http://www.w3.org/2000/svg" xmlns:xlink="http://www.w3.org/1999/xlink" width="1280.076" height="710.338" viewBox="0 0 1280.076 710.338">
  <defs>
    <style>
      .cls-1 {
        fill: none;
      }

      .cls-2 {
        clip-path: url(#clip-path);
      }

      .cls-3 {
        fill: #f2f2f2;
      }

      .cls-4 {
        fill: #e7e7e7;
      }

      .cls-5 {
        fill: #e2e2e2;
      }

      .cls-6 {
        fill: #ddd;
      }

      .cls-7 {
        fill: #b2b2b2;
      }

      .cls-8 {
        fill: #c1c1c1;
      }

      .cls-9 {
        fill: #fff;
      }

      .cls-10 {
        fill: #6259e1;
      }

      .cls-11 {
        fill: #eae8ea;
      }

      .cls-12 {
        fill: #ff3450;
      }

      .cls-13 {
        fill: #6259e7;
      }

      .cls-14 {
        fill: #ffcfa9;
      }

      .cls-15 {
        fill: #c38a63;
      }

      .cls-16 {
        fill: #6259ee;
      }

      .cls-17 {
        filter: url(#Path_6802);
      }

      .cls-18 {
        filter: url(#Path_6792);
      }
    </style>
    <clipPath id="clip-path">
      <rect id="Rectangle_1196" data-name="Rectangle 1196" class="cls-1" width="1280.076" height="710.338"/>
    </clipPath>
    <filter id="Path_6792" x="608.463" y="47.567" width="568.975" height="407.069" filterUnits="userSpaceOnUse">
      <feOffset input="SourceAlpha"/>
      <feGaussianBlur stdDeviation="3" result="blur"/>
      <feFlood flood-opacity="0.161"/>
      <feComposite operator="in" in2="blur"/>
      <feComposite in="SourceGraphic"/>
    </filter>
    <filter id="Path_6802" x="146.378" y="245.24" width="637.165" height="456.945" filterUnits="userSpaceOnUse">
      <feOffset input="SourceAlpha"/>
      <feGaussianBlur stdDeviation="3" result="blur-2"/>
      <feFlood flood-opacity="0.161"/>
      <feComposite operator="in" in2="blur-2"/>
      <feComposite in="SourceGraphic"/>
    </filter>
  </defs>
  <g id="Group_439" data-name="Group 439" class="cls-2">
    <path id="Path_6779" data-name="Path 6779" class="cls-3" d="M1232.643,613.592c0,.382,0,.756-.008,1.138-.017.8-.035,1.588-.068,2.378a99.9,99.9,0,0,1-5.142,28.806c-.144.416-.286.832-.43,1.24-5.948,16.78-17.064,33.162-35.466,49.408q-5.583,4.924-12.083,9.834-1.512,1.146-3.092,2.293h-31.208l-639.473-.213-46.005-.017L97.683,708.34s-.252-.662-.731-1.953a709.638,709.638,0,0,1-21.847-73.628c-9.629-39.771-18.242-103.028-18.511-169.193v-6.888c.378-78.383,12.755-159.816,49.189-210.354.428-.594.857-1.189,1.294-1.775.63-.849,1.269-1.7,1.9-2.53.286-.382.571-.748.857-1.121,100.63-131.537,261.381-131.325,339.181-122.977,7.621.824,14.444,1.715,20.334,2.573,3.546.518,6.756,1.019,9.6,1.478C590.119,140.094,640.3,83.6,640.3,83.6,718.662,10.665,792.79-7.152,895.353,2.349q19.309,1.771,38.282,5.283c49.92,9.188,97.412,27.1,138.165,52.584q6.628,4.14,13,8.552,2.293,1.58,4.561,3.21,8.106,5.808,15.773,12.042c28.981,23.574,52.961,51.726,69.8,83.87a234.1,234.1,0,0,1,25.317,81.933q1.047,8.955,1.438,18.165.5,12.076-.178,24.568a285.665,285.665,0,0,1-7.78,51.769v.009c-.336,1.393-.656,2.785-.966,4.161a233.587,233.587,0,0,0-5.05,67.038c5.185,77.9,45.273,140.989,44.937,198.057Z"/>
    <rect id="Rectangle_1178" data-name="Rectangle 1178" class="cls-4" width="137.923" height="347.937" transform="translate(211.344 185.607)"/>
    <rect id="Rectangle_1179" data-name="Rectangle 1179" class="cls-5" width="121.737" height="334.214" transform="translate(219.929 191.806)"/>
    <rect id="Rectangle_1180" data-name="Rectangle 1180" class="cls-6" width="271.558" height="11.439" transform="translate(885.954 348.625)"/>
    <rect id="Rectangle_1181" data-name="Rectangle 1181" class="cls-6" width="32.39" height="122.45" transform="translate(901.562 226.166)"/>
    <rect id="Rectangle_1182" data-name="Rectangle 1182" class="cls-6" width="32.387" height="122.45" transform="translate(929.367 237.871) rotate(-17.708)"/>
    <rect id="Rectangle_1183" data-name="Rectangle 1183" class="cls-5" width="27.946" height="81.347" transform="matrix(0.953, -0.304, 0.304, 0.953, 932.184, 239.381)"/>
    <rect id="Rectangle_1184" data-name="Rectangle 1184" class="cls-3" width="28.05" height="2.768" transform="translate(903.669 228.45)"/>
    <rect id="Rectangle_1185" data-name="Rectangle 1185" class="cls-3" width="28.05" height="2.768" transform="translate(903.669 233.249)"/>
    <rect id="Rectangle_1186" data-name="Rectangle 1186" class="cls-3" width="28.05" height="2.768" transform="translate(903.669 238.488)"/>
    <rect id="Rectangle_1187" data-name="Rectangle 1187" class="cls-3" width="28.05" height="21.137" transform="translate(903.669 324.396)"/>
    <path id="Path_6780" data-name="Path 6780" class="cls-5" d="M1109.573,273.162s-8.935,2.624-13.75-1.146,1.07-13.563,6.87-16.628,6.565-10.505,15.66-11.924,22.606-6.564,25.052-3.668-11.761,11.923-11.227,14.658-3.923,7.906-11.99,13.621c-7.177,5.087-10.615,5.087-10.615,5.087"/>
    <path id="Path_6781" data-name="Path 6781" class="cls-7" d="M1084.469,320.4a.413.413,0,0,1-.416-.365,73.308,73.308,0,0,1,2.131-25.766c3.406-13.188,12.093-31.642,34.131-44.669a.425.425,0,0,1,.425.73c-41.7,24.653-35.914,69.144-35.855,69.586a.428.428,0,0,1-.357.484Z"/>
    <path id="Path_6782" data-name="Path 6782" class="cls-5" d="M1071.391,265.358s5.826,5.936,11.388,2.463,5.486-17.758,2.336-23.363-.281-15.4-6.794-19.829-14.785-14.921-18.063-11.889,3.719,18.708,2.021,22.08-.6,11.294,3.108,20.959c3.3,8.6,6,9.587,6,9.587Z"/>
    <path id="Path_6783" data-name="Path 6783" class="cls-7" d="M1069.345,333.2a.344.344,0,0,1-.178-.042.419.419,0,0,1-.207-.555V332.6c.263-.56,25.662-56.312,4.229-100.039a.425.425,0,0,1,.764-.374c21.622,44.092-3.957,100.209-4.22,100.77a.424.424,0,0,1-.382.246Z"/>
    <path id="Path_6784" data-name="Path 6784" class="cls-5" d="M1052.8,278.733s7.21,2.115,11.091-.926-.866-10.946-5.545-13.417-5.3-8.476-12.629-9.622-18.232-5.3-20.211-2.956,9.486,9.622,9.053,11.83,3.167,6.378,9.672,10.989c5.792,4.1,8.56,4.1,8.56,4.1Z"/>
    <path id="Path_6785" data-name="Path 6785" class="cls-7" d="M1073.047,316.932h-.059a.437.437,0,0,1-.366-.484c.051-.357,4.688-36.2-28.882-56.058a.425.425,0,0,1,.425-.73c34.071,20.144,29.349,56.542,29.3,56.907a.424.424,0,0,1-.416.365"/>
    <path id="Path_6786" data-name="Path 6786" class="cls-6" d="M1094.872,348.625h-32.347l-15.354-45.451h61.093Z"/>
    <path id="Path_6787" data-name="Path 6787" class="cls-4" d="M473.7,284.245A50.707,50.707,0,1,0,423,233.531v.007a50.707,50.707,0,0,0,50.7,50.707"/>
    <rect id="Rectangle_1188" data-name="Rectangle 1188" class="cls-8" width="4.951" height="2.548" transform="translate(511.032 232.523) rotate(-0.347)"/>
    <rect id="Rectangle_1189" data-name="Rectangle 1189" class="cls-8" width="2.548" height="4.951" transform="matrix(1, -0.006, 0.006, 1, 472.106, 271.884)"/>
    <rect id="Rectangle_1190" data-name="Rectangle 1190" class="cls-8" width="4.951" height="2.548" transform="matrix(1, -0.006, 0.006, 1, 430.214, 233.009)"/>
    <rect id="Rectangle_1191" data-name="Rectangle 1191" class="cls-8" width="2.548" height="4.951" transform="translate(471.589 191.118) rotate(-0.336)"/>
    <path id="Path_6788" data-name="Path 6788" class="cls-8" d="M505.779,236.041H471.852V203.414H474.4v30.079h31.379Z"/>
    <rect id="Rectangle_1192" data-name="Rectangle 1192" class="cls-4" width="8.144" height="337.543" transform="translate(276.734 188.477)"/>
    <rect id="Rectangle_1193" data-name="Rectangle 1193" class="cls-4" width="131.605" height="6.004" transform="translate(214.791 347.062)"/>
    <rect id="Rectangle_1194" data-name="Rectangle 1194" class="cls-4" width="9.291" height="124.616" transform="translate(826.303 0.169)"/>
    <path id="Path_6789" data-name="Path 6789" class="cls-9" d="M830.949,164.035A17.248,17.248,0,1,0,813.7,146.787a17.248,17.248,0,0,0,17.249,17.248"/>
    <path id="Path_6790" data-name="Path 6790" class="cls-4" d="M874.965,146.787H786.934a44.016,44.016,0,1,1,88.031-.481c0,.138,0,.275,0,.413Z"/>
    <path id="Path_6791" data-name="Path 6791" d="M1276.68,710.338H3.4a3.4,3.4,0,0,1,0-6.794H1276.68a3.4,3.4,0,0,1,0,6.794"/>
    <g class="cls-18" transform="matrix(1, 0, 0, 1, 0, 0)">
      <path id="Path_6792-2" data-name="Path 6792" class="cls-9" d="M1147,56.567H638.9A21.458,21.458,0,0,0,617.463,78V424.2A21.458,21.458,0,0,0,638.9,445.636H1147a21.459,21.459,0,0,0,21.434-21.434V78A21.459,21.459,0,0,0,1147,56.567"/>
    </g>
    <path id="Path_6793" data-name="Path 6793" class="cls-10" d="M1146.706,66.182H638.6a11.434,11.434,0,0,0-11.434,11.434v346.2A11.434,11.434,0,0,0,638.6,435.251h508.107a11.434,11.434,0,0,0,11.434-11.433V77.616a11.434,11.434,0,0,0-11.434-11.434"/>
    <path id="Path_6794" data-name="Path 6794" class="cls-11" d="M1147.238,105.843H638.076a1.1,1.1,0,1,1,0-2.2h509.166a1.1,1.1,0,1,1,0,2.2Z"/>
    <path id="Path_6795" data-name="Path 6795" class="cls-9" d="M655,93a6.764,6.764,0,1,0-6.764-6.763A6.764,6.764,0,0,0,655,93"/>
    <path id="Path_6796" data-name="Path 6796" class="cls-9" d="M683.7,93a6.764,6.764,0,1,0-6.764-6.763A6.764,6.764,0,0,0,683.7,93"/>
    <path id="Path_6797" data-name="Path 6797" class="cls-9" d="M713.111,93a6.764,6.764,0,1,0-6.764-6.763A6.764,6.764,0,0,0,713.111,93"/>
    <path id="Path_6798" data-name="Path 6798" class="cls-9" d="M906.272,341.59c-46.591-16.269-63.192-29.571-70.724-76.877V192.505a10.884,10.884,0,0,1,6.921-10.029l53.425-21.759a11.806,11.806,0,0,1,8.964.035l58.182,24.194a10.9,10.9,0,0,1,6.843,10V264.73c-5.185,41.747-10.588,56.934-63.611,76.877Z"/>
    <path id="Path_6799" data-name="Path 6799" class="cls-12" d="M905.7,335.306c-44.051-15.388-59.744-27.965-66.866-72.688V194.347a10.31,10.31,0,0,1,6.546-9.488l50.518-20.572a11.168,11.168,0,0,1,8.475.035l55.014,22.867a10.3,10.3,0,0,1,6.467,9.453v65.967c-4.9,39.469-10.011,53.827-60.145,72.688Z"/>
    <path id="Path_6800" data-name="Path 6800" class="cls-9" d="M902.711,283.164a37.933,37.933,0,1,1,37.932-37.933,37.933,37.933,0,0,1-37.932,37.933m0-73.247a35.314,35.314,0,1,0,35.314,35.314,35.315,35.315,0,0,0-35.314-35.314Z"/>
    <rect id="Rectangle_1195" data-name="Rectangle 1195" class="cls-9" width="2.62" height="73.16" transform="translate(881.9 215.076) rotate(-35.619)"/>
    <path id="Path_6801" data-name="Path 6801" class="cls-13" d="M653.408,514.374c.108-.252.233-.521.368-.8-.135.288-.251.558-.368.8"/>
    <g class="cls-17" transform="matrix(1, 0, 0, 1, 0, 0)">
      <path id="Path_6802-2" data-name="Path 6802" class="cls-9" d="M770.935,613.664c-3.315-11.159-13.927-44.392-22.151-64.424a10.489,10.489,0,0,0,.954-8.533c-17.789-55.473-67.7-106.214-83.147-111.882a186.854,186.854,0,0,0-54.677-11.075c-2.365-10.483-2.871-25.126-3.147-35.28a30.22,30.22,0,0,0,10.711-4.718c4.646-3.312,10.286-9.617,10.778-20.834a27.785,27.785,0,0,0-.292-5.5c12.037-21.023,8.9-37.689,3.907-48.2-5.492-11.552-15.426-19.945-23.732-23.068-5.868-7.011-21.615-22.872-43.056-21.27-7.2-3.923-19.407-7.112-33.692-1.99a49.722,49.722,0,0,0-14.968,7.952,15.573,15.573,0,0,0-9.759,1.993c-3.333,1.866-7.421,5.829-9.473,20.122-.744,5.172-1.645,15.3.659,25.016,2.194,9.254,6.462,14.557,10.862,17.581-10.433,51.147,9.338,71.823,20.635,79.213q.074,2.439.2,5.858v.1q.078,3.429.116,6.432a203.782,203.782,0,0,0-46.4,10.382c-16.339,5.807-37.74,31.875-51.8,61.137-5.155-4.632-11.659-6.024-19.255-6.179h-.223l-232.954.042h-.29a25.37,25.37,0,0,0-24.208,32.934c.01.03.019.062.03.093l44.317,143.839c3.869,12.564,9.157,29.746,38.871,29.745H470.911c.241.017.486.025.732.025h53.665a14.86,14.86,0,0,0,2.768-.264H667.082a10.492,10.492,0,0,0,10.493-10.492c0-.137,0-.274-.008-.411l-.081-2.046c30.194,2.957,43.3,4.16,46.823,4,19.469-.861,33.634-7.336,42.11-19.245,8.967-12.6,10.57-30.73,4.516-51.063m-89.7-7.193c-.2,0-.4.01-.605.024l-6.025.157-.291-7.417a10.515,10.515,0,0,0,5.152,1.5l3.869,5.732c-.927-.012-1.673,0-2.1.007"/>
    </g>
    <path id="Path_6803" data-name="Path 6803" class="cls-14" d="M541.17,400.807c.183,4.921.8,23.336.367,32.713,30.651,24.578,55.094,5.661,62.882-5.163-6.989-14.495-6.325-45.174-6.968-57.2,1.526.451,21.041,1.419,21.818-16.3.522-11.939-10.315-16.479-17-17-13.057-1.023-3.389,9.963-19.149,14.037-2.64.685-2.542-4.335-2.344-11.262,1.06-37.959-34.676-36.659-34.951-36.638-12.526.947-22.954,15.944-23.336,17.411-17.334,67.515,18.676,79.406,18.676,79.406Z"/>
    <path id="Path_6804" data-name="Path 6804" d="M522.494,321.4s9.2-17.878,24.409-17.5c46.332,1.144,28.279,49.708,36.228,47.992,14.426-3.114,7.782-15.061,19.15-14.036,6.679.6,13.154,4.639,15.914,10.28,24.035-37-6.295-59.5-14.7-60.4,0,0-16.515-23.767-39.385-19.558,0,0-10.952-9-27.678-3-16.444,5.9-15.252,11.834-15.252,11.834s-3.064-5.31-7.9-2.605-11.247,46.092,9.21,47Z"/>
    <path id="Path_6805" data-name="Path 6805" d="M523.892,343.44a1.949,1.949,0,0,1-.367-3.862l7.336-1.4a1.948,1.948,0,1,1,.735,3.827l-7.337,1.4a2.151,2.151,0,0,1-.367.035"/>
    <path id="Path_6806" data-name="Path 6806" d="M556.231,342.042a2,2,0,0,1-.968-.254c-.07-.042-7.215-4.124-12.617-7.52a1.951,1.951,0,1,1,2.076-3.3c5.331,3.354,12.405,7.394,12.474,7.436a1.949,1.949,0,0,1-.967,3.643"/>
    <path id="Path_6807" data-name="Path 6807" d="M540.139,365.017a10.043,10.043,0,0,1-2.69-.395,4.045,4.045,0,0,1-3.085-4.124l1.009-13.26a1.06,1.06,0,0,1,2.116.1v.059l-1.009,13.26a1.944,1.944,0,0,0,1.552,1.922,6.458,6.458,0,0,0,3.68.091,1.059,1.059,0,0,1,.614,2.026,7.4,7.4,0,0,1-2.182.318"/>
    <path id="Path_6808" data-name="Path 6808" class="cls-15" d="M604.038,360.12a1.058,1.058,0,0,1-.607-1.934c1.638-1.131,2.471-2.317,2.485-3.531.021-2.168-2.471-3.99-2.5-4a1.059,1.059,0,0,1,1.228-1.723c.141.1,3.41,2.465,3.389,5.741-.014,1.949-1.157,3.721-3.4,5.268a1.055,1.055,0,0,1-.6.19Z"/>
    <path id="Path_6809" data-name="Path 6809" d="M529.279,350.946A1.949,1.949,0,1,0,527.33,349a1.949,1.949,0,0,0,1.949,1.949"/>
    <path id="Path_6810" data-name="Path 6810" d="M548.619,349.365a1.948,1.948,0,1,0-1.949-1.949,1.948,1.948,0,0,0,1.949,1.949"/>
    <path id="Path_6811" data-name="Path 6811" d="M544.263,378.284a1.058,1.058,0,0,1-.65-1.892,172.96,172.96,0,0,1,14.615-9.91,1.06,1.06,0,0,1,1.095,1.814,172.609,172.609,0,0,0-14.4,9.765,1.061,1.061,0,0,1-.649.226Z"/>
    <path id="Path_6812" data-name="Path 6812" class="cls-15" d="M541.17,400.807c8.812,1.419,14.214.8,27.961-5.394,0,0-27.319,25.157-27.608,17.235s-.35-11.841-.35-11.841"/>
    <path id="Path_6813" data-name="Path 6813" class="cls-14" d="M417.2,533.165l32.625,88.888,5.186-4.242,22.616-35.191-.852-19.22-1.268-10.416-44.025-26.356Z"/>
    <path id="Path_6814" data-name="Path 6814" d="M666.583,680.82H517.018v-.013H481.46l-1.7-15.835-1.4-65.215-1.138-27.016-1.705-19.752-44.4-26.359c9.731-40.408,40.375-80.829,57.155-86.8a193.3,193.3,0,0,1,53.278-10.569c7.228,8.368,14.7,15.174,26.785,15.174a42.935,42.935,0,0,0,34.925-17.91,170.546,170.546,0,0,1,59.214,10.542c10.586,3.882,59.213,50.493,76.767,105.233l-60.015,46.333L662.13,567.654Z"/>
    <path id="Path_6815" data-name="Path 6815" class="cls-14" d="M680.809,615.37c-57.854,1.5-124.876,3.126-137.386,8.193-19.154,7.76-58.23,30.855-49.722,37.8,6.25,5.095,33.664-16.057,33.664-16.057s-8.527,16.7,3.926,22.383c2.756,1.259,5.13-4.1,5.13-4.1,2.311,8.265,12.7,6.3,12.358,3.244,0,0,7.247,5.673,13.181,0,1.957-1.878,23.221,10.1,24.881,3.5,1.588-6.369-3.953-9.927-3.953-10.241,0-2.573,131.809,12.169,140.458,11.791,41.868-1.851,44.31-32.4,37.032-56.833-3.7-12.462-16.322-51.762-24.366-69.38-7.052,4.884-39.769,30.144-53.384,40.123l19.722,29.227.233.327c-6.166.065-19.222-.012-21.73.014"/>
    <path id="Path_6816" data-name="Path 6816" class="cls-15" d="M702.541,616.333a.979.979,0,0,1-.985-.971,1,1,0,0,1,.97-1c10.365-.132,24.579-.592,24.727-.592a.942.942,0,0,1,1.009.864v.1a.982.982,0,0,1-.955,1.01c-.144,0-14.376.458-24.761.591"/>
    <path id="Path_6817" data-name="Path 6817" class="cls-15" d="M561.961,667.825a.987.987,0,0,1-.985-.916c-1.3-19.236,14.442-23.581,14.613-23.614a.984.984,0,0,1,.5,1.9c-.591.158-14.325,4.007-13.143,21.585a.985.985,0,0,1-.915,1.049h-.069Z"/>
    <path id="Path_6818" data-name="Path 6818" class="cls-15" d="M548.776,667.822a.994.994,0,0,1-.971-.8c-3.69-19.735,12.907-28.9,13.078-28.977a.968.968,0,0,1,1.312.383l.012.025a.99.99,0,0,1-.394,1.339c-.629.343-15.491,8.6-12.068,26.893a.99.99,0,0,1-.788,1.155c-.066,0-.117.012-.183.012Z"/>
    <path id="Path_6819" data-name="Path 6819" class="cls-15" d="M536.327,662.99h-.079a.987.987,0,0,1-.9-1.061c1.587-20.072,13.891-26.762,14.417-27.033a.981.981,0,0,1,.915,1.733c-.117.064-11.868,6.512-13.365,25.451a.985.985,0,0,1-.985.9Z"/>
    <path id="Path_6820" data-name="Path 6820" class="cls-9" d="M679.205,572.74a.983.983,0,0,1-.593-1.767l49.731-37.567a.985.985,0,0,1,1.18,1.575l-49.735,37.563a1,1,0,0,1-.592.2"/>
    <path id="Path_6821" data-name="Path 6821" class="cls-9" d="M462.31,534.61a.959.959,0,0,1-.633-.1l-27.63-14.032a.984.984,0,0,1,.885-1.756l27.631,14.033a.981.981,0,0,1,.437,1.317h0a1,1,0,0,1-.7.52Z"/>
    <path id="Path_6822" data-name="Path 6822" class="cls-9" d="M476.032,554.811l-.141.031a.983.983,0,0,1-1.049-.911v0l-1.923-27.943a.983.983,0,0,1,1.957-.19q0,.031,0,.063L476.8,553.8a.992.992,0,0,1-.771,1.031Z"/>
    <path id="Path_6823" data-name="Path 6823" class="cls-16" d="M499.063,641.851a1.294,1.294,0,0,1-1.3-1.289V623.486a1.3,1.3,0,1,1,2.6,0v17.066a1.3,1.3,0,0,1-1.292,1.3Z"/>
    <path id="Path_6824" data-name="Path 6824" class="cls-16" d="M491.1,644.329a1.306,1.306,0,0,1-1.208-.816L483.168,626.7a1.3,1.3,0,1,1,2.4-.989l.012.028,6.722,16.813a1.3,1.3,0,0,1-.729,1.687,1.333,1.333,0,0,1-.479.092Z"/>
    <path id="Path_6825" data-name="Path 6825" class="cls-16" d="M484.376,648.148a1.319,1.319,0,0,1-.89-.35L469.125,634.34a1.3,1.3,0,0,1,1.749-1.92l.03.028,14.361,13.458a1.3,1.3,0,0,1,.06,1.833,1.282,1.282,0,0,1-.947.409"/>
    <path id="Path_6826" data-name="Path 6826" class="cls-16" d="M524.806,671.236H477.749L461.389,613.7l-25.83-90.817-3.194-11.091c-3.9-15.031-9.792-16.2-18.886-16.394l-233.022.043a14.878,14.878,0,0,0-14.414,19.309v-.007L210.4,658.721c3.989,12.951,7.522,22.481,29.351,22.339H471.144v.026h53.662a4.925,4.925,0,0,0,0-9.85"/>
    <path id="Path_6827" data-name="Path 6827" class="cls-9" d="M308.7,603.425a14.661,14.661,0,1,0-14.661-14.661A14.661,14.661,0,0,0,308.7,603.425"/>
  </g>
</svg>
