<svg xmlns="http://www.w3.org/2000/svg" xmlns:xlink="http://www.w3.org/1999/xlink" width="1280.076" height="712.085" viewBox="0 0 1280.076 712.085">
  <defs>
    <style>
      .cls-1 {
        fill: none;
      }

      .cls-2 {
        clip-path: url(#clip-path);
      }

      .cls-3 {
        fill: #f2f2f2;
      }

      .cls-4 {
        fill: #e7e7e7;
      }

      .cls-5 {
        fill: #e2e2e2;
      }

      .cls-6 {
        fill: #ddd;
      }

      .cls-7 {
        fill: #b2b2b2;
      }

      .cls-8 {
        fill: #c1c1c1;
      }

      .cls-9 {
        fill: #fff;
      }

      .cls-10 {
        fill: #6259e7;
      }

      .cls-11 {
        fill: #b88765;
      }

      .cls-12 {
        fill: #9a6247;
      }

      .cls-13 {
        fill: #6259ee;
      }

      .cls-14 {
        fill: #0a0a0a;
      }

      .cls-15 {
        fill: #ccc;
      }

      .cls-16 {
        filter: url(#Path_5780);
      }

      .cls-17 {
        filter: url(#Path_5733);
      }
    </style>
    <clipPath id="clip-path">
      <rect id="Rectangle_803" data-name="Rectangle 803" class="cls-1" width="1280.076" height="712.085" transform="translate(0 0.001)"/>
    </clipPath>
    <filter id="Path_5733" x="228.762" y="149.376" width="661.806" height="568.312" filterUnits="userSpaceOnUse">
      <feOffset input="SourceAlpha"/>
      <feGaussianBlur stdDeviation="3" result="blur"/>
      <feFlood flood-opacity="0.161"/>
      <feComposite operator="in" in2="blur"/>
      <feComposite in="SourceGraphic"/>
    </filter>
    <filter id="Path_5780" x="904.562" y="394.867" width="200.324" height="316.888" filterUnits="userSpaceOnUse">
      <feOffset input="SourceAlpha"/>
      <feGaussianBlur stdDeviation="3" result="blur-2"/>
      <feFlood flood-opacity="0.161"/>
      <feComposite operator="in" in2="blur-2"/>
      <feComposite in="SourceGraphic"/>
    </filter>
  </defs>
  <g id="Timesheet_Month" data-name="Timesheet Month" transform="translate(0 -0.001)">
    <g id="Group_248" data-name="Group 248" class="cls-2">
      <path id="Path_5720" data-name="Path 5720" class="cls-3" d="M1232.6,613.592c0,.382,0,.756-.008,1.138-.017.8-.034,1.588-.068,2.378a99.857,99.857,0,0,1-5.142,28.806c-.143.416-.286.832-.429,1.24-5.949,16.78-17.065,33.162-35.467,49.408q-5.583,4.924-12.083,9.834-1.512,1.146-3.092,2.293H1145.1l-639.473-.213-46.005-.017L97.64,708.34s-.252-.662-.731-1.953a709.642,709.642,0,0,1-21.847-73.628c-9.625-39.771-18.238-103.028-18.507-169.193v-6.888c.378-78.383,12.755-159.816,49.189-210.354.428-.594.857-1.189,1.294-1.775.63-.849,1.269-1.7,1.9-2.53.286-.382.571-.748.857-1.121,100.629-131.537,261.38-131.325,339.18-122.977,7.621.824,14.444,1.715,20.334,2.573,3.546.518,6.756,1.019,9.6,1.478C590.08,140.094,640.261,83.6,640.261,83.6,718.623,10.665,792.751-7.152,895.314,2.349Q914.624,4.12,933.6,7.632c49.92,9.188,97.412,27.1,138.165,52.584q6.63,4.14,13,8.552,2.293,1.58,4.562,3.21,8.1,5.808,15.772,12.042c28.981,23.574,52.962,51.726,69.8,83.87a234.144,234.144,0,0,1,25.317,81.933q1.046,8.955,1.437,18.165.5,12.076-.177,24.568a285.57,285.57,0,0,1-7.781,51.769v.009c-.336,1.393-.655,2.785-.966,4.161a233.657,233.657,0,0,0-5.05,67.038c5.185,77.9,45.273,140.989,44.937,198.057Z"/>
      <rect id="Rectangle_786" data-name="Rectangle 786" class="cls-4" width="137.923" height="347.937" transform="translate(211.305 185.608)"/>
      <rect id="Rectangle_787" data-name="Rectangle 787" class="cls-5" width="121.737" height="334.214" transform="translate(219.891 191.807)"/>
      <rect id="Rectangle_788" data-name="Rectangle 788" class="cls-6" width="271.558" height="11.439" transform="translate(885.915 348.626)"/>
      <rect id="Rectangle_789" data-name="Rectangle 789" class="cls-6" width="32.39" height="122.45" transform="translate(901.524 226.167)"/>
      <rect id="Rectangle_790" data-name="Rectangle 790" class="cls-6" width="32.387" height="122.45" transform="translate(929.329 237.872) rotate(-17.708)"/>
      <rect id="Rectangle_791" data-name="Rectangle 791" class="cls-5" width="27.946" height="81.347" transform="matrix(0.953, -0.304, 0.304, 0.953, 932.145, 239.382)"/>
      <rect id="Rectangle_792" data-name="Rectangle 792" class="cls-3" width="28.05" height="2.768" transform="translate(903.63 228.451)"/>
      <rect id="Rectangle_793" data-name="Rectangle 793" class="cls-3" width="28.05" height="2.768" transform="translate(903.63 233.249)"/>
      <rect id="Rectangle_794" data-name="Rectangle 794" class="cls-3" width="28.05" height="2.768" transform="translate(903.63 238.489)"/>
      <rect id="Rectangle_795" data-name="Rectangle 795" class="cls-3" width="28.05" height="21.137" transform="translate(903.63 324.397)"/>
      <path id="Path_5721" data-name="Path 5721" class="cls-5" d="M1109.534,273.163s-8.934,2.624-13.749-1.146,1.07-13.563,6.87-16.628,6.565-10.505,15.66-11.924,22.606-6.564,25.052-3.668-11.761,11.923-11.227,14.658-3.923,7.906-11.991,13.621c-7.176,5.087-10.615,5.087-10.615,5.087"/>
      <path id="Path_5722" data-name="Path 5722" class="cls-7" d="M1084.431,320.4a.413.413,0,0,1-.416-.365,73.308,73.308,0,0,1,2.131-25.766c3.406-13.188,12.093-31.642,34.131-44.669a.425.425,0,0,1,.425.73c-41.7,24.653-35.914,69.144-35.855,69.586a.428.428,0,0,1-.357.484Z"/>
      <path id="Path_5723" data-name="Path 5723" class="cls-5" d="M1071.353,265.359s5.826,5.936,11.388,2.463,5.486-17.758,2.336-23.363-.281-15.4-6.794-19.829-14.785-14.921-18.063-11.889,3.719,18.708,2.021,22.08-.595,11.294,3.108,20.959c3.3,8.6,6,9.587,6,9.587Z"/>
      <path id="Path_5724" data-name="Path 5724" class="cls-7" d="M1069.306,333.2a.344.344,0,0,1-.178-.042.419.419,0,0,1-.207-.555V332.6c.263-.56,25.663-56.312,4.229-100.039a.425.425,0,1,1,.764-.374c21.622,44.092-3.957,100.209-4.22,100.77a.424.424,0,0,1-.382.246Z"/>
      <path id="Path_5725" data-name="Path 5725" class="cls-5" d="M1052.763,278.734s7.21,2.115,11.091-.926-.866-10.946-5.546-13.417-5.3-8.476-12.628-9.622-18.232-5.3-20.211-2.956,9.486,9.622,9.053,11.83,3.167,6.378,9.672,10.989c5.792,4.1,8.56,4.1,8.56,4.1Z"/>
      <path id="Path_5726" data-name="Path 5726" class="cls-7" d="M1073.009,316.932h-.059a.437.437,0,0,1-.366-.484c.051-.357,4.688-36.2-28.882-56.058a.424.424,0,0,1,.425-.73c34.071,20.144,29.349,56.542,29.3,56.907a.424.424,0,0,1-.416.365"/>
      <path id="Path_5727" data-name="Path 5727" class="cls-6" d="M1094.834,348.626h-32.347l-15.354-45.451h61.093Z"/>
      <path id="Path_5728" data-name="Path 5728" class="cls-4" d="M473.666,284.246a50.707,50.707,0,1,0-50.707-50.707,50.707,50.707,0,0,0,50.707,50.707"/>
      <rect id="Rectangle_796" data-name="Rectangle 796" class="cls-8" width="4.951" height="2.548" transform="translate(510.993 232.524) rotate(-0.347)"/>
      <rect id="Rectangle_797" data-name="Rectangle 797" class="cls-8" width="2.548" height="4.951" transform="matrix(1, -0.006, 0.006, 1, 472.068, 271.885)"/>
      <rect id="Rectangle_798" data-name="Rectangle 798" class="cls-8" width="4.951" height="2.548" transform="matrix(1, -0.006, 0.006, 1, 430.176, 233.009)"/>
      <rect id="Rectangle_799" data-name="Rectangle 799" class="cls-8" width="2.548" height="4.951" transform="translate(471.55 191.119) rotate(-0.336)"/>
      <path id="Path_5729" data-name="Path 5729" class="cls-8" d="M505.741,236.042H471.814V203.415h2.548v30.079h31.379Z"/>
      <rect id="Rectangle_800" data-name="Rectangle 800" class="cls-4" width="8.144" height="337.543" transform="translate(276.696 188.478)"/>
      <rect id="Rectangle_801" data-name="Rectangle 801" class="cls-4" width="131.605" height="6.004" transform="translate(214.753 347.063)"/>
      <path id="Path_5730" data-name="Path 5730" class="cls-9" d="M830.911,160.216a17.248,17.248,0,1,0-17.248-17.248,17.248,17.248,0,0,0,17.248,17.248"/>
      <rect id="Rectangle_802" data-name="Rectangle 802" class="cls-4" width="9.291" height="124.616" transform="translate(826.265 0.17)"/>
      <path id="Path_5731" data-name="Path 5731" class="cls-4" d="M874.926,146.788H786.9a44.016,44.016,0,1,1,88.031-.481c0,.138,0,.275,0,.413Z"/>
      <path id="Path_5732" data-name="Path 5732" d="M1079.239,541.04a1.508,1.508,0,0,1-1.472-1.287,1.586,1.586,0,0,1,1.272-1.789,2.137,2.137,0,0,1,.339-.03h.1a1.522,1.522,0,0,1,1.74,1.264v.015a1.56,1.56,0,0,1-1.3,1.765,3.251,3.251,0,0,1-.462.039,2.109,2.109,0,0,1-.224.015Z"/>
      <g class="cls-17" transform="matrix(1, 0, 0, 1, 0, 0)">
        <path id="Path_5733-2" data-name="Path 5733" class="cls-9" d="M879.749,687.2c-.066.152-.142.313-.218.465-6.736,13.575-19.9,21.022-37.14,21.022h-.759a74.2,74.2,0,0,1-22.4-3.927,11.774,11.774,0,0,1-1.452-.646l-67.943-36.058-225.6,1.556h-.085a11.39,11.39,0,0,1-11.384-11.28l-.057-7.086H276.7A17.434,17.434,0,0,1,259.3,633.83V560.537a44.211,44.211,0,0,1-4.9-9.126,71.057,71.057,0,0,0-7.76-14.145c-6.47-9.05-7.561-23.887-3.425-46.7a259.347,259.347,0,0,1,6.754-27.852,26.434,26.434,0,0,1,9.335-14.847V413.39A17.431,17.431,0,0,1,276.7,395.982H498.292c24.76-17.361,89.279-32.6,96.916-34.351a10.894,10.894,0,0,1,1.223-.218l5.057-.655.076-1.034c.019-.209.038-.427.066-.635l3.965-29.694c-6.972-4.392-13.1-11.431-18.034-20.813-10.359-19.7-13.755-45.707-9.515-68.456a41.674,41.674,0,1,1,49.833-56.274c47.424-15.406,77.165,3.121,88.273,12.389,11.527,9.629,19.068,21.867,20.8,32.909a34.273,34.273,0,0,1-2.391,67.982c-7.162,22.7-22.5,38.212-43.61,44.15.19,2.78.361,5.948.474,9.288l1.082,16.468c22.749,6.584,63.019,22.977,81.471,35.926,15.814,11.1,50.2,74.461,73,126.808,23.527,54.035,48.24,125.071,32.767,157.43" transform="translate(-3 0)"/>
      </g>
      <path id="Path_5734" data-name="Path 5734" d="M1276.68,712.086H3.4a3.4,3.4,0,0,1,0-6.794H1276.68a3.4,3.4,0,0,1,0,6.794"/>
      <path id="Path_5735" data-name="Path 5735" d="M411.746,445.078a1.6,1.6,0,0,1-.814-.226,5.711,5.711,0,0,1-3.013-4.132c-.507-3.409,2.321-6.6,2.651-6.953a1.612,1.612,0,0,1,2.371,2.175c-.6.653-2.078,2.7-1.836,4.31a2.63,2.63,0,0,0,1.458,1.829,1.613,1.613,0,0,1-.822,3.006Z"/>
      <path id="Path_5736" data-name="Path 5736" class="cls-10" d="M894.045,556.558c.088-.2.19-.424.3-.651-.11.235-.2.454-.3.651"/>
      <path id="Path_5737" data-name="Path 5737" class="cls-11" d="M620.318,293.528l-8.961,67.127-3.127,40.737c36.239,37.322,77.168,5.772,76.9,5.487l-5.237-34.529-2.65-40.177c66.961-8.007,53.518-109.166,27.706-120.617,0,0-11.862-8.565-27.521,21.552-16.4,31.568-38.3,28.946-48.321,26.224a18.361,18.361,0,0,0-7.011-1.812,18.026,18.026,0,1,0-1.781,36.008"/>
      <path id="Path_5738" data-name="Path 5738" d="M715.091,249.89a1.33,1.33,0,0,1-.585-2.523c.209-.1,5.126-2.452,9-.62a1.328,1.328,0,0,1-1.085,2.421l-.049-.023c-2.705-1.275-6.663.6-6.7.622a1.293,1.293,0,0,1-.576.132"/>
      <path id="Path_5739" data-name="Path 5739" d="M677,249.011a1.328,1.328,0,0,1-.812-2.38c.292-.223,7.229-5.449,14.557-2.28a1.327,1.327,0,0,1-1,2.458c-.018-.006-.034-.014-.05-.021-5.887-2.544-11.83,1.906-11.89,1.951a1.317,1.317,0,0,1-.8.272"/>
      <path id="Path_5740" data-name="Path 5740" d="M685.9,264.026a2.547,2.547,0,1,0,2.672-2.421,2.548,2.548,0,0,0-2.672,2.421v0"/>
      <path id="Path_5741" data-name="Path 5741" d="M714.251,265.43a2.547,2.547,0,1,0,2.672-2.421,2.549,2.549,0,0,0-2.672,2.421v0"/>
      <path id="Path_5742" data-name="Path 5742" d="M688.251,303.925c-4,0-10.537-1.9-16.184-12.4a1.328,1.328,0,1,1,2.34-1.257c7.664,14.257,16.419,10.648,16.506,10.613a1.329,1.329,0,0,1,1.062,2.437,10.414,10.414,0,0,1-3.724.62"/>
      <path id="Path_5743" data-name="Path 5743" d="M698.639,289.059a20.6,20.6,0,0,1-4.627-.426,1.328,1.328,0,0,1,.62-2.583,27.928,27.928,0,0,0,7.72.2,3.376,3.376,0,0,0,2.346-1.182,2.827,2.827,0,0,0,.651-2.137l-2.2-19.581a1.328,1.328,0,0,1,2.64-.3l2.2,19.579a5.484,5.484,0,0,1-1.242,4.128,6.049,6.049,0,0,1-4.193,2.137q-2.148.164-3.91.164"/>
      <path id="Path_5744" data-name="Path 5744" class="cls-12" d="M621.737,282.342a1.325,1.325,0,0,1-.963-.413c-2.4-2.534-3.284-4.89-2.616-7,1.117-3.495,5.97-4.564,6.517-4.674a1.33,1.33,0,1,1,.525,2.607c-1,.2-3.977,1.171-4.511,2.875-.442,1.4.851,3.139,2.009,4.362a1.327,1.327,0,0,1-.963,2.234"/>
      <path id="Path_5745" data-name="Path 5745" class="cls-12" d="M677.2,332.159c-13.248,2.176-30.15-.892-36.637-6.022,0,0,38.264,35.406,37.932,25.054s-1.295-19.032-1.295-19.032"/>
      <path id="Path_5746" data-name="Path 5746" d="M620.317,293.528c.061-.324-14.488-1.436-16.368-14.249-1.49-10.183,4.468-18.27,14.668-19.681,11.112-1.54,13.464,7.516,15.624,8.727a.468.468,0,0,0,.154.061c10.362,2.763,25.914-6.07,45.8-36.892,12.635-19.6,26.4-14.709,27.143-14.311a.3.3,0,0,1,.054.034c6.659,4.384,10.766,11.784,14.694,20.516.272.613,1.862-.186,2-.838,4.087-18.3-33.69-68.249-105.25-38.048l-.647.279a30.286,30.286,0,1,0-29.288,31.253q.988-.033,1.975-.129c-12.693,35.652,1.489,86.094,25.669,92.4.333,0,3.772-29.124,3.772-29.124"/>
      <path id="Path_5747" data-name="Path 5747" class="cls-13" d="M673.935,282.969c-.442,0-.885-.01-1.332-.032a26.6,26.6,0,1,1,1.332.032m-.043-50.511a23.951,23.951,0,1,0,1.212.03c-.406-.019-.81-.03-1.212-.03"/>
      <path id="Path_5748" data-name="Path 5748" class="cls-13" d="M730.018,285.939c-.387,0-.776-.01-1.158-.028a22.884,22.884,0,1,1,1.158.028m-.05-43.119a20.254,20.254,0,1,0,1.028.026c-.343-.019-.683-.026-1.024-.026"/>
      <path id="Path_5749" data-name="Path 5749" class="cls-14" d="M867.775,682.667c-11.868,23.922-46.215,11.453-46.215,11.453l-70.486-37.4L522.6,658.289l-.212-23.613,75.3.106-2.923-156.257-12.412-47.886-85.581-18.764c9.923-18.448,99.43-39.092,99.43-39.092v.041l.007-.041,14.723-1.928c9.387,16.154,38.531,30.552,69.533,5.3,18.784,4.026,66.1,22.637,85.415,36.187,23.051,16.17,127.259,219.153,101.884,270.326Z"/>
      <path id="Path_5750" data-name="Path 5750" class="cls-13" d="M591.937,407.427H275.15a6.026,6.026,0,0,0-6.028,6.026v220.44a6.028,6.028,0,0,0,6.028,6.028H591.937a6.027,6.027,0,0,0,6.027-6.028V413.452a6.028,6.028,0,0,0-6.027-6.025"/>
      <path id="Path_5751" data-name="Path 5751" class="cls-15" d="M564.1,587.236h-4.767a.383.383,0,0,1,0-.765H564.1a.383.383,0,0,1,0,.765m-10.46,0h-5.692a.383.383,0,1,1,0-.765h5.692a.383.383,0,0,1,0,.765m-11.384,0h-5.692a.383.383,0,1,1,0-.765h5.692a.383.383,0,0,1,0,.765m-11.384,0h-5.692a.383.383,0,1,1,0-.765h5.692a.383.383,0,0,1,0,.765m-11.384,0H513.8a.383.383,0,1,1,0-.765h5.692a.383.383,0,0,1,0,.765m-11.384,0h-5.692a.383.383,0,0,1,0-.765h5.692a.383.383,0,0,1,0,.765m-11.384,0h-5.692a.383.383,0,0,1,0-.765h5.692a.383.383,0,0,1,0,.765m-11.384,0h-5.692a.383.383,0,0,1,0-.765h5.692a.383.383,0,0,1,0,.765m-11.384,0h-5.692a.383.383,0,0,1,0-.765h5.692a.383.383,0,0,1,0,.765m-11.384,0h-5.692a.383.383,0,0,1,0-.765h5.692a.383.383,0,0,1,0,.765m-11.384,0h-5.692a.383.383,0,0,1,0-.765h5.692a.383.383,0,1,1,0,.765m-11.384,0h-5.692a.383.383,0,0,1,0-.765H439.8a.383.383,0,1,1,0,.765m-11.384,0h-5.692a.383.383,0,0,1,0-.765h5.692a.383.383,0,1,1,0,.765m-11.384,0h-5.692a.383.383,0,0,1,0-.765h5.692a.383.383,0,1,1,0,.765m-11.384,0h-5.692a.383.383,0,0,1,0-.765h5.692a.383.383,0,1,1,0,.765m-11.383,0h-5.692a.383.383,0,1,1,0-.765h5.692a.383.383,0,0,1,0,.765m-11.384,0H377.19a.383.383,0,1,1,0-.765h5.692a.383.383,0,0,1,0,.765m-11.384,0h-5.692a.383.383,0,1,1,0-.765H371.5a.383.383,0,0,1,0,.765m-11.384,0h-5.692a.383.383,0,1,1,0-.765h5.692a.383.383,0,0,1,0,.765m-11.384,0h-5.692a.383.383,0,1,1,0-.765h5.692a.383.383,0,0,1,0,.765m-11.384,0h-5.692a.383.383,0,0,1,0-.765h5.692a.383.383,0,0,1,0,.765m-11.384,0H320.27a.383.383,0,0,1,0-.765h5.692a.383.383,0,0,1,0,.765m-11.384,0h-5.692a.383.383,0,0,1,0-.765h5.692a.383.383,0,0,1,0,.765"/>
      <path id="Path_5752" data-name="Path 5752" class="cls-15" d="M561.369,553.147h-2.131a.382.382,0,0,1,0-.765h2.131a.382.382,0,0,1,0,.765m-7.824,0h-5.692a.382.382,0,1,1,0-.765h5.692a.382.382,0,0,1,0,.765m-11.384,0h-5.692a.382.382,0,1,1,0-.765h5.692a.382.382,0,0,1,0,.765m-11.384,0h-5.692a.382.382,0,1,1,0-.765h5.692a.382.382,0,0,1,0,.765m-11.384,0H513.7a.382.382,0,0,1,0-.765h5.692a.382.382,0,0,1,0,.765m-11.384,0h-5.692a.382.382,0,0,1,0-.765h5.692a.382.382,0,0,1,0,.765m-11.384,0h-5.692a.382.382,0,0,1,0-.765h5.692a.382.382,0,0,1,0,.765m-11.384,0h-5.692a.382.382,0,0,1,0-.765h5.692a.382.382,0,0,1,0,.765m-11.384,0h-5.692a.382.382,0,0,1,0-.765h5.692a.382.382,0,0,1,0,.765m-11.384,0h-5.692a.382.382,0,0,1,0-.765h5.692a.382.382,0,0,1,0,.765m-11.384,0H445.4a.382.382,0,0,1,0-.765h5.692a.382.382,0,1,1,0,.765m-11.384,0h-5.692a.382.382,0,0,1,0-.765H439.7a.382.382,0,1,1,0,.765m-11.384,0h-5.692a.382.382,0,0,1,0-.765h5.692a.382.382,0,1,1,0,.765m-11.384,0h-5.692a.382.382,0,0,1,0-.765h5.692a.382.382,0,1,1,0,.765m-11.384,0h-5.691a.382.382,0,1,1,0-.765h5.691a.382.382,0,1,1,0,.765m-11.383,0h-5.692a.382.382,0,1,1,0-.765h5.692a.382.382,0,0,1,0,.765m-11.384,0h-5.692a.382.382,0,1,1,0-.765h5.692a.382.382,0,0,1,0,.765m-11.384,0H365.71a.382.382,0,1,1,0-.765H371.4a.382.382,0,0,1,0,.765m-11.384,0h-5.692a.382.382,0,1,1,0-.765h5.692a.382.382,0,0,1,0,.765m-11.384,0h-5.692a.382.382,0,0,1,0-.765h5.692a.382.382,0,0,1,0,.765m-11.384,0h-5.692a.382.382,0,0,1,0-.765h5.692a.382.382,0,0,1,0,.765m-11.384,0h-5.692a.382.382,0,0,1,0-.765h5.692a.382.382,0,0,1,0,.765m-11.384,0H308.79a.382.382,0,0,1,0-.765h5.692a.382.382,0,0,1,0,.765"/>
      <path id="Path_5753" data-name="Path 5753" class="cls-15" d="M563.566,519.064h-5.692a.383.383,0,1,1,0-.765h5.692a.383.383,0,0,1,0,.765m-11.384,0H546.49a.383.383,0,1,1,0-.765h5.692a.383.383,0,0,1,0,.765m-11.384,0h-5.692a.383.383,0,1,1,0-.765H540.8a.383.383,0,0,1,0,.765m-11.384,0h-5.692a.383.383,0,1,1,0-.765h5.692a.383.383,0,0,1,0,.765m-11.384,0h-5.692a.383.383,0,1,1,0-.765h5.692a.383.383,0,0,1,0,.765m-11.384,0h-5.692a.383.383,0,0,1,0-.765h5.692a.383.383,0,0,1,0,.765m-11.384,0H489.57a.383.383,0,0,1,0-.765h5.692a.383.383,0,0,1,0,.765m-11.384,0h-5.692a.383.383,0,0,1,0-.765h5.692a.383.383,0,0,1,0,.765m-11.384,0H466.8a.383.383,0,0,1,0-.765h5.692a.383.383,0,0,1,0,.765m-11.384,0h-5.692a.383.383,0,0,1,0-.765h5.692a.383.383,0,0,1,0,.765m-11.384,0h-5.692a.383.383,0,0,1,0-.765h5.692a.383.383,0,1,1,0,.765m-11.384,0H432.65a.383.383,0,0,1,0-.765h5.692a.383.383,0,1,1,0,.765m-11.384,0h-5.692a.383.383,0,0,1,0-.765h5.692a.383.383,0,1,1,0,.765m-11.384,0h-5.692a.383.383,0,0,1,0-.765h5.692a.383.383,0,1,1,0,.765m-11.384,0H398.5a.383.383,0,0,1,0-.765h5.692a.383.383,0,1,1,0,.765m-11.383,0h-5.692a.383.383,0,1,1,0-.765h5.692a.383.383,0,0,1,0,.765m-11.384,0h-5.692a.383.383,0,1,1,0-.765h5.692a.383.383,0,0,1,0,.765m-11.384,0h-5.692a.383.383,0,1,1,0-.765h5.692a.383.383,0,0,1,0,.765m-11.384,0h-5.692a.383.383,0,1,1,0-.765h5.692a.383.383,0,0,1,0,.765m-11.384,0h-5.692a.383.383,0,0,1,0-.765h5.692a.383.383,0,0,1,0,.765m-11.384,0H330.2a.383.383,0,0,1,0-.765h5.692a.383.383,0,0,1,0,.765m-11.384,0h-5.692a.383.383,0,0,1,0-.765H324.5a.383.383,0,0,1,0,.765m-11.384,0h-5.692a.383.383,0,0,1,0-.765h5.692a.383.383,0,0,1,0,.765"/>
      <path id="Path_5754" data-name="Path 5754" class="cls-15" d="M547.811,484.974h-5.692a.382.382,0,1,1,0-.765h5.692a.382.382,0,0,1,0,.765m-11.384,0h-5.692a.382.382,0,1,1,0-.765h5.692a.382.382,0,0,1,0,.765m-11.384,0h-5.692a.382.382,0,1,1,0-.765h5.692a.382.382,0,0,1,0,.765m-11.384,0h-5.692a.382.382,0,1,1,0-.765h5.692a.382.382,0,0,1,0,.765m-11.384,0h-5.692a.382.382,0,0,1,0-.765h5.692a.382.382,0,0,1,0,.765m-11.384,0H485.2a.382.382,0,0,1,0-.765h5.692a.382.382,0,0,1,0,.765m-11.384,0h-5.692a.382.382,0,0,1,0-.765h5.692a.382.382,0,0,1,0,.765m-11.384,0h-5.692a.382.382,0,0,1,0-.765h5.692a.382.382,0,0,1,0,.765m-11.384,0h-5.692a.382.382,0,0,1,0-.765h5.692a.382.382,0,0,1,0,.765m-11.384,0h-5.692a.382.382,0,0,1,0-.765h5.692a.382.382,0,0,1,0,.765m-11.384,0h-5.692a.382.382,0,0,1,0-.765h5.692a.382.382,0,1,1,0,.765m-11.384,0h-5.692a.382.382,0,0,1,0-.765h5.692a.382.382,0,1,1,0,.765m-11.384,0h-5.692a.382.382,0,0,1,0-.765H411.2a.382.382,0,1,1,0,.765m-11.384,0h-5.692a.382.382,0,0,1,0-.765h5.692a.382.382,0,1,1,0,.765m-11.383,0h-5.692a.382.382,0,1,1,0-.765h5.692a.382.382,0,0,1,0,.765m-11.384,0H371.36a.382.382,0,1,1,0-.765h5.692a.382.382,0,0,1,0,.765m-11.384,0h-5.692a.382.382,0,1,1,0-.765h5.692a.382.382,0,0,1,0,.765m-11.384,0h-5.692a.382.382,0,1,1,0-.765h5.692a.382.382,0,0,1,0,.765m-11.384,0h-5.692a.382.382,0,0,1,0-.765H342.9a.382.382,0,0,1,0,.765m-11.384,0h-5.692a.382.382,0,0,1,0-.765h5.692a.382.382,0,0,1,0,.765m-11.384,0H314.44a.382.382,0,0,1,0-.765h5.692a.382.382,0,0,1,0,.765m-11.384,0h-5.692a.382.382,0,0,1,0-.765h5.692a.382.382,0,0,1,0,.765"/>
      <path id="Path_5755" data-name="Path 5755" class="cls-15" d="M558.409,452.147h-4.9a.383.383,0,0,1,0-.765h4.9a.383.383,0,0,1,0,.765m-10.6,0h-5.692a.383.383,0,1,1,0-.765h5.692a.383.383,0,0,1,0,.765m-11.384,0h-5.692a.383.383,0,1,1,0-.765h5.692a.383.383,0,0,1,0,.765m-11.384,0h-5.692a.383.383,0,1,1,0-.765h5.692a.383.383,0,0,1,0,.765m-11.384,0h-5.692a.383.383,0,1,1,0-.765h5.692a.383.383,0,0,1,0,.765m-11.384,0h-5.692a.383.383,0,0,1,0-.765h5.692a.383.383,0,0,1,0,.765m-11.384,0H485.2a.383.383,0,0,1,0-.765h5.692a.383.383,0,0,1,0,.765m-11.384,0h-5.692a.383.383,0,0,1,0-.765h5.692a.383.383,0,0,1,0,.765m-11.384,0h-5.692a.383.383,0,0,1,0-.765h5.692a.383.383,0,0,1,0,.765m-11.384,0h-5.692a.383.383,0,0,1,0-.765h5.692a.383.383,0,0,1,0,.765m-11.384,0h-5.692a.383.383,0,0,1,0-.765h5.692a.383.383,0,0,1,0,.765m-11.384,0h-5.692a.383.383,0,0,1,0-.765h5.692a.383.383,0,1,1,0,.765m-11.384,0h-5.692a.383.383,0,0,1,0-.765h5.692a.383.383,0,1,1,0,.765m-11.384,0h-5.692a.383.383,0,0,1,0-.765H411.2a.383.383,0,1,1,0,.765m-11.384,0h-5.692a.383.383,0,0,1,0-.765h5.692a.383.383,0,1,1,0,.765m-11.383,0h-5.692a.383.383,0,1,1,0-.765h5.692a.383.383,0,0,1,0,.765m-11.384,0H371.36a.383.383,0,1,1,0-.765h5.692a.383.383,0,0,1,0,.765m-11.384,0h-5.692a.383.383,0,1,1,0-.765h5.692a.383.383,0,0,1,0,.765m-11.384,0h-5.692a.383.383,0,1,1,0-.765h5.692a.383.383,0,0,1,0,.765m-11.384,0h-5.692a.383.383,0,0,1,0-.765H342.9a.383.383,0,0,1,0,.765m-11.384,0h-5.692a.383.383,0,0,1,0-.765h5.692a.383.383,0,0,1,0,.765m-11.384,0H314.44a.383.383,0,0,1,0-.765h5.692a.383.383,0,0,1,0,.765m-11.384,0h-5.692a.383.383,0,0,1,0-.765h5.692a.383.383,0,0,1,0,.765"/>
      <path id="Path_5756" data-name="Path 5756" d="M427.476,583.568a1.645,1.645,0,0,1-1.132-.455l-77.316-74.434-44.035,58.682a1.626,1.626,0,0,1-2.6-1.951l45.144-60.152a1.6,1.6,0,0,1,1.17-.641,1.648,1.648,0,0,1,1.262.446l77.695,74.8,78-52.115a1.63,1.63,0,0,1,1.946.106l51.849,43.2a1.63,1.63,0,0,1-2.087,2.505l-50.912-42.419L428.379,583.3a1.614,1.614,0,0,1-.9.276Z"/>
      <path id="Path_5757" data-name="Path 5757" class="cls-9" d="M506.538,533.405a4.079,4.079,0,1,0-4.079-4.079,4.079,4.079,0,0,0,4.079,4.079"/>
      <path id="Path_5758" data-name="Path 5758" d="M506.538,535.031a5.71,5.71,0,1,1,5.71-5.71,5.709,5.709,0,0,1-5.71,5.71m0-8.166a2.457,2.457,0,1,0,2.456,2.458v0a2.457,2.457,0,0,0-2.456-2.456"/>
      <path id="Path_5759" data-name="Path 5759" class="cls-9" d="M427.4,585.323a4.079,4.079,0,1,0-4.079-4.079,4.079,4.079,0,0,0,4.079,4.079"/>
      <path id="Path_5760" data-name="Path 5760" d="M427.4,586.95a5.71,5.71,0,1,1,5.71-5.71,5.71,5.71,0,0,1-5.71,5.71m0-8.166a2.457,2.457,0,1,0,2.456,2.458h0a2.456,2.456,0,0,0-2.455-2.457Z"/>
      <path id="Path_5761" data-name="Path 5761" class="cls-9" d="M348.917,509.921a4.079,4.079,0,1,0-4.079-4.079,4.079,4.079,0,0,0,4.079,4.079"/>
      <path id="Path_5762" data-name="Path 5762" d="M348.917,511.547a5.71,5.71,0,1,1,5.71-5.71A5.709,5.709,0,0,1,348.917,511.547Zm0-8.166a2.456,2.456,0,1,0,2.456,2.456,2.457,2.457,0,0,0-2.456-2.456"/>
      <path id="Path_5763" data-name="Path 5763" class="cls-9" d="M510.539,567.487a1.626,1.626,0,0,1-1.285-.626l-87.2-111.537-68.7,68.659a1.637,1.637,0,0,1-1.147.475l-49.235-.017a1.626,1.626,0,1,1,0-3.252l48.571.016,69.519-69.486a1.631,1.631,0,0,1,2.307.006,1.673,1.673,0,0,1,.125.14L510.36,562.976l47.372-79.567a1.628,1.628,0,0,1,2.828,1.613c-.009.016-.019.032-.029.048l-48.585,81.609a1.613,1.613,0,0,1-1.293.789h-.106Z"/>
      <path id="Path_5764" data-name="Path 5764" d="M510.523,569.643a4.035,4.035,0,1,0-4.035-4.037,4.036,4.036,0,0,0,4.035,4.037"/>
      <path id="Path_5765" data-name="Path 5765" class="cls-9" d="M510.523,571.269a5.663,5.663,0,1,1,5.662-5.663h0a5.665,5.665,0,0,1-5.662,5.661m0-8.069a2.409,2.409,0,1,0,2.408,2.41,2.409,2.409,0,0,0-2.408-2.41"/>
      <path id="Path_5766" data-name="Path 5766" d="M422.139,458.344a4.035,4.035,0,1,0-4.035-4.035,4.035,4.035,0,0,0,4.035,4.035"/>
      <path id="Path_5767" data-name="Path 5767" class="cls-9" d="M422.139,459.963a5.661,5.661,0,1,1,5.662-5.66,5.661,5.661,0,0,1-5.662,5.66Zm0-8.069a2.408,2.408,0,1,0,2.408,2.409,2.408,2.408,0,0,0-2.408-2.409Z"/>
      <path id="Path_5768" data-name="Path 5768" d="M352.236,526.473a4.035,4.035,0,1,0-4.035-4.035,4.034,4.034,0,0,0,4.035,4.035"/>
      <path id="Path_5769" data-name="Path 5769" class="cls-9" d="M352.236,528.1a5.661,5.661,0,1,1,5.661-5.661,5.661,5.661,0,0,1-5.661,5.661m0-8.069a2.408,2.408,0,1,0,2.407,2.408A2.408,2.408,0,0,0,352.236,520.033Z"/>
      <path id="Path_5770" data-name="Path 5770" class="cls-11" d="M750.258,656.351,622.172,599.673l-.025-.016L605.871,592.5c12.388,7.915,4.7,12.048.171,10.494-24.1-8.254-24.606-18.928-20.457-22.719-3.653-9.085-1.044-11.632,2.546-14.462-2.132-9.3.041-10.246,3.036-13.661-4.539-12.291,5.848-12.926,6.523-12.909-15.748-8.972-38.092-11.273-37.246-21.295,1.106-13.161,51.725,12.413,67.114,22.9,6.483,4.416,19.912,19.505,19.912,19.505L758.052,590.87c7.785,18.431,15.569,48.837-7.8,65.487Z"/>
      <path id="Path_5771" data-name="Path 5771" class="cls-12" d="M612.72,554.725a1.249,1.249,0,0,1-.664-.195c-1.928-1.261-11.669-5.442-20.725-1.286a1.221,1.221,0,1,1-1.037-2.211l.02-.009c10.159-4.661,20.79-.033,23.076,1.464a1.221,1.221,0,0,1-.664,2.246Z"/>
      <path id="Path_5772" data-name="Path 5772" class="cls-12" d="M608.173,566.981a.933.933,0,0,1-.3-.041c-1.147-.293-2.31-.675-3.547-1.081-5.018-1.643-10.2-3.352-15.674.474a1.221,1.221,0,1,1-1.434-1.976l.035-.025c6.467-4.522,12.771-2.457,17.83-.8,1.2.39,2.318.765,3.384,1.033a1.221,1.221,0,0,1-.293,2.4Z"/>
      <path id="Path_5773" data-name="Path 5773" class="cls-12" d="M585.584,581.5a1.231,1.231,0,0,1-.992-.5,1.211,1.211,0,0,1,.268-1.693h0l.008-.006c6.759-4.888,18.065-.967,18.545-.8a1.221,1.221,0,1,1-.646,2.354,1.307,1.307,0,0,1-.168-.06c-.1-.04-10.574-3.668-16.3.475a1.223,1.223,0,0,1-.716.227Z"/>
      <path id="Path_5774" data-name="Path 5774" class="cls-12" d="M610.067,595.536a1.227,1.227,0,0,1-.5-.1l-5.434-2.4a1.223,1.223,0,1,1,.985-2.238l5.433,2.4a1.219,1.219,0,0,1-.488,2.334Z"/>
      <path id="Path_5775" data-name="Path 5775" class="cls-9" d="M770.967,592.785a1.623,1.623,0,0,1-1.538-1.1l-18.816-54.6a1.627,1.627,0,0,1,3.075-1.058L772.5,590.626a1.627,1.627,0,0,1-1.009,2.064,1.712,1.712,0,0,1-.526.095"/>
      <path id="Path_5776" data-name="Path 5776" class="cls-11" d="M300.942,501.536c1.334,1.613,6.41,12.584,0,14.666a18.272,18.272,0,0,1,1,13.015s-1.716,7.3-17.229-9c0,0-13.136-5.954-14.535.992l-1.112,34.611c-5.206-3.294-5.271-11.892-14.731-25.119-10.7-14.958,5.043-64.888,5.043-64.888,5.759-24.381,45.527-6.483,36.79,9.785,6.906,6.328,13.023,13.389,12.348,16.74-1.147,5.692-.252,10.281-7.565,9.183Z"/>
      <path id="Path_5777" data-name="Path 5777" class="cls-12" d="M297.4,477.989a1.237,1.237,0,0,1-.838-.334c-7.54-7.149-14.73-10.428-21.376-9.736a18.345,18.345,0,0,0-12.238,7.052,1.222,1.222,0,0,1-2.009-1.39,20.661,20.661,0,0,1,14-8.094c7.385-.765,15.227,2.733,23.3,10.395a1.22,1.22,0,0,1-.837,2.107Z"/>
      <path id="Path_5778" data-name="Path 5778" class="cls-12" d="M300.942,502.757a1.213,1.213,0,0,1-1.065-.626,28.381,28.381,0,0,0-2.367-3.6c-9.151-10.443-17.578-15.536-25.037-15.12a14.213,14.213,0,0,0-10.314,5.384,1.222,1.222,0,1,1-2.009-1.391,16.49,16.49,0,0,1,12.136-6.426c8.264-.48,17.366,4.889,27.061,15.951a28.94,28.94,0,0,1,2.669,4.018,1.221,1.221,0,0,1-1.068,1.814Z"/>
      <path id="Path_5779" data-name="Path 5779" class="cls-12" d="M300.942,517.422a1.2,1.2,0,0,1-.968-.48c-8.215-10.72-16.041-16.154-23.255-16.154h-.048a14.193,14.193,0,0,0-10.567,5.035,1.227,1.227,0,0,1-1.707.244,1.212,1.212,0,0,1-.248-1.695v-.005a16.4,16.4,0,0,1,12.462-6.02c8.063-.057,16.561,5.7,25.3,17.115a1.22,1.22,0,0,1-.228,1.708,1.2,1.2,0,0,1-.74.252"/>
      <g class="cls-16" transform="matrix(1, 0, 0, 1, 0, 0)">
        <path id="Path_5780-2" data-name="Path 5780" class="cls-9" d="M1080.6,403.868H929.382a15.328,15.328,0,0,0-15.29,15.3v6.142a15.337,15.337,0,0,0,13.45,15.163c-.817,14.67,1.08,35.594,13.843,55.148,5.283,8.088,12.293,14.258,18.441,19.4,1.6,1.343,3.186,2.653,4.735,3.935l.831.687c12.965,10.713,24.162,19.966,24.563,27.888.026.591.074,1.173.134,1.755l.049.549c0,.024.052,2.447-2.705,7.061-4.292,7.167-12.389,15.14-24.05,23.686a88.7,88.7,0,0,0-27.28,32.539,84.965,84.965,0,0,0-7.514,52.914,15.331,15.331,0,0,0-15.027,15.3v6.134a15.328,15.328,0,0,0,15.3,15.291h151.224a15.332,15.332,0,0,0,15.273-15.3v-6.129a15.324,15.324,0,0,0-15.013-15.293,85.075,85.075,0,0,0-7.529-52.94,88.523,88.523,0,0,0-27.253-32.5c-11.679-8.556-19.775-16.526-24.061-23.693-2.767-4.625-2.713-7.052-2.714-7.052.013-.167.026-.328.045-.506.062-.606.119-1.211.143-1.76.4-7.988,11.609-17.245,24.593-27.968l.915-.756c1.514-1.253,3.061-2.531,4.614-3.834,6.157-5.145,13.168-11.312,18.451-19.411,12.738-19.512,14.654-40.389,13.848-55.055a15.319,15.319,0,0,0,14.49-15.263v-6.135a15.322,15.322,0,0,0-15.29-15.3" transform="translate(0 0)"/>
      </g>
      <path id="Path_5781" data-name="Path 5781" class="cls-9" d="M1067.236,675.784c7.728-24.085,3.07-44.067-3.82-58.3a77.956,77.956,0,0,0-24.18-28.813c-29.884-21.9-31.132-35.91-30.83-39.623.051-.656.133-1.311.164-1.967.7-13.823,15.759-24.722,33.7-39.73,6.14-5.131,12.116-10.5,16.49-17.2,20.909-32.028,9.178-67.926,9.178-67.926H940.178s-11.724,35.9,9.178,67.926c4.375,6.7,10.35,12.071,16.49,17.2,17.946,15,33,25.907,33.7,39.73.032.656.114,1.311.164,1.967.3,3.713-.952,17.719-30.83,39.623a78.062,78.062,0,0,0-24.18,28.813c-6.89,14.233-11.548,34.208-3.82,58.3Z"/>
      <path id="Path_5782" data-name="Path 5782" d="M1068.155,677.044H939.969l-.283-.876c-6.556-20.442-5.251-40.367,3.889-59.233a79.593,79.593,0,0,1,24.564-29.285c12.626-9.254,21.508-18.091,26.4-26.26,3.9-6.531,4.047-10.735,3.921-12.242-.019-.239-.044-.479-.063-.712-.044-.429-.082-.857-.1-1.292-.6-11.832-12.582-21.728-27.754-34.265-1.79-1.482-3.631-3-5.5-4.564-5.666-4.74-12.1-10.388-16.735-17.479-20.991-32.16-9.443-68.644-9.323-69.01l.284-.87h129.591l.284.87c.12.366,11.674,36.85-9.323,69.01-4.627,7.091-11.062,12.739-16.735,17.479-1.866,1.563-3.707,3.082-5.5,4.564-15.172,12.531-27.155,22.433-27.754,34.265-.019.435-.063.87-.107,1.3-.025.233-.044.466-.063.706-.12,1.506.019,5.711,3.927,12.241,4.885,8.169,13.767,17.006,26.4,26.26a79.469,79.469,0,0,1,24.564,29.285c9.134,18.867,10.445,38.792,3.889,59.233l-.283.877ZM941.81,674.523h124.5c6.039-19.5,4.684-38.495-4.027-56.485a76.922,76.922,0,0,0-23.789-28.346c-12.9-9.455-22.012-18.538-27.074-27-4.122-6.9-4.45-11.567-4.273-13.735.019-.246.044-.5.069-.744.038-.4.076-.794.1-1.191.655-12.941,13.016-23.153,28.668-36.081q2.685-2.213,5.49-4.551c5.528-4.62,11.8-10.123,16.237-16.924,18.545-28.4,10.867-60.343,9.292-65.978H941.117c-1.57,5.641-9.247,37.574,9.291,65.978,4.437,6.8,10.709,12.3,16.237,16.924q2.8,2.333,5.491,4.551c15.651,12.928,28.012,23.14,28.668,36.081.018.4.056.788.094,1.179.025.252.05.5.069.75.316,3.933-1.008,18.506-31.34,40.739a77.036,77.036,0,0,0-23.789,28.346c-8.711,17.99-10.067,36.995-4.028,56.485Z"/>
      <path id="Path_5783" data-name="Path 5783" class="cls-10" d="M943.279,670.25h122.078s5.881-23.764-14.006-25.875c-20.537-2.181-29.84-7.911-52.457-11.094-9.934-1.4-53.964,11.478-55.615,36.969"/>
      <path id="Path_5784" data-name="Path 5784" d="M1079.666,674.782H928.46a6.555,6.555,0,0,0-6.549,6.549v6.127a6.555,6.555,0,0,0,6.549,6.549h151.206a6.556,6.556,0,0,0,6.543-6.549v-6.127a6.551,6.551,0,0,0-6.543-6.549"/>
      <path id="Path_5785" data-name="Path 5785" d="M1080.2,412.617H928.99a6.555,6.555,0,0,0-6.549,6.549v6.127a6.555,6.555,0,0,0,6.549,6.543H1080.2a6.551,6.551,0,0,0,6.543-6.543v-6.127a6.551,6.551,0,0,0-6.543-6.549"/>
      <path id="Path_5786" data-name="Path 5786" class="cls-10" d="M967.157,496.585s29.386,26.254,32.589,33.484a7.276,7.276,0,0,0,2.092,3.132c1.513,1.11,3.719,1.658,5.749-1.941,5.377-9.531,25.472-27.981,33.376-33.648Z"/>
      <path id="Path_5787" data-name="Path 5787" class="cls-10" d="M1005.954,557.312a2.468,2.468,0,0,0-4.349-.258c-.908,1.468-1.545,3.1-.807,4.135,1.607,2.25,6.436,1.928,6.436,0a12.05,12.05,0,0,0-1.286-3.877Z"/>
      <path id="Path_5788" data-name="Path 5788" class="cls-10" d="M1001.737,576.72c-1.084,2.805-5.988,10.457,1.538,11.857s5.5-12.4,2.666-16.931S1002.607,574.476,1001.737,576.72Z"/>
      <path id="Path_5789" data-name="Path 5789" class="cls-10" d="M999.436,610.846c-1.261,4.879-4.2,16.521,3.328,17.921s4.974-23.342,2.137-27.868-4.86,7.621-5.465,9.953Z"/>
    </g>
  </g>
</svg>
