<?xml version="1.0" encoding="UTF-8"?><svg id="Layer_1" xmlns="http://www.w3.org/2000/svg" viewBox="0 0 63.7 64.21"><defs><style>.cls-1{fill:none;}</style></defs><path class="cls-1" d="M23.15,25.02c0,4.84,3.9,8.79,8.7,8.79s8.7-3.94,8.7-8.79-3.9-8.79-8.7-8.79-8.7,3.94-8.7,8.79Z"/><path class="cls-1" d="M40.25,44.86H23.45c-5.21,0-9.46,4.17-9.68,9.38,7.28,4.02,16.27,5.74,18.06,6.05,1.8-.34,10.8-2.2,18.08-6.25-.32-5.11-4.53-9.17-9.67-9.17Z"/><path class="cls-1" d="M4.05,13.17v28.18c0,4.34,2.49,7.78,5.99,10.47,1.3-6.25,6.82-10.96,13.41-10.96h16.8c6.53,0,11.99,4.62,13.36,10.78,3.52-2.68,6.04-6.08,6.04-10.3V13.17L31.85,4.24,4.05,13.17Zm40.5,11.85c0,7.05-5.7,12.79-12.7,12.79s-12.7-5.74-12.7-12.79,5.7-12.79,12.7-12.79,12.7,5.74,12.7,12.79Z"/><path d="M62.26,9.81L32.46,.24c-.4-.13-.83-.13-1.22,0L1.44,9.81c-.83,.27-1.39,1.04-1.39,1.9v29.63c0,17.94,30.21,22.75,31.5,22.94,.1,.01,.2,.02,.3,.02,.11,0,.22,0,.33-.03,1.28-.22,31.47-5.52,31.47-22.94V11.72c0-.87-.56-1.64-1.39-1.9ZM31.83,60.29c-1.79-.31-10.79-2.02-18.06-6.05,.22-5.2,4.47-9.38,9.68-9.38h16.8c5.14,0,9.35,4.06,9.67,9.17-7.29,4.05-16.29,5.91-18.08,6.25Zm27.82-18.94c0,4.22-2.52,7.61-6.04,10.3-1.37-6.16-6.83-10.78-13.36-10.78H23.45c-6.59,0-12.11,4.71-13.41,10.96-3.5-2.69-5.99-6.13-5.99-10.47V13.17L31.85,4.24l27.8,8.93v28.18Z"/><path d="M19.15,25.02c0,7.05,5.7,12.79,12.7,12.79s12.7-5.74,12.7-12.79-5.7-12.79-12.7-12.79-12.7,5.74-12.7,12.79Zm21.4,0c0,4.84-3.9,8.79-8.7,8.79s-8.7-3.94-8.7-8.79,3.9-8.79,8.7-8.79,8.7,3.94,8.7,8.79Z"/></svg>