<?xml version="1.0" encoding="UTF-8"?><svg id="Layer_1" xmlns="http://www.w3.org/2000/svg" viewBox="0 0 63.7 64.21"><defs><style>.cls-1{fill:none;}.cls-2{fill:#1d1d1b;}</style></defs><path class="cls-1" d="M7.1,40.46c1.28,.74,2.77,.93,4.19,.54l1.58-.44-3.13-11.91-1.53,.42c-3.01,.83-4.79,4.04-3.98,7.14l.18,.69c.4,1.52,1.36,2.79,2.69,3.56Z"/><path class="cls-1" d="M13.9,44.42l-3.87,1.07,3.5,13.17c.15,.56,.49,1.01,.97,1.29,.45,.26,.97,.33,1.47,.19,1.08-.3,1.72-1.46,1.42-2.59l-3.49-13.13Z"/><path class="cls-1" d="M39.76,12.33c-.36-1.29-1.26-2.27-2.46-2.69-1.1-.39-2.29-.23-3.26,.43L13.42,26.92l3.26,12.38,.25,.95,26.43,5.48c1.25,.05,2.5-.52,3.34-1.56,.93-1.15,1.25-2.71,.83-4.17l-7.77-27.68Z"/><path class="cls-2" d="M43.61,11.25c-.71-2.52-2.57-4.53-4.98-5.38-2.37-.84-4.9-.48-6.95,.98-.04,.03-.07,.05-.11,.08L10.22,24.37l-3.08,.85c-5.11,1.41-8.15,6.8-6.78,12.02l.18,.69c.68,2.57,2.3,4.7,4.57,6.01,.16,.09,.32,.16,.48,.24,0,.15,.02,.3,.06,.45l4.01,15.08c.42,1.59,1.43,2.92,2.84,3.73,.91,.53,1.92,.79,2.95,.79,.53,0,1.06-.07,1.58-.22h0c3.18-.88,5.07-4.23,4.22-7.47l-3.18-11.96,24.62,5.11c.09,.02,.19,.03,.28,.04,.18,.01,.35,.02,.53,.02,2.45,0,4.73-1.09,6.3-3.04,1.75-2.16,2.34-5.06,1.58-7.77l-7.77-27.68ZM4.41,36.9l-.18-.69c-.82-3.11,.96-6.31,3.98-7.14l1.53-.42,3.13,11.91-1.58,.44c-1.42,.39-2.9,.2-4.19-.54-1.34-.77-2.29-2.03-2.69-3.56Zm11.56,23.24c-.5,.14-1.02,.07-1.47-.19-.48-.28-.82-.73-.97-1.29l-3.5-13.17,3.87-1.07,3.49,13.13c.3,1.13-.34,2.29-1.42,2.59Zm30.73-15.97c-.84,1.04-2.1,1.61-3.34,1.56l-26.43-5.48-.25-.95-3.26-12.38L34.04,10.07c.97-.67,2.15-.82,3.26-.43,1.21,.43,2.1,1.41,2.46,2.69l7.77,27.68c.41,1.46,.1,3.02-.83,4.17Z"/><path class="cls-2" d="M46.45,7.99c.41,0,.82-.12,1.17-.38l5.49-3.99c.89-.65,1.09-1.9,.44-2.79-.65-.89-1.9-1.09-2.79-.44l-5.49,3.99c-.89,.65-1.09,1.9-.44,2.79,.39,.54,1,.82,1.62,.82Z"/><path class="cls-2" d="M54.09,22.11l6.45-1.96c1.06-.32,1.65-1.44,1.33-2.5-.32-1.06-1.44-1.66-2.5-1.33l-6.45,1.96c-1.06,.32-1.65,1.44-1.33,2.5,.26,.86,1.05,1.42,1.91,1.42,.19,0,.39-.03,.58-.09Z"/><path class="cls-2" d="M61.98,36.41l-6.65-1.04c-1.09-.17-2.12,.57-2.29,1.67-.17,1.09,.57,2.12,1.67,2.29l6.65,1.04c.11,.02,.21,.02,.31,.02,.97,0,1.82-.7,1.97-1.69,.17-1.09-.57-2.12-1.67-2.29Z"/></svg>