<?xml version="1.0" encoding="UTF-8"?>
<svg id="Layer_5" data-name="Layer 5" xmlns="http://www.w3.org/2000/svg" viewBox="0 0 64 64">
  <defs>
    <style>
      .cls-1 {
        fill: #000;
        stroke-width: 0px;
      }
    </style>
  </defs>
  <path class="cls-1" d="M37.89,48.73l-1.82-5.27c-.03-.14-.08-.28-.14-.41l-4.04-11.71c-.28-.81-1.04-1.35-1.89-1.35h0c-.85,0-1.61.54-1.89,1.34l-4.05,11.63c-.09.18-.16.37-.2.57l-1.8,5.18c-.36,1.04.19,2.18,1.23,2.55.22.08.44.11.66.11.83,0,1.6-.52,1.89-1.34l1.44-4.15h5.4l1.43,4.14c.36,1.04,1.5,1.6,2.54,1.24,1.04-.36,1.6-1.5,1.24-2.54ZM28.67,41.9l1.32-3.79,1.31,3.79h-2.63Z"/>
  <path class="cls-1" d="M49.45,30h-5.52c-1.1,0-2,.9-2,2v17.16c0,1.1.9,2,2,2s2-.9,2-2v-6.91h3.52c3.39,0,6.15-2.75,6.15-6.12s-2.76-6.13-6.15-6.13ZM49.45,38.25h-3.52v-4.25h3.52c1.18,0,2.15.95,2.15,2.13s-.96,2.12-2.15,2.12Z"/>
  <path class="cls-1" d="M61.82,51.38c-1.1,0-2-.9-2-2v-17.38c0-1.1.9-2,2-2s2,.9,2,2v17.38c0,1.1-.9,2-2,2Z"/>
  <path class="cls-1" d="M53.08,21.97c1.1,0,2-.9,2-2V7.15c0-3.99-3.25-7.24-7.24-7.24h-27.87c-.14,0-.27.01-.4.04,0,0,0,0,0,0-.17.04-.33.1-.49.18-.04.02-.07.04-.11.06-.15.09-.29.19-.42.31,0,0,0,0,0,0L.76,18.57c-.36.36-.58.86-.58,1.4H.18v36.88c0,3.99,3.25,7.24,7.24,7.24h40.43c3.99,0,7.24-3.25,7.24-7.24v-.78c0-1.1-.9-2-2-2s-2,.9-2,2v.78c0,1.78-1.45,3.24-3.24,3.24H7.42c-1.78,0-3.24-1.45-3.24-3.24V21.97h10.57c3.99,0,7.24-3.25,7.24-7.24V3.91h25.87c1.78,0,3.24,1.45,3.24,3.24v12.83c0,1.1.9,2,2,2ZM17.98,14.74c0,1.78-1.45,3.24-3.24,3.24h-7.79l11.02-11.18v7.95Z"/>
</svg>