<svg xmlns="http://www.w3.org/2000/svg" width="24" height="24" viewBox="0 0 24 24" fill="none" stroke="currentColor" stroke-width="1.5" stroke-linecap="round" stroke-linejoin="round"><path d="M12 19c-4.3 0-7.2-1.4-8.6-2.8C2 14.8 2 13 2 12c0-5.5 4.5-10 10-10s10 4.5 10 10c0 .7-.1 1.4-.3 2"/><circle cx="7.5" cy="10.5" r="1.5" fill="currentColor"/><circle cx="12" cy="7.5" r="1.5" fill="currentColor"/><circle cx="16.5" cy="10.5" r="1.5" fill="currentColor"/><path d="M16 19a3 3 0 1 0 6 0c0-2-3-3.5-3-6 0 2.5-3 4-3 6z" fill="currentColor"/></svg>
