<?xml version="1.0" encoding="UTF-8"?><svg id="Layer_1" xmlns="http://www.w3.org/2000/svg" viewBox="0 0 64 64"><defs><style>.cls-1{fill:none;}</style></defs><path class="cls-1" d="M53.91,16.51l3.47-3.69h-4.24c-1.1,0-2-.9-2-2V6.63l-3.62,3.36,.54,5.99,5.85,.53Z"/><path d="M59.78,20.48c-1.05,.35-1.61,1.49-1.25,2.54,.98,2.88,1.47,5.91,1.47,8.98,0,15.44-12.56,28-28,28S4,47.44,4,32,16.56,4,32,4c2.84,0,5.64,.42,8.33,1.26,1.05,.33,2.18-.26,2.5-1.32,.33-1.05-.26-2.18-1.32-2.5C38.44,.48,35.24,0,32,0,14.36,0,0,14.36,0,32s14.36,32,32,32,32-14.35,32-32c0-3.51-.57-6.96-1.68-10.26-.35-1.05-1.49-1.61-2.54-1.25Z"/><path d="M30.52,19.16c1.1-.13,2.21-.11,3.3,.04,1.09,.16,2.11-.61,2.26-1.7,.16-1.09-.61-2.11-1.7-2.26-1.42-.2-2.88-.22-4.32-.05-9.27,1.07-15.94,9.48-14.87,18.75,.52,4.49,2.75,8.51,6.29,11.32,3.02,2.4,6.68,3.67,10.48,3.67,.65,0,1.31-.04,1.97-.11,4.49-.52,8.51-2.75,11.32-6.29,2.81-3.54,4.07-7.96,3.55-12.45-.13-1.1-1.13-1.88-2.22-1.76-1.1,.13-1.88,1.12-1.76,2.22,.4,3.43-.57,6.81-2.71,9.51-2.14,2.7-5.21,4.41-8.64,4.8-3.43,.39-6.8-.57-9.51-2.71-2.7-2.15-4.41-5.22-4.8-8.64-.82-7.08,4.28-13.5,11.35-14.32Z"/><path d="M30.59,30.58c-.78,.78-.78,2.05,0,2.83,.39,.39,.9,.59,1.42,.59s1.02-.19,1.41-.58l13.56-13.52,7.55,.68c.06,0,.12,0,.18,0,.55,0,1.08-.23,1.46-.63l7.3-7.77c.55-.58,.69-1.43,.38-2.16-.32-.73-1.04-1.21-1.84-1.21h-6.86V2.04c0-.8-.47-1.52-1.2-1.83-.73-.32-1.58-.17-2.16,.37l-7.7,7.15c-.45,.42-.69,1.03-.63,1.65l.7,7.7-13.56,13.51ZM51.14,6.63v4.19c0,1.1,.9,2,2,2h4.24l-3.47,3.69-5.85-.53-.54-5.99,3.62-3.36Z"/></svg>