<?xml version="1.0" encoding="UTF-8"?>
<svg id="Layer_5" data-name="Layer 5" xmlns="http://www.w3.org/2000/svg" viewBox="0 0 64 64">
  <defs>
    <style>
      .cls-1 {
        stroke-width: 0px;
      }
    </style>
  </defs>
  <g>
    <path class="cls-1" d="M49.87,64c-1.11,0-2.01-.89-2.01-1.99s.9-1.99,2.01-1.99c3.14,0,5.69-2.62,5.69-5.84v-14.5c0-1.82.77-5.29,2.42-6.97.05-.05.11-.1.16-.15l.62-.51-.61-.47c-.07-.06-.14-.12-.21-.18-1.5-1.52-2.32-3.54-2.32-5.69v-15.8c0-3.26-2.58-5.91-5.76-5.91-1.11,0-2.01-.89-2.01-1.99s.9-1.99,2.01-1.99c5.39,0,9.78,4.44,9.78,9.9v15.8c0,1.04.4,2.06,1.09,2.82l2.48,1.91c.48.37.77.94.78,1.55s-.26,1.18-.73,1.57l-2.46,2.01c-.59.69-1.22,2.79-1.22,4.13v14.5c0,5.42-4.36,9.83-9.71,9.83Z"/>
    <path class="cls-1" d="M14.11,64c-5.46,0-9.9-4.41-9.9-9.83v-14.5c0-1.44-.58-3.42-1.17-4.01l-2.4-2.2C.22,33.08-.01,32.53,0,31.96c.01-.57.27-1.1.7-1.48l2.28-1.94c.75-.77,1.16-1.77,1.16-2.84v-15.8C4.14,4.44,8.61,0,14.11,0c1.11,0,2.01.89,2.01,1.99s-.9,1.99-2.01,1.99c-3.28,0-5.94,2.65-5.94,5.91v15.8c0,2.16-.85,4.18-2.38,5.71-.04.04-.07.07-.11.1l-.64.54.8.74c1.78,1.76,2.4,5.07,2.4,6.88v14.5c0,3.22,2.64,5.84,5.88,5.84,1.11,0,2.01.89,2.01,1.99s-.9,1.99-2.01,1.99Z"/>
  </g>
  <path class="cls-1" d="M26.64,45.1c-.29,0-.59-.06-.87-.2-1-.48-1.43-1.67-.95-2.66l10.72-22.2c.48-.99,1.68-1.41,2.68-.94,1,.48,1.43,1.67.95,2.66l-10.72,22.2c-.35.72-1.07,1.13-1.82,1.13Z"/>
  <path class="cls-1" d="M23.22,31.96c-.44,0-.89-.14-1.26-.44l-6.24-4.98c-.47-.38-.75-.95-.75-1.55s.28-1.18.75-1.55l6.24-4.98c.87-.69,2.13-.55,2.83.3.7.86.56,2.11-.31,2.8l-4.29,3.42,4.29,3.42c.87.69,1,1.95.31,2.8-.4.49-.98.74-1.57.74Z"/>
  <path class="cls-1" d="M40.88,45.86c-.59,0-1.17-.25-1.57-.74-.7-.86-.56-2.11.31-2.8l4.29-3.42-4.29-3.42c-.87-.69-1-1.95-.31-2.8.7-.86,1.96-1,2.83-.3l6.24,4.98c.48.38.75.95.75,1.55s-.28,1.18-.75,1.55l-6.24,4.98c-.37.3-.82.44-1.26.44Z"/>
</svg>