<?xml version="1.0" encoding="UTF-8"?><svg id="Layer_1" xmlns="http://www.w3.org/2000/svg" viewBox="0 0 63.7 64.21"><defs><style>.cls-1{fill:none;}</style></defs><ellipse class="cls-1" cx="31.85" cy="20.16" rx="7.19" ry="7.27"/><path class="cls-1" d="M55.48,39.5h-11.99c-2.17,0-3.92,1.8-3.99,4.11v12.04c0,2.23,1.79,4.05,3.99,4.05h11.99c2.2,0,3.99-1.82,3.99-4.05v-12.1c0-2.23-1.79-4.05-3.99-4.05Zm-5.79,10.68c-3.94,0-7-3.3-7-6.13,0-1.1,.9-2,2-2s2,.9,2,2c0,.53,1.21,2.13,3,2.13s2.99-1.52,2.99-2.13c0-1.1,.9-2,2-2s2,.9,2,2c0,2.84-3.06,6.13-6.99,6.13Z"/><path d="M31.9,.02C14.33,.02,.03,14.43,.03,32.16s13.06,30.96,29.74,32.03c.04,0,.09,0,.13,0,1.05,0,1.93-.81,1.99-1.87,.07-1.1-.76-2.05-1.87-2.12-5.42-.35-10.39-2.27-14.51-5.3v-7.92c0-4.47,3.34-7.98,7.61-7.98h8.74c1.1,0,2-.9,2-2s-.9-2-2-2h-8.74c-6.4,0-11.61,5.37-11.61,11.98v4.34c-4.65-5.04-7.49-11.79-7.49-19.16,0-15.52,12.5-28.14,27.87-28.14s26.83,11.58,27.77,26.35c.07,1.1,1.02,1.93,2.12,1.87,1.1-.07,1.94-1.02,1.87-2.12C62.59,13.24,48.64,.02,31.9,.02Z"/><path d="M43.04,20.16c0-6.22-5.02-11.27-11.19-11.27s-11.19,5.06-11.19,11.27,5.02,11.27,11.19,11.27,11.19-5.06,11.19-11.27Zm-11.19,7.27c-3.96,0-7.19-3.26-7.19-7.27s3.23-7.27,7.19-7.27,7.19,3.26,7.19,7.27-3.23,7.27-7.19,7.27Z"/><path d="M55.48,35.5h-11.99c-4.35,0-7.86,3.51-7.99,8.05v12.1c0,4.44,3.59,8.05,7.99,8.05h11.99c4.41,0,7.99-3.61,7.99-8.05v-12.1c0-4.44-3.59-8.05-7.99-8.05Zm3.99,20.14c0,2.23-1.79,4.05-3.99,4.05h-11.99c-2.2,0-3.99-1.82-3.99-4.05v-12.04c.07-2.3,1.82-4.11,3.99-4.11h11.99c2.2,0,3.99,1.82,3.99,4.05v12.1Z"/><path d="M54.68,42.05c-1.1,0-2,.9-2,2,0,.62-1.19,2.13-2.99,2.13s-3-1.6-3-2.13c0-1.1-.9-2-2-2s-2,.9-2,2c0,2.84,3.06,6.13,7,6.13s6.99-3.3,6.99-6.13c0-1.1-.9-2-2-2Z"/></svg>