<?xml version="1.0" encoding="UTF-8"?><svg id="Layer_1" xmlns="http://www.w3.org/2000/svg" viewBox="0 0 64 64"><defs><style>.cls-1{fill:none;}</style></defs><path class="cls-1" d="M58.85,43.69l-7.62-4.47c-.23-.14-.52-.21-.81-.21s-.58,.07-.81,.21l-7.67,4.41c-.47,.28-.82,.9-.82,1.48v8.81c0,.58,.35,1.2,.83,1.49l7.66,4.5c.53,.29,1.18,.29,1.77-.03l7.6-4.46c.48-.28,.84-.91,.84-1.49v-8.72c0-.57-.36-1.14-.97-1.51Zm-8.43,12.23c-3.46,0-6.28-2.83-6.28-6.31s2.82-6.31,6.28-6.31,6.28,2.83,6.28,6.31-2.82,6.31-6.28,6.31Z"/><ellipse class="cls-1" cx="50.43" cy="49.61" rx="2.28" ry="2.31"/><path d="M55.85-.11H8.15C3.74-.11,.15,3.5,.15,7.94V55.99c0,4.44,3.59,8.06,8,8.06H29.55c1.1,0,2-.9,2-2s-.9-2-2-2H8.15c-2.21,0-4-1.82-4-4.06V7.94c0-2.24,1.79-4.06,4-4.06H55.85c2.21,0,4,1.82,4,4.06V29.74c0,1.1,.9,2,2,2s2-.9,2-2V7.94C63.85,3.5,60.26-.11,55.85-.11Z"/><path d="M17.09,21.95h14.5c1.1,0,2-.9,2-2s-.9-2-2-2h-14.5c-1.1,0-2,.9-2,2s.9,2,2,2Z"/><path d="M43.05,31.98c0-1.1-.9-2-2-2H17.09c-1.1,0-2,.9-2,2s.9,2,2,2h23.96c1.1,0,2-.9,2-2Z"/><path d="M17.09,41.87c-1.1,0-2,.9-2,2s.9,2,2,2h11.9c1.1,0,2-.9,2-2s-.9-2-2-2h-11.9Z"/><path d="M60.92,40.27l-7.66-4.5c-1.72-1.01-3.95-1.01-5.66,0l-7.67,4.41c-1.71,1-2.81,2.94-2.81,4.94v8.81c0,2,1.1,3.93,2.81,4.94l7.72,4.53c.88,.47,1.83,.71,2.8,.71s1.98-.25,2.9-.75l7.66-4.5c1.71-1,2.81-2.94,2.81-4.94v-8.72c0-1.97-1.07-3.8-2.9-4.94Zm-1.1,13.65c0,.58-.35,1.2-.84,1.49l-7.6,4.46c-.59,.32-1.24,.32-1.77,.03l-7.66-4.5c-.48-.28-.83-.91-.83-1.49v-8.81c0-.58,.35-1.2,.82-1.48l7.67-4.41c.23-.14,.52-.21,.81-.21s.58,.07,.81,.21l7.62,4.47c.61,.38,.97,.94,.97,1.51v8.72Z"/><path d="M50.43,43.3c-3.46,0-6.28,2.83-6.28,6.31s2.82,6.31,6.28,6.31,6.28-2.83,6.28-6.31-2.82-6.31-6.28-6.31Zm0,8.62c-1.26,0-2.28-1.04-2.28-2.31s1.02-2.31,2.28-2.31,2.28,1.04,2.28,2.31-1.02,2.31-2.28,2.31Z"/></svg>