<?xml version="1.0" encoding="UTF-8"?><svg id="Layer_1" xmlns="http://www.w3.org/2000/svg" viewBox="0 0 64 64"><defs><style>.cls-1{fill:none;}.cls-2{fill:#1d1d1b;}</style></defs><path class="cls-1" d="m57.45,24.94c-.12-.03-.23-.07-.33-.12-.15-.06-1.5-.59-3.04.14v5.72c0,1.1-.9,2-2,2s-2-.9-2-2v-6.51c-.17-.6-1-2.91-3.63-3.08-.05,0-.09,0-.14-.01-.84-.1-2.11.02-2.67.41v9.19c0,1.1-.9,2-2,2s-2-.9-2-2v-9.06c-.71-.63-2.22-1.69-4.34-1.69-1.68,0-2.51.4-2.89.67v10.58c0,1.1-.9,2-2,2s-2-.9-2-2v-11.14s-.01-.07-.01-.11l-.47-14.15c-.03-.57-.36-1.85-2.86-1.85s-3.21,1.26-3.34,1.71l.05,33.48c0,.75-.42,1.44-1.09,1.79-.67.34-1.48.28-2.08-.17-.07-.05-5.12-3.67-9.52-3.67-1.65,0-3.21.51-4.39,1.91-.27.32-.42.61-.4.76.17,1,3.25,2.78,5.49,4.07,4.22,2.44,9.46,5.48,11.67,10.39.79,1.77,4.67,4.07,11.53,5.22,9.1,1.53,18.26.23,21.33-3.03.09-.09.18-.18.29-.25.18-.13,4.75-3.67,4.91-12.85.02-1.11.05-2.23.08-3.34.16-6.06.39-14.35-2.15-15.02Z"/><g><path class="cls-1" d="m29.13,50.4c-3.62,0-6.95-1.25-9.6-3.34l-6.73,6.83c4.39,3.77,10.1,6.06,16.33,6.06,12.31,0,22.85-9.13,24.78-21.11l-9.41-1.63c-1.13,7.46-7.6,13.19-15.37,13.19Z"/><path class="cls-1" d="m16.74,44.21c-1.98-2.61-3.16-5.85-3.16-9.36,0-7.9,5.92-14.44,13.56-15.42v-9.61c-12.91,1.02-23.11,11.86-23.11,25.03,0,6.18,2.25,11.84,5.96,16.21l6.75-6.85Z"/><path class="cls-1" d="m39.14,4.04v8.5c6.47.9,11.59,6.11,12.35,12.62l8.54,1.48c-.1-11.86-9.27-21.59-20.89-22.6Z"/><path class="cls-2" d="m37.14-.05c-1.1,0-2,.9-2,2v12.44c0,1.1.9,2,2,2,5.76,0,10.45,4.69,10.45,10.46,0,.97.7,1.8,1.66,1.97l12.34,2.14c.11.02.23.03.34.03.44,0,.86-.14,1.22-.41.44-.34.72-.85.78-1.4.07-.78.11-1.55.11-2.34C64.03,12.01,51.96-.05,37.14-.05Zm14.35,25.21c-.76-6.52-5.87-11.72-12.35-12.62V4.04c11.62,1.01,20.79,10.75,20.89,22.6l-8.54-1.48Z"/><path class="cls-2" d="m56.47,35.22l-13.45-2.33c-.58-.1-1.18.06-1.63.44-.45.38-.71.94-.71,1.53,0,6.36-5.18,11.53-11.55,11.53s-11.56-5.19-11.56-11.56,5.19-11.55,11.56-11.55c1.1,0,2-.9,2-2V7.74c0-1.1-.9-2-2-2C13.08,5.74.03,18.79.03,34.84s13.06,29.11,29.11,29.11c14.98,0,27.71-11.68,28.99-26.59.09-1.03-.63-1.96-1.65-2.14Zm-52.44-.38c0-13.17,10.2-24.01,23.11-25.03v9.61c-7.64.98-13.56,7.52-13.56,15.42,0,3.52,1.19,6.75,3.16,9.36l-6.75,6.85c-3.71-4.38-5.96-10.04-5.96-16.21Zm25.11,25.11c-6.23,0-11.93-2.29-16.33-6.06l6.73-6.83c2.65,2.08,5.98,3.34,9.6,3.34,7.78,0,14.24-5.73,15.37-13.19l9.41,1.63c-1.92,11.98-12.47,21.11-24.78,21.11Z"/></g></svg>