<?xml version="1.0" encoding="UTF-8"?>
<svg id="Layer_5" data-name="Layer 5" xmlns="http://www.w3.org/2000/svg" viewBox="0 0 64 64">
  <defs>
    <style>
      .cls-1 {
        stroke-width: 0px;
      }
    </style>
  </defs>
  <path class="cls-1" d="M30.14,60.03c-5.43-.35-10.42-2.28-14.55-5.31v-7.97c0-4.43,3.47-7.9,7.9-7.9h14.57c1.1,0,2-.9,2-2s-.9-2-2-2h-14.57c-6.56,0-11.9,5.34-11.9,11.9v4.39c-4.64-5.03-7.47-11.75-7.47-19.09C4.13,16.53,16.63,3.91,32,3.91s26.83,11.58,27.77,26.35c.07,1.1,1.02,1.96,2.12,1.87,1.1-.07,1.94-1.02,1.87-2.12C62.69,13.13,48.74-.09,32-.09,14.43-.09.13,14.33.13,32.05s13.07,30.89,29.76,31.97c.04,0,.09,0,.13,0,1.05,0,1.93-.81,1.99-1.87.07-1.1-.76-2.05-1.87-2.12Z"/>
  <path class="cls-1" d="M20.75,20.15c0,6.18,5.02,11.2,11.2,11.2s11.2-5.02,11.2-11.2-5.02-11.2-11.2-11.2-11.2,5.02-11.2,11.2ZM39.15,20.15c0,3.97-3.23,7.2-7.2,7.2s-7.2-3.23-7.2-7.2,3.23-7.2,7.2-7.2,7.2,3.23,7.2,7.2Z"/>
  <path class="cls-1" d="M60.74,37.93c-2.08-2.07-4.87-3.15-7.78-3.07-4.47.13-8.41,3.15-9.8,7.52-.44,1.39-.58,2.82-.41,4.27l-5.94,5.94c-.27.27-.45.6-.54.97l-1.58,6.92c-.23,1,.07,2.03.8,2.75.56.56,1.31.86,2.08.86.22,0,.45-.03.68-.08l6.98-1.62c.36-.08.7-.27.96-.53l5.89-5.89c1.47.17,2.92.03,4.32-.43,4.37-1.42,7.37-5.38,7.47-9.85.07-2.94-1.04-5.69-3.13-7.76ZM55.16,51.73c-1.08.35-2.17.4-3.33.14-.67-.15-1.37.05-1.85.54l-6.21,6.21-4.8,1.12,1.08-4.73,6.26-6.26c.48-.48.69-1.18.54-1.85-.26-1.15-.22-2.23.13-3.3.86-2.71,3.37-4.65,6.1-4.73,1.83-.03,3.55.62,4.85,1.91s1.99,3,1.95,4.83c-.06,2.73-2,5.26-4.71,6.14Z"/>
  <circle class="cls-1" cx="53.3" cy="45.47" r="2"/>
</svg>