<?xml version="1.0" encoding="UTF-8"?>
<svg id="Layer_5" data-name="Layer 5" xmlns="http://www.w3.org/2000/svg" viewBox="0 0 64 64">
  <defs>
    <style>
      .cls-1 {
        stroke-width: 0px;
      }
    </style>
  </defs>
  <path class="cls-1" d="M44,63.91h-27.89c-8.88,0-16.1-7.15-16.1-15.94v-27.99c0-1.1.9-1.99,2.01-1.99s2.01.89,2.01,1.99v27.99c0,6.59,5.42,11.96,12.08,11.96h27.89c1.11,0,2.01.89,2.01,1.99s-.9,1.99-2.01,1.99Z"/>
  <g>
    <ellipse class="cls-1" cx="19.91" cy="43.81" rx="2.14" ry="2.12"/>
    <path class="cls-1" d="M32,45.94c-1.11,0-2.01-.89-2.01-1.99,0-3.44-.93-6.03-2.76-7.7-2.85-2.6-7.1-2.28-7.14-2.28-1.11.09-2.08-.72-2.17-1.81-.1-1.09.71-2.06,1.82-2.16.24-.02,6-.5,10.19,3.28,2.72,2.46,4.1,6.04,4.1,10.67,0,1.1-.9,1.99-2.01,1.99Z"/>
    <path class="cls-1" d="M44,45.8c-1.11,0-2.01-.89-2.01-1.99,0-7.17-2.03-12.69-6.02-16.41-6.38-5.93-15.82-5.41-15.92-5.41-1.1.07-2.06-.76-2.14-1.86-.07-1.1.76-2.04,1.87-2.12.46-.03,11.23-.66,18.91,6.45,4.86,4.5,7.32,11.01,7.32,19.34,0,1.1-.9,1.99-2.01,1.99Z"/>
  </g>
  <path class="cls-1" d="M61.99,45.8c-1.11,0-2.01-.89-2.01-1.99V15.9c0-6.57-5.43-11.92-12.11-11.92h-27.95c-1.11,0-2.01-.89-2.01-1.99s.9-1.99,2.01-1.99h27.95c8.9,0,16.13,7.13,16.13,15.9v27.9c0,1.1-.9,1.99-2.01,1.99Z"/>
</svg>