<svg xmlns="http://www.w3.org/2000/svg" viewBox="0 0 24 24" width="24" height="24">
  <path d="M2 0l1.818 20.364L12 24l8.182-3.636L22 0H2z" fill="#E44D26"/>
  <path d="M12 2.4v19.2l6.545-2.91L20 2.4H12z" fill="#F16529"/>
  <path d="M7.2 9.6L7.6 13.2H12v-3.6H7.2zM6.8 6H12V2.4H6.4L6.8 6zM12 18.96l-.04.01-3.32-.9-.21-2.47H5.6l.42 4.74L12 22.08v-3.12z" fill="#EBEBEB"/>
  <path d="M12 13.2h4.4l-.4 4.38-4 1.08v3.12l5.96-1.65.04-.52.68-7.61.08-.8H12v3.6zM12 6h5.2l.08-.8.16-1.8.08-1H12V6z" fill="#fff"/>
</svg>
