<?xml version="1.0" encoding="UTF-8"?><svg id="Layer_1" xmlns="http://www.w3.org/2000/svg" viewBox="0 0 63.7 64.21"><defs><style>.cls-1{fill:none;}</style></defs><path class="cls-1" d="M28.69,22.11h6.31c1.08,0,1.97-.9,1.97-2s-.89-2-1.97-2h-6.31c-1.08,0-1.97,.9-1.97,2s.89,2,1.97,2Z"/><path class="cls-1" d="M40.92,52.38c.99,0,1.87-.9,1.87-2V15.29c0-6.11-4.93-11.13-10.95-11.13s-10.95,5.01-10.95,11.13V50.28c0,1.2,.89,2.11,2.07,2.11h17.95Zm-12.42-11.63h-2.27c-1.08,0-1.97-.9-1.97-2s.89-2,1.97-2h2.27c1.08,0,1.97,.9,1.97,2s-.89,2-1.97,2Zm0-6.11h-2.27c-1.08,0-1.97-.9-1.97-2s.89-2,1.97-2h2.27c1.08,0,1.97,.9,1.97,2s-.89,2-1.97,2Zm8.97,6.11h-2.27c-1.08,0-1.97-.9-1.97-2s.89-2,1.97-2h2.27c1.08,0,1.97,.9,1.97,2s-.89,2-1.97,2Zm0-6.11h-2.27c-1.08,0-1.97-.9-1.97-2s.89-2,1.97-2h2.27c1.08,0,1.97,.9,1.97,2s-.89,2-1.97,2ZM28.69,14.09h6.31c3.25,0,5.92,2.71,5.92,6.01s-2.66,6.01-5.92,6.01h-6.31c-3.25,0-5.92-2.71-5.92-6.01s2.66-6.01,5.92-6.01Z"/><path d="M40.92,56.39c3.25,0,5.82-2.71,5.82-6.01V19l.1-16.84c0-1.1-.89-2-1.97-2s-1.97,.9-1.97,2l-.02,3.02C40.15,2.11,36.21,.16,31.85,.16c-8.18,0-14.89,6.82-14.89,15.14V50.28c0,3.41,2.66,6.11,6.02,6.11h17.95Zm-20.02-6.11V15.29c0-6.11,4.93-11.13,10.95-11.13s10.95,5.01,10.95,11.13V50.38c0,1.1-.89,2-1.87,2H22.98c-1.18,0-2.07-.9-2.07-2.11Z"/><path d="M28.69,26.12h6.31c3.25,0,5.92-2.71,5.92-6.01s-2.66-6.01-5.92-6.01h-6.31c-3.25,0-5.92,2.71-5.92,6.01s2.66,6.01,5.92,6.01Zm0-8.02h6.31c1.08,0,1.97,.9,1.97,2s-.89,2-1.97,2h-6.31c-1.08,0-1.97-.9-1.97-2s.89-2,1.97-2Z"/><path d="M37.47,30.63h-2.27c-1.08,0-1.97,.9-1.97,2s.89,2,1.97,2h2.27c1.08,0,1.97-.9,1.97-2s-.89-2-1.97-2Z"/><path d="M37.47,36.75h-2.27c-1.08,0-1.97,.9-1.97,2s.89,2,1.97,2h2.27c1.08,0,1.97-.9,1.97-2s-.89-2-1.97-2Z"/><path d="M28.5,30.63h-2.27c-1.08,0-1.97,.9-1.97,2s.89,2,1.97,2h2.27c1.08,0,1.97-.9,1.97-2s-.89-2-1.97-2Z"/><path d="M28.5,36.75h-2.27c-1.08,0-1.97,.9-1.97,2s.89,2,1.97,2h2.27c1.08,0,1.97-.9,1.97-2s-.89-2-1.97-2Z"/><path d="M55.52,41.36h-4.44c-1.08,0-1.97,.9-1.97,2s.89,2,1.97,2h4.44c2.37,0,4.24,1.8,4.24,4.01v6.82c0,2.21-1.87,4.01-4.24,4.01H8.18c-2.37,0-4.24-1.8-4.24-4.01v-6.82c0-2.21,1.87-4.01,4.24-4.01h4.34c1.08,0,1.97-.9,1.97-2s-.89-2-1.97-2h-4.34C3.65,41.36,0,44.97,0,49.38v6.82C0,60.6,3.65,64.21,8.18,64.21H55.52c4.54,0,8.18-3.61,8.18-8.02v-6.82c0-4.41-3.65-8.02-8.18-8.02Z"/></svg>