<?xml version="1.0" encoding="UTF-8"?><svg id="Layer_1" xmlns="http://www.w3.org/2000/svg" viewBox="0 0 64 64"><path d="M8.12,50.54c1.09,.21,2.13-.5,2.35-1.58,.99-5.03,5.43-8.68,10.57-8.68s9.67,3.71,10.59,8.83c.17,.97,1.02,1.64,1.97,1.64,.12,0,.24,0,.36-.03,1.09-.2,1.81-1.24,1.61-2.32-1.01-5.59-5.09-9.95-10.32-11.5,2.67-1.4,4.51-4.2,4.51-7.42,0-4.62-3.76-8.37-8.37-8.37s-8.37,3.76-8.37,8.37c0,3.12,1.72,5.85,4.27,7.29-5.36,1.42-9.63,5.79-10.73,11.42-.21,1.08,.49,2.13,1.58,2.35Zm13.26-25.43c2.41,0,4.37,1.96,4.37,4.37s-1.96,4.37-4.37,4.37-4.37-1.96-4.37-4.37,1.96-4.37,4.37-4.37Z"/><path d="M37.12,24.88h.54v3.03c0,.8,.47,1.52,1.21,1.83,.26,.11,.53,.17,.79,.17,.5,0,.99-.19,1.37-.54l4.79-4.49h7.82c1.59,0,2.89-1.3,2.89-2.89V10.5c0-1.59-1.3-2.89-2.89-2.89h-16.52c-1.59,0-2.89,1.3-2.89,2.89v11.49c0,1.59,1.3,2.89,2.89,2.89Zm1.11-13.26h14.29v9.26h-7.5c-.51,0-1,.19-1.37,.54l-2,1.87v-.42c0-1.1-.9-2-2-2h-1.43V11.61Z"/><path d="M8.33,57.07H55.74c4.41,0,8-3.59,8-8V8.2C63.74,3.79,60.15,.2,55.74,.2H8.33C3.92,.2,.33,3.79,.33,8.2V49.07c0,4.41,3.59,8,8,8ZM4.33,8.2c0-2.21,1.79-4,4-4H55.74c2.21,0,4,1.79,4,4V49.07c0,2.21-1.79,4-4,4H8.33c-2.21,0-4-1.79-4-4V8.2Z"/><path d="M61.97,59.8H2.03c-1.1,0-2,.9-2,2s.9,2,2,2H61.97c1.1,0,2-.9,2-2s-.9-2-2-2Z"/></svg>