<?xml version="1.0" encoding="UTF-8"?>
<svg id="Layer_5" data-name="Layer 5" xmlns="http://www.w3.org/2000/svg" viewBox="0 0 64 64">
  <defs>
    <style>
      .cls-1 {
        fill: #000;
        stroke-width: 0px;
      }
    </style>
  </defs>
  <g>
    <path class="cls-1" d="M32,31.45c-8.71,0-15.8-7.05-15.8-15.72S23.28,0,32,0s15.8,7.05,15.8,15.73-7.09,15.72-15.8,15.72ZM32,4c-6.51,0-11.8,5.26-11.8,11.73s5.29,11.72,11.8,11.72,11.8-5.26,11.8-11.72-5.29-11.73-11.8-11.73Z"/>
    <path class="cls-1" d="M2,63.73C.9,63.73,0,62.84,0,61.73v-7.67C0,43.96,8.5,35.74,18.96,35.74h4.35c1.1,0,2,.9,2,2s-.9,2-2,2h-4.35c-8.25,0-14.96,6.43-14.96,14.33v7.67c0,1.1-.9,2-2,2Z"/>
  </g>
  <path class="cls-1" d="M52.37,50.87h-4.71c-1.1,0-2-.9-2-2v-6.01c0-1.1.9-2,2-2s2,.9,2,2v4.01h2.71c1.1,0,2,.9,2,2s-.9,2-2,2Z"/>
  <path class="cls-1" d="M63.75,45.13c-.75-4.18-3.09-7.81-6.6-10.23-7.25-4.99-17.29-3.17-22.38,4.06-.21.3-.41.61-.6.93l-.23-1.28c-.19-1.09-1.23-1.81-2.32-1.62-1.09.19-1.81,1.23-1.62,2.32l1.38,7.8c.11.6.48,1.12,1.02,1.41.29.16.62.24.95.24.27,0,.54-.05.8-.17l6.21-2.7c1.01-.44,1.48-1.62,1.04-2.63-.44-1.01-1.62-1.48-2.63-1.04l-1.75.76c.29-.6.62-1.17,1.01-1.72,3.83-5.44,11.39-6.82,16.84-3.07,2.62,1.8,4.37,4.52,4.93,7.64.56,3.15-.15,6.34-2.01,8.98-3.83,5.44-11.39,6.82-16.84,3.07-1.05-.72-1.97-1.6-2.73-2.61-.67-.88-1.92-1.05-2.8-.39-.88.67-1.05,1.92-.39,2.8,1.02,1.35,2.25,2.52,3.65,3.49,2.76,1.9,5.93,2.81,9.08,2.81,5.1,0,10.15-2.4,13.3-6.88,2.48-3.52,3.43-7.78,2.68-11.99Z"/>
</svg>