<?xml version="1.0" encoding="UTF-8"?><svg id="Layer_1" xmlns="http://www.w3.org/2000/svg" viewBox="0 0 63.64 64.18"><defs><style>.cls-1{fill:none;}</style></defs><path class="cls-1" d="M4,53.78c0,3.63,3.01,6.48,6.84,6.48H52.8c3.84,0,6.84-2.84,6.84-6.48V22.14H4v31.64Zm48.66-2.05h-7.53c-1.1,0-2-.9-2-2s.9-2,2-2h7.53c1.1,0,2,.9,2,2s-.9,2-2,2Zm-7.56-21.56h7.53c1.1,0,2,.9,2,2s-.9,2-2,2h-7.53c-1.1,0-2-.9-2-2s.9-2,2-2Zm-9.5,21.56h-7.53c-1.1,0-2-.9-2-2s.9-2,2-2h7.53c1.1,0,2,.9,2,2s-.9,2-2,2Zm-7.56-21.56h7.53c1.1,0,2,.9,2,2s-.9,2-2,2h-7.53c-1.1,0-2-.9-2-2s.9-2,2-2Zm-9.5,21.56h-7.53c-1.1,0-2-.9-2-2s.9-2,2-2h7.53c1.1,0,2,.9,2,2s-.9,2-2,2Zm-7.56-21.56h7.53c1.1,0,2,.9,2,2s-.9,2-2,2h-7.53c-1.1,0-2-.9-2-2s.9-2,2-2Z"/><path class="cls-1" d="M52.8,7.09h-4.64v3.91c0,1.1-.9,2-2,2s-2-.9-2-2v-3.91h-10.32v3.91c0,1.1-.9,2-2,2s-2-.9-2-2v-3.91h-10.54v3.91c0,1.1-.9,2-2,2s-2-.9-2-2v-3.91h-4.45c-3.84,0-6.84,2.84-6.84,6.48v4.58H59.64v-4.58c0-3.63-3.01-6.48-6.84-6.48Z"/><path d="M52.8,3.09h-4.64V1.92c0-1.1-.9-2-2-2s-2,.9-2,2v1.17h-10.32V1.92c0-1.1-.9-2-2-2s-2,.9-2,2v1.17h-10.54V1.92c0-1.1-.9-2-2-2s-2,.9-2,2v1.17h-4.45C4.86,3.09,0,7.79,0,13.57V53.78C0,59.56,4.86,64.26,10.84,64.26H52.8c5.98,0,10.84-4.7,10.84-10.48V13.57c0-5.78-4.86-10.48-10.84-10.48Zm6.84,50.69c0,3.63-3.01,6.48-6.84,6.48H10.84c-3.84,0-6.84-2.84-6.84-6.48V22.14H59.64v31.64Zm0-35.64H4v-4.58c0-3.63,3.01-6.48,6.84-6.48h4.45v3.91c0,1.1,.9,2,2,2s2-.9,2-2v-3.91h10.54v3.91c0,1.1,.9,2,2,2s2-.9,2-2v-3.91h10.32v3.91c0,1.1,.9,2,2,2s2-.9,2-2v-3.91h4.64c3.84,0,6.84,2.84,6.84,6.48v4.58Z"/><path d="M10.98,34.17h7.53c1.1,0,2-.9,2-2s-.9-2-2-2h-7.53c-1.1,0-2,.9-2,2s.9,2,2,2Z"/><path d="M18.54,47.73h-7.53c-1.1,0-2,.9-2,2s.9,2,2,2h7.53c1.1,0,2-.9,2-2s-.9-2-2-2Z"/><path d="M28.04,34.17h7.53c1.1,0,2-.9,2-2s-.9-2-2-2h-7.53c-1.1,0-2,.9-2,2s.9,2,2,2Z"/><path d="M35.6,47.73h-7.53c-1.1,0-2,.9-2,2s.9,2,2,2h7.53c1.1,0,2-.9,2-2s-.9-2-2-2Z"/><path d="M45.1,34.17h7.53c1.1,0,2-.9,2-2s-.9-2-2-2h-7.53c-1.1,0-2,.9-2,2s.9,2,2,2Z"/><path d="M52.66,47.73h-7.53c-1.1,0-2,.9-2,2s.9,2,2,2h7.53c1.1,0,2-.9,2-2s-.9-2-2-2Z"/></svg>