<?xml version="1.0" encoding="UTF-8"?>
<svg id="Layer_3" data-name="Layer 3" xmlns="http://www.w3.org/2000/svg" viewBox="0 0 64 64">
  <defs>
    <style>
      .cls-1 {
        fill: #000;
        stroke-width: 0px;
      }
    </style>
  </defs>
  <g>
    <path class="cls-1" d="M30.7,17.63H11.69c-1.1,0-1.99-.89-1.99-2s.89-2,1.99-2h19.02c1.1,0,1.99.89,1.99,2s-.89,2-1.99,2Z"/>
    <path class="cls-1" d="M23.2,27.09h-11.51c-1.1,0-1.99-.89-1.99-2s.89-2,1.99-2h11.51c1.1,0,1.99.89,1.99,2s-.89,2-1.99,2Z"/>
    <path class="cls-1" d="M29.87,63.9H7.95c-4.39,0-7.95-3.58-7.95-7.99V7.99C0,3.58,3.57,0,7.95,0h41.83c4.39,0,7.95,3.58,7.95,7.99v14.02c0,1.1-.89,2-1.99,2s-1.99-.89-1.99-2V7.99c0-2.2-1.78-3.99-3.98-3.99H7.95c-2.19,0-3.98,1.79-3.98,3.99v47.93c0,2.2,1.78,3.99,3.98,3.99h21.92c1.1,0,1.99.89,1.99,2s-.89,2-1.99,2Z"/>
  </g>
  <g>
    <path class="cls-1" d="M59.9,42.73v-3.36c0-4.81-3.9-8.73-8.69-8.73s-8.69,3.91-8.69,8.73v3.36c-2.29.23-4.1,2.15-4.1,4.52v12.19c0,2.51,2.04,4.56,4.54,4.56h16.49c2.5,0,4.54-2.05,4.54-4.56v-12.19c0-2.36-1.8-4.29-4.1-4.52ZM46.5,39.37c0-2.61,2.11-4.73,4.71-4.73s4.71,2.12,4.71,4.73v3.32h-9.43v-3.32ZM60.02,59.44c0,.31-.25.57-.56.57h-16.49c-.31,0-.56-.25-.56-.57v-12.19c0-.31.25-.57.56-.57h16.49c.31,0,.56.25.56.57v12.19Z"/>
    <path class="cls-1" d="M51,50.48c-1.1,0-1.99.89-1.99,2v1.74c0,1.1.89,2,1.99,2s1.99-.89,1.99-2v-1.74c0-1.1-.89-2-1.99-2Z"/>
  </g>
</svg>