<?xml version="1.0" encoding="UTF-8"?><svg id="Layer_1" xmlns="http://www.w3.org/2000/svg" viewBox="0 0 64 64"><defs><style>.cls-1{fill:#1d1d1b;}</style></defs><path class="cls-1" d="m43.91,45.45c2.21,0,4-1.79,4-4v-19.57c0-2.21-1.79-4-4-4h-2.9v-.47c0-1.1-.9-2-2-2s-2,.9-2,2v.47h-3.03v-.47c0-1.1-.9-2-2-2s-2,.9-2,2v.47h-3.03v-.49c0-1.1-.9-2-2-2s-2,.9-2,2v.49h-2.73c-2.21,0-4,1.79-4,4v19.57c0,2.21,1.79,4,4,4h23.69Zm-23.69-23.57h2.73v.61c0,1.1.9,2,2,2s2-.9,2-2v-.61h3.03v.63c0,1.1.9,2,2,2s2-.9,2-2v-.63h3.03v.63c0,1.1.9,2,2,2s2-.9,2-2v-.63h2.9v19.57s-23.69,0-23.69,0v-19.57Z"/><path class="cls-1" d="m39.43,29.05h-14.76c-1.1,0-2,.9-2,2s.9,2,2,2h14.76c1.1,0,2-.9,2-2s-.9-2-2-2Z"/><path class="cls-1" d="m54.68,9.54l2.62-.2c1.1-.08,1.93-1.04,1.84-2.14s-1.04-1.93-2.14-1.84l-6.85.52c-.95.07-1.71.8-1.83,1.74l-.88,6.72c-.14,1.1.63,2.1,1.73,2.24.09.01.17.02.26.02.99,0,1.85-.73,1.98-1.74l.34-2.59c5.23,5.22,8.18,12.25,8.18,19.75,0,15.39-12.52,27.92-27.92,27.92-3.93,0-7.73-.8-11.29-2.38-1.01-.45-2.19,0-2.64,1.02-.45,1.01,0,2.19,1.02,2.64,4.08,1.81,8.42,2.72,12.91,2.72,17.6,0,31.92-14.32,31.92-31.92,0-8.51-3.33-16.51-9.24-22.46Z"/><path class="cls-1" d="m12.08,42.7c-1.07-.25-2.15.42-2.4,1.49l-.8,3.41c-3.1-4.59-4.8-10.01-4.8-15.61,0-15.39,12.52-27.92,27.92-27.92,2.14,0,4.28.24,6.34.72,1.07.25,2.15-.42,2.4-1.5.25-1.08-.42-2.15-1.5-2.4-2.36-.55-4.8-.83-7.25-.83C14.4.08.08,14.4.08,32c0,6.31,1.88,12.45,5.34,17.66l-2.63-.07c-1.09-.03-2.02.84-2.05,1.95-.03,1.1.84,2.02,1.95,2.05l7.22.18s.03,0,.05,0c.93,0,1.73-.64,1.95-1.54l1.67-7.13c.25-1.08-.42-2.15-1.49-2.4Z"/></svg>