<?xml version="1.0" encoding="UTF-8"?><svg id="Layer_1" xmlns="http://www.w3.org/2000/svg" viewBox="0 0 63.7 64.21"><defs><style>.cls-1{fill:none;}.cls-2{fill:#1d1d1b;}</style></defs><path class="cls-1" d="M59.5,19.29c-5.8,4.16-17.04,6.35-27.82,6.35s-22.02-2.19-27.82-6.35v8.14c3.55,3.33,13.45,6.72,27.82,6.72s24.26-3.39,27.82-6.72v-8.14Z"/><path class="cls-1" d="M31.68,21.64c17.24,0,27.82-5.13,27.82-8.81S48.91,4.02,31.68,4.02,3.86,9.15,3.86,12.83s10.58,8.81,27.82,8.81Z"/><path class="cls-1" d="M47.5,52.29h11.79c.31,0,.55,.25,.55,.55v6.8c0,.31-.25,.55-.55,.55h-11.79c-.31,0-.55-.25-.55-.55v-6.8c0-.31,.25-.55,.55-.55Z"/><path class="cls-1" d="M56.29,48.29v-1.6c0-1.76-1.42-3.19-3.18-3.19s-3.18,1.43-3.18,3.19v1.6h6.35Z"/><path class="cls-2" d="M5.1,46.81c.11,.06,.23,.11,.35,.17,.36,.18,.73,.36,1.11,.53,.18,.08,.36,.16,.54,.23,.35,.15,.7,.29,1.06,.43,.19,.07,.38,.15,.58,.22,.4,.15,.81,.29,1.23,.43,.16,.05,.32,.11,.49,.16,.59,.19,1.19,.37,1.81,.54,.12,.03,.24,.06,.36,.09,.51,.14,1.04,.27,1.57,.4,.22,.05,.45,.1,.67,.15,.45,.1,.91,.2,1.38,.29,.24,.05,.48,.1,.73,.14,.49,.09,.99,.18,1.5,.26,.21,.03,.42,.07,.64,.1,.72,.11,1.45,.21,2.2,.3,.08,.01,.17,.02,.25,.03,.67,.08,1.34,.15,2.02,.21,.25,.02,.5,.04,.75,.06,.53,.04,1.07,.09,1.61,.12,.28,.02,.56,.03,.84,.05,.55,.03,1.11,.05,1.68,.07,.25,0,.5,.02,.76,.03,.81,.02,1.63,.04,2.46,.04,1.01,0,2.01-.02,3.02-.05,.34-.01,.68-.03,1.03-.05,.52-.02,1.04-.04,1.56-.07,.03,0,.06-.01,.1-.02,.22-.01,.46-.02,.68-.04,1.1-.08,1.93-1.04,1.85-2.14-.08-1.1-1.04-1.91-2.14-1.85-.75,.06-1.52,.09-2.28,.12-.3,.01-.6,.03-.91,.04-.96,.03-1.93,.05-2.89,.05s-1.82-.01-2.71-.04c-.3,0-.59-.03-.88-.04-.58-.02-1.15-.05-1.71-.08-.34-.02-.66-.05-.99-.07-.5-.04-1-.07-1.49-.12-.34-.03-.67-.07-1-.11-.46-.05-.92-.1-1.36-.15-.33-.04-.66-.09-.98-.14-.42-.06-.85-.12-1.26-.18-.32-.05-.63-.11-.94-.16-.39-.07-.79-.14-1.17-.21-.3-.06-.6-.12-.89-.19-.37-.08-.74-.16-1.09-.24-.28-.07-.56-.14-.84-.21-.35-.09-.69-.18-1.02-.27-.26-.07-.52-.15-.78-.22-.32-.09-.64-.19-.94-.29-.25-.08-.49-.16-.72-.24-.29-.1-.58-.2-.86-.31-.22-.08-.44-.17-.66-.25-.27-.11-.53-.22-.79-.33-.2-.09-.4-.17-.6-.26-.24-.11-.48-.22-.7-.34-.18-.09-.36-.18-.53-.27-.22-.12-.42-.23-.62-.35-.16-.09-.32-.18-.47-.28-.19-.12-.36-.24-.54-.35-.14-.09-.28-.19-.4-.28-.16-.12-.31-.24-.45-.36-.11-.09-.23-.19-.33-.28-.03-.03-.06-.06-.09-.09v-8.77c5.94,3.57,16.18,5.76,27.82,5.76s21.88-2.19,27.82-5.76v5.85c0,1.1,.9,2,2,2s2-.9,2-2V13.12s0-.07-.01-.11c0-.06,.01-.12,.01-.18C63.5,4.51,47.1,.02,31.68,.02S-.14,4.51-.14,12.83c0,.06,0,.12,.01,.18,0,.04-.01,.07-.01,.11V49.66c0,4.49,2.94,8.61,7.48,10.5,6.18,2.56,15.05,4.03,24.33,4.03,1.99,0,3.98-.07,5.94-.2,1.1-.07,1.94-1.03,1.86-2.13-.07-1.1-1.01-1.95-2.13-1.86-1.87,.13-3.77,.19-5.67,.19-8.78,0-17.09-1.36-22.8-3.73-3.05-1.26-5.02-3.94-5.02-6.8v-3.54c.39,.24,.81,.47,1.24,.69Zm26.58-12.66c-14.37,0-24.26-3.39-27.82-6.72v-8.14c5.8,4.16,17.04,6.35,27.82,6.35s22.02-2.19,27.82-6.35v8.14c-3.55,3.33-13.45,6.72-27.82,6.72Zm0-30.13c17.24,0,27.82,5.13,27.82,8.81s-10.58,8.81-27.82,8.81S3.86,16.51,3.86,12.83,14.44,4.02,31.68,4.02Z"/><path class="cls-2" d="M60.29,48.41v-1.72c0-3.96-3.22-7.19-7.18-7.19s-7.18,3.22-7.18,7.19v1.89c-1.74,.64-3,2.3-3,4.26v6.8c0,2.51,2.04,4.55,4.55,4.55h11.79c2.51,0,4.55-2.04,4.55-4.55v-6.8c0-2.16-1.52-3.97-3.54-4.43Zm-7.18-4.91c1.75,0,3.18,1.43,3.18,3.19v1.6h-6.35v-1.6c0-1.76,1.42-3.19,3.18-3.19Zm6.72,16.14c0,.31-.25,.55-.55,.55h-11.79c-.31,0-.55-.25-.55-.55v-6.8c0-.31,.25-.55,.55-.55h11.79c.31,0,.55,.25,.55,.55v6.8Z"/></svg>