<?xml version="1.0" encoding="UTF-8"?><svg id="Layer_1" xmlns="http://www.w3.org/2000/svg" viewBox="0 0 63.7 64.21"><defs><style>.cls-1{fill:none;}.cls-2{fill:#1d1d1b;}</style></defs><path class="cls-1" d="M58.18,46.98c-.36,.18-.73,.36-1.11,.53-.18,.08-.36,.16-.54,.23-.35,.15-.7,.29-1.06,.43-.19,.07-.38,.15-.58,.22-.4,.15-.81,.29-1.23,.43-.16,.05-.32,.11-.49,.16-.59,.19-1.19,.37-1.81,.54-.12,.03-.24,.06-.36,.09-.51,.14-1.04,.27-1.57,.4-.22,.05-.45,.1-.67,.15-.45,.1-.91,.2-1.38,.29-.24,.05-.48,.1-.73,.14-.49,.09-.99,.18-1.5,.26-.21,.03-.42,.07-.64,.1-.72,.11-1.45,.21-2.2,.3-.08,.01-.17,.02-.25,.03-.67,.08-1.34,.15-2.02,.21-.25,.02-.5,.04-.75,.06-.53,.04-1.07,.09-1.61,.12-.28,.02-.56,.03-.84,.05-.55,.03-1.11,.05-1.68,.07-.25,0-.5,.02-.76,.03-.81,.02-1.63,.04-2.46,.04s-1.65-.01-2.46-.04c-.25,0-.51-.02-.76-.03-.56-.02-1.12-.04-1.68-.07-.28-.02-.56-.03-.84-.05-.54-.03-1.08-.08-1.61-.12-.25-.02-.5-.04-.75-.06-.68-.06-1.36-.13-2.02-.21-.08,0-.17-.02-.25-.03-.74-.09-1.48-.19-2.2-.3-.22-.03-.43-.07-.64-.1-.51-.08-1.01-.17-1.5-.26-.25-.05-.49-.09-.73-.14-.47-.09-.92-.19-1.38-.29-.22-.05-.45-.1-.67-.15-.53-.13-1.06-.26-1.57-.4-.12-.03-.24-.06-.36-.09-.62-.17-1.22-.35-1.81-.54-.17-.05-.32-.11-.49-.16-.42-.14-.83-.28-1.23-.43-.2-.07-.39-.15-.58-.22-.36-.14-.72-.29-1.06-.43-.18-.08-.36-.15-.54-.23-.38-.17-.75-.35-1.11-.53-.11-.06-.24-.11-.35-.17-.43-.22-.84-.45-1.24-.69v3.54c0,2.87,1.97,5.54,5.02,6.8,5.71,2.37,14.02,3.73,22.8,3.73s17.09-1.36,22.8-3.73c3.05-1.26,5.02-3.94,5.02-6.8v-3.54c-.39,.24-.81,.47-1.24,.69-.11,.06-.23,.11-.35,.17Z"/><path class="cls-1" d="M4.13,19.29v8.14c3.55,3.33,13.45,6.72,27.82,6.72s24.26-3.39,27.82-6.72v-8.14c-5.8,4.16-17.04,6.35-27.82,6.35s-22.02-2.19-27.82-6.35Z"/><path class="cls-1" d="M59.77,32.39c-5.94,3.57-16.18,5.76-27.82,5.76s-21.88-2.19-27.82-5.76v8.77s.06,.06,.09,.09c.1,.09,.22,.19,.33,.28,.15,.12,.29,.24,.45,.36,.13,.09,.27,.19,.4,.28,.17,.12,.35,.24,.54,.35,.15,.09,.31,.18,.47,.28,.2,.12,.4,.23,.62,.35,.17,.09,.35,.18,.53,.27,.23,.11,.46,.23,.7,.34,.19,.09,.39,.18,.6,.26,.25,.11,.52,.22,.79,.33,.21,.09,.43,.17,.66,.25,.28,.1,.57,.21,.86,.31,.24,.08,.48,.16,.72,.24,.31,.1,.62,.19,.94,.29,.26,.08,.51,.15,.78,.22,.33,.09,.67,.18,1.02,.27,.28,.07,.55,.14,.84,.21,.36,.08,.72,.16,1.09,.24,.3,.06,.59,.13,.89,.19,.38,.08,.78,.14,1.17,.21,.31,.06,.62,.11,.94,.16,.41,.07,.83,.12,1.26,.18,.33,.05,.65,.09,.98,.14,.44,.06,.9,.1,1.36,.15,.33,.04,.66,.07,1,.11,.49,.05,.99,.08,1.49,.12,.33,.02,.65,.05,.99,.07,.56,.03,1.14,.06,1.71,.08,.29,.01,.58,.03,.88,.04,.88,.03,1.79,.04,2.71,.04s1.82-.01,2.71-.04c.3,0,.59-.03,.88-.04,.58-.02,1.15-.05,1.71-.08,.34-.02,.66-.05,.99-.07,.5-.04,1-.07,1.49-.12,.34-.03,.67-.07,1-.11,.46-.05,.92-.1,1.36-.15,.33-.04,.66-.09,.98-.14,.42-.06,.85-.12,1.26-.18,.32-.05,.63-.11,.94-.16,.39-.07,.79-.14,1.17-.21,.3-.06,.6-.12,.89-.19,.37-.08,.74-.16,1.09-.24,.28-.07,.56-.14,.84-.21,.35-.09,.69-.18,1.02-.27,.26-.07,.52-.15,.78-.22,.32-.09,.64-.19,.94-.29,.25-.08,.49-.16,.72-.24,.29-.1,.58-.2,.86-.31,.22-.08,.44-.17,.66-.25,.27-.11,.53-.22,.79-.33,.2-.09,.4-.17,.6-.26,.24-.11,.48-.22,.7-.34,.18-.09,.36-.18,.53-.27,.22-.12,.42-.23,.62-.35,.16-.09,.32-.18,.47-.28,.19-.12,.36-.24,.54-.35,.14-.09,.28-.19,.4-.28,.16-.12,.31-.24,.45-.36,.11-.09,.23-.19,.33-.28,.03-.03,.06-.06,.09-.09v-8.77Z"/><path class="cls-1" d="M31.95,21.64c17.24,0,27.82-5.13,27.82-8.81S49.19,4.02,31.95,4.02,4.13,9.15,4.13,12.83s10.58,8.81,27.82,8.81Z"/><path class="cls-2" d="M31.95,.02C16.53,.02,.13,4.51,.13,12.83c0,.06,0,.12,.01,.18,0,.04-.01,.07-.01,.11V49.66c0,4.49,2.94,8.61,7.48,10.5,6.18,2.56,15.05,4.03,24.33,4.03s18.15-1.47,24.33-4.03c4.55-1.89,7.48-6.01,7.48-10.5V13.12s0-.07-.01-.11c0-.06,.01-.12,.01-.18C63.77,4.51,47.38,.02,31.95,.02Zm27.4,41.51c-.15,.12-.29,.24-.45,.36-.13,.09-.27,.19-.4,.28-.17,.12-.35,.24-.54,.35-.15,.09-.31,.18-.47,.28-.2,.12-.4,.23-.62,.35-.17,.09-.35,.18-.53,.27-.23,.11-.46,.23-.7,.34-.19,.09-.39,.18-.6,.26-.25,.11-.52,.22-.79,.33-.21,.09-.43,.17-.66,.25-.28,.1-.57,.21-.86,.31-.24,.08-.48,.16-.72,.24-.31,.1-.62,.19-.94,.29-.26,.08-.51,.15-.78,.22-.33,.09-.67,.18-1.02,.27-.28,.07-.55,.14-.84,.21-.36,.08-.72,.16-1.09,.24-.3,.06-.59,.13-.89,.19-.38,.08-.78,.14-1.17,.21-.31,.06-.62,.11-.94,.16-.41,.07-.83,.12-1.26,.18-.33,.05-.65,.09-.98,.14-.44,.06-.9,.1-1.36,.15-.33,.04-.66,.07-1,.11-.49,.05-.99,.08-1.49,.12-.33,.02-.65,.05-.99,.07-.56,.03-1.14,.06-1.71,.08-.29,.01-.58,.03-.88,.04-.88,.03-1.79,.04-2.71,.04s-1.82-.01-2.71-.04c-.3,0-.59-.03-.88-.04-.58-.02-1.15-.05-1.71-.08-.34-.02-.66-.05-.99-.07-.5-.04-1-.07-1.49-.12-.34-.03-.67-.07-1-.11-.46-.05-.92-.1-1.36-.15-.33-.04-.66-.09-.98-.14-.42-.06-.85-.12-1.26-.18-.32-.05-.63-.11-.94-.16-.39-.07-.79-.14-1.17-.21-.3-.06-.6-.12-.89-.19-.37-.08-.74-.16-1.09-.24-.28-.07-.56-.14-.84-.21-.35-.09-.69-.18-1.02-.27-.26-.07-.52-.15-.78-.22-.32-.09-.64-.19-.94-.29-.25-.08-.49-.16-.72-.24-.29-.1-.58-.2-.86-.31-.22-.08-.44-.17-.66-.25-.27-.11-.53-.22-.79-.33-.2-.09-.4-.17-.6-.26-.24-.11-.48-.22-.7-.34-.18-.09-.36-.18-.53-.27-.22-.12-.42-.23-.62-.35-.16-.09-.32-.18-.47-.28-.19-.12-.36-.24-.54-.35-.14-.09-.28-.19-.4-.28-.16-.12-.31-.24-.45-.36-.11-.09-.23-.19-.33-.28-.03-.03-.06-.06-.09-.09v-8.77c5.94,3.57,16.18,5.76,27.82,5.76s21.88-2.19,27.82-5.76v8.77s-.06,.06-.09,.09c-.1,.09-.22,.19-.33,.28Zm.42-14.1c-3.55,3.33-13.45,6.72-27.82,6.72s-24.26-3.39-27.82-6.72v-8.14c5.8,4.16,17.04,6.35,27.82,6.35s22.02-2.19,27.82-6.35v8.14ZM31.95,4.02c17.24,0,27.82,5.13,27.82,8.81s-10.58,8.81-27.82,8.81S4.13,16.51,4.13,12.83,14.72,4.02,31.95,4.02Zm27.82,45.65c0,2.87-1.97,5.54-5.02,6.8-5.71,2.37-14.02,3.73-22.8,3.73s-17.09-1.36-22.8-3.73c-3.05-1.26-5.02-3.94-5.02-6.8v-3.54c.39,.24,.81,.47,1.24,.69,.11,.06,.23,.11,.35,.17,.36,.18,.73,.36,1.11,.53,.18,.08,.36,.16,.54,.23,.35,.15,.7,.29,1.06,.43,.19,.07,.38,.15,.58,.22,.4,.15,.81,.29,1.23,.43,.16,.05,.32,.11,.49,.16,.59,.19,1.19,.37,1.81,.54,.12,.03,.24,.06,.36,.09,.51,.14,1.04,.27,1.57,.4,.22,.05,.45,.1,.67,.15,.45,.1,.91,.2,1.38,.29,.24,.05,.48,.1,.73,.14,.49,.09,.99,.18,1.5,.26,.21,.03,.42,.07,.64,.1,.72,.11,1.45,.21,2.2,.3,.08,.01,.17,.02,.25,.03,.67,.08,1.34,.15,2.02,.21,.25,.02,.5,.04,.75,.06,.53,.04,1.07,.09,1.61,.12,.28,.02,.56,.03,.84,.05,.55,.03,1.11,.05,1.68,.07,.25,0,.5,.02,.76,.03,.81,.02,1.63,.04,2.46,.04s1.65-.01,2.46-.04c.25,0,.51-.02,.76-.03,.56-.02,1.12-.04,1.68-.07,.28-.02,.56-.03,.84-.05,.54-.03,1.08-.08,1.61-.12,.25-.02,.5-.04,.75-.06,.68-.06,1.36-.13,2.02-.21,.08,0,.17-.02,.25-.03,.74-.09,1.48-.19,2.2-.3,.22-.03,.43-.07,.64-.1,.51-.08,1.01-.17,1.5-.26,.25-.05,.49-.09,.73-.14,.47-.09,.92-.19,1.38-.29,.22-.05,.45-.1,.67-.15,.53-.13,1.06-.26,1.57-.4,.12-.03,.24-.06,.36-.09,.62-.17,1.22-.35,1.81-.54,.17-.05,.32-.11,.49-.16,.42-.14,.83-.28,1.23-.43,.2-.07,.39-.15,.58-.22,.36-.14,.72-.29,1.06-.43,.18-.08,.36-.15,.54-.23,.38-.17,.75-.35,1.11-.53,.11-.06,.24-.11,.35-.17,.43-.22,.84-.45,1.24-.69v3.54Z"/></svg>