<?xml version="1.0" encoding="UTF-8"?>
<svg id="Layer_1" data-name="Layer 1" xmlns="http://www.w3.org/2000/svg" viewBox="0 0 64 64">
  <path d="m31.96,0C20.74,0,10.16,6.02,4.31,15.72c0,0,0,0,0,.01-.02.03-.04.06-.06.09-.02.03-.03.07-.05.11-.03.07-.07.13-.09.2-.02.06-.04.12-.06.18-.02.06-.04.13-.05.19-.01.07-.02.14-.02.21,0,.04-.01.08-.01.12,0,.02,0,.04,0,.06,0,.07.01.14.02.21,0,.06.01.12.03.18.01.06.04.12.06.18.02.06.04.13.07.19.03.06.06.11.09.16.03.06.06.11.1.17.04.05.08.1.12.15.04.05.08.1.13.14.04.04.09.08.14.12.06.05.11.09.17.13.02,0,.03.02.04.03.04.02.07.03.11.05.06.03.13.07.2.09.06.02.13.04.19.06.06.02.12.03.18.04.08.01.15.02.23.02.04,0,.08.01.11.01l37.62.1h0c.8,0,1.52-.47,1.83-1.19.32-.73.18-1.57-.37-2.15l-8.11-8.69c-.75-.81-2.02-.85-2.83-.1-.81.75-.86,2.01-.11,2.82l4.97,5.33-29.23-.08C15.1,8.08,23.31,3.99,31.96,3.99c15.46,0,28.04,12.51,28.04,27.9,0,1.1.9,1.99,2,1.99s2-.89,2-1.99C64,14.3,49.63,0,31.96,0Z"/>
  <path d="m18.88,29.46c-.01-1.45-.57-2.7-1.62-3.61-2.32-2.02-6.29-1.6-6.74-1.55-1,.12-1.76.97-1.76,1.98v11.41c0,1.1.9,1.99,2,1.99s2-.89,2-1.99v-1.2l3.33,2.6c.37.29.8.43,1.24.43.59,0,1.18-.26,1.58-.76.68-.86.53-2.12-.34-2.8l-2.5-1.96c.44-.22.86-.49,1.23-.82,1.05-.94,1.59-2.23,1.58-3.72Zm-6.11-1.2c.75.08,1.48.26,1.86.59.12.1.24.25.25.65,0,.43-.12.6-.26.73-.38.34-1.1.53-1.85.62v-2.59Z"/>
  <path d="m29.23,28.17h.02c1.1,0,1.99-.88,2-1.97,0-1.1-.88-2-1.99-2.01l-6.52-.06c-.57,0-1.05.2-1.43.58-.38.37-.59.88-.59,1.42v11.03c0,1.1.9,1.99,2,1.99h6.93c1.11,0,2-.89,2-1.99s-.9-1.99-2-1.99h-4.92v-1.57h2.45c1.11,0,2-.89,2-1.99s-.9-1.99-2-1.99h-2.45v-1.47l4.5.04Z"/>
  <path d="m39.97,28.42c1.06.32,2.17-.27,2.5-1.32.33-1.05-.27-2.17-1.32-2.49-.78-.24-4.76-1.33-7.14.56-.8.64-1.72,1.85-1.55,4,.31,3.89,3.59,4.01,5.16,4.07,1.75.07,1.96.2,2.18.82.11.3.04.57-.2.83-.54.58-1.94.98-4.24.36-1.07-.29-2.17.34-2.46,1.4s.34,2.16,1.41,2.44c1.11.3,2.17.45,3.16.45,2.1,0,3.87-.66,5.06-1.95,1.25-1.35,1.64-3.17,1.03-4.87-1.17-3.29-4.18-3.4-5.8-3.47-.41-.02-1.02-.04-1.28-.12-.02-.06-.03-.15-.04-.29-.03-.37.03-.55.06-.57.41-.33,2.13-.26,3.46.14Z"/>
  <path d="m49.78,39.48c1.11,0,2-.89,2-1.99v-9.36h2.51c1.11,0,2-.89,2-1.99s-.9-1.99-2-1.99h-8.94c-1.11,0-2,.89-2,1.99s.9,1.99,2,1.99h2.42v9.36c0,1.1.9,1.99,2,1.99Z"/>
  <path d="m59.95,47.69c.02-.06.04-.13.05-.19.01-.07.02-.14.02-.21,0-.04.01-.08.01-.12,0-.02,0-.04,0-.06,0-.07-.01-.14-.02-.21,0-.06-.01-.12-.03-.18-.01-.06-.04-.12-.06-.18-.02-.06-.04-.13-.07-.19-.03-.06-.06-.11-.09-.16-.03-.06-.06-.11-.1-.17-.04-.05-.08-.1-.12-.15-.04-.05-.08-.1-.13-.14-.04-.04-.09-.08-.14-.12-.06-.04-.11-.09-.17-.13-.02-.01-.03-.02-.05-.03-.04-.02-.07-.03-.11-.05-.06-.03-.13-.06-.2-.09-.06-.02-.13-.04-.19-.06-.06-.02-.12-.03-.18-.04-.07-.01-.15-.02-.22-.02-.04,0-.08-.01-.12-.01l-37.62-.1h0c-.8,0-1.52.47-1.83,1.19-.32.73-.18,1.57.37,2.15l8.11,8.69c.4.42.93.64,1.47.64.49,0,.98-.18,1.36-.53.81-.75.86-2.01.11-2.82l-4.97-5.33,29.23.08c-5.34,6.78-13.56,10.87-22.2,10.87-15.46,0-28.04-12.51-28.04-27.9,0-1.1-.9-1.99-2-1.99s-2,.89-2,1.99c0,17.58,14.37,31.88,32.04,31.88,11.22,0,21.8-6.02,27.64-15.72,0,0,0,0,0-.01.02-.03.04-.06.06-.09.02-.03.03-.07.05-.11.03-.07.07-.13.09-.2.02-.06.04-.12.06-.18Z"/>
</svg>