<?xml version="1.0" encoding="UTF-8"?>
<svg id="Layer_5" data-name="Layer 5" xmlns="http://www.w3.org/2000/svg" viewBox="0 0 64 64">
  <defs>
    <style>
      .cls-1 {
        fill: #000;
        stroke-width: 0px;
      }
    </style>
  </defs>
  <g>
    <path class="cls-1" d="M31.77,49.23c-1.13,0-2.26-.3-3.29-.91l-9.13-5.37c-2-1.11-3.23-3.27-3.19-5.6l.07-10.66c-.1-2.29,1.11-4.44,3.18-5.62h0l9.1-5.2c1.94-1.11,4.37-1.11,6.34-.02l9.36,5.38c1.98,1.1,3.23,3.26,3.25,5.63l-.08,10.78c-.04,2.28-1.28,4.37-3.22,5.48l-9.18,5.25c-1.01.58-2.12.87-3.23.87ZM21.4,24.54c-.79.45-1.21,1.18-1.17,1.99,0,.04,0,.09,0,.13l-.08,10.75c-.02.86.45,1.66,1.18,2.07l9.18,5.4c.8.47,1.68.48,2.49.01l9.18-5.25c.73-.42,1.19-1.21,1.21-2.06l.07-10.72c0-.9-.48-1.73-1.22-2.15l-9.36-5.38c-.73-.41-1.65-.41-2.38,0l-9.1,5.2Z"/>
    <path class="cls-1" d="M31.81,39.23c-2.48,0-4.9-1.29-6.22-3.58-.95-1.65-1.2-3.58-.7-5.42.5-1.84,1.69-3.38,3.35-4.33,3.42-1.96,7.8-.77,9.76,2.64.95,1.65,1.2,3.58.7,5.42-.5,1.84-1.69,3.38-3.35,4.33-1.12.64-2.34.94-3.54.94ZM31.79,28.96c-.53,0-1.07.13-1.56.42-.73.42-1.25,1.09-1.47,1.9-.22.81-.11,1.65.31,2.38.87,1.5,2.8,2.03,4.31,1.16.73-.42,1.25-1.09,1.47-1.9.22-.81.11-1.65-.31-2.38-.58-1.01-1.65-1.58-2.74-1.58Z"/>
  </g>
  <path class="cls-1" d="M31.83,64c-.22,0-.45-.04-.66-.11-11.18-3.91-23.24-9.36-27.86-20.1-7.74-18,.4-32.4.75-33,.36-.62,1.02-1,1.73-1C21.8,9.78,30.35.74,30.43.65,30.81.24,31.34,0,31.89,0h0c.55,0,1.08.23,1.46.63,11.43,12.16,24.44,8.19,24.57,8.15.52-.16,1.07-.11,1.55.14.48.25.83.69.98,1.21,4.65,16.11,4.73,27.77.25,34.67-9.27,14.28-27.63,18.94-28.4,19.13-.16.04-.32.06-.48.06ZM7.03,13.77c-1.54,3.35-5.89,14.86-.05,28.44,3.93,9.14,14.73,14.09,24.92,17.7,3.05-.88,17.91-5.66,25.45-17.28,3.61-5.56,3.53-15.76-.23-29.57-4.4.78-15.19,1.39-25.28-8.27-3.24,2.79-11.58,8.63-24.82,8.98Z"/>
</svg>