<?xml version="1.0" encoding="UTF-8"?><svg id="Layer_1" xmlns="http://www.w3.org/2000/svg" viewBox="0 0 63.7 64.21"><defs><style>.cls-1{fill:none;}</style></defs><path class="cls-1" d="M31.79,4.02C16.45,4.02,3.97,16.62,3.97,32.11s12.48,28.09,27.82,28.09,27.82-12.6,27.82-28.09S47.13,4.02,31.79,4.02Zm-6.5,29.47l8.77,5.78c.48-.43,1.01-.8,1.61-1.07,1.54-.68,3.25-.72,4.82-.11,3.23,1.26,4.85,4.94,3.6,8.2h0c-.61,1.59-1.8,2.84-3.35,3.53-.81,.36-1.67,.54-2.53,.54-.77,0-1.54-.14-2.28-.43-2.91-1.13-4.5-4.22-3.89-7.19l-8.76-5.77c-.48,.43-1.02,.81-1.63,1.08-.81,.36-1.67,.54-2.54,.54-.77,0-1.54-.14-2.28-.43-3.24-1.26-4.85-4.94-3.6-8.2,.61-1.59,1.79-2.84,3.34-3.52,1.54-.68,3.25-.72,4.82-.11,.43,.17,.83,.38,1.2,.62l9.46-5.58c-.26-1.18-.19-2.44,.27-3.64,.61-1.59,1.8-2.84,3.34-3.53,1.54-.68,3.25-.72,4.82-.11,3.23,1.26,4.85,4.94,3.6,8.2h0c-.61,1.59-1.8,2.84-3.35,3.53-.81,.36-1.67,.54-2.53,.54-.77,0-1.54-.14-2.28-.43-.69-.27-1.3-.65-1.83-1.11l-9.04,5.33c.37,1.06,.46,2.21,.23,3.36Z"/><path class="cls-1" d="M19.94,30.04c-.27-.1-.55-.16-.83-.16-.31,0-.62,.06-.92,.2-.57,.25-1,.71-1.23,1.3-.46,1.21,.13,2.58,1.32,3.04,.57,.22,1.19,.21,1.74-.04,.57-.25,1-.71,1.23-1.3,.46-1.21-.13-2.57-1.32-3.04Z"/><path class="cls-1" d="M37.38,22.18c.57,.22,1.19,.21,1.75-.04,.57-.25,1-.71,1.23-1.3,.46-1.21-.13-2.57-1.32-3.04-.27-.1-.55-.16-.83-.16-.31,0-.62,.06-.92,.2-.57,.25-1,.71-1.23,1.3-.46,1.21,.13,2.57,1.32,3.04Z"/><path class="cls-1" d="M37.38,46.19c.57,.22,1.19,.21,1.75-.04,.57-.25,1-.71,1.23-1.3,.46-1.21-.13-2.57-1.32-3.04-.27-.1-.55-.16-.83-.16-.31,0-.62,.07-.92,.2-.57,.25-1,.71-1.23,1.3-.46,1.21,.13,2.57,1.32,3.04Z"/><path d="M35.93,25.91c.74,.29,1.51,.43,2.28,.43,.86,0,1.72-.18,2.53-.54,1.55-.68,2.74-1.94,3.35-3.52h0c1.25-3.26-.37-6.94-3.6-8.2-1.57-.61-3.28-.57-4.82,.11-1.55,.68-2.74,1.94-3.34,3.53-.46,1.2-.53,2.47-.27,3.64l-9.46,5.58c-.37-.25-.77-.46-1.2-.62-1.57-.61-3.28-.57-4.82,.11-1.55,.69-2.74,1.94-3.34,3.52-1.25,3.26,.37,6.93,3.6,8.2,.74,.29,1.51,.43,2.28,.43,.86,0,1.72-.18,2.54-.54,.61-.27,1.14-.65,1.63-1.08l8.76,5.77c-.61,2.98,.98,6.06,3.89,7.19,.74,.29,1.51,.43,2.28,.43,.86,0,1.72-.18,2.53-.54,1.55-.68,2.74-1.94,3.35-3.52h0c1.25-3.26-.37-6.94-3.6-8.2-1.57-.61-3.28-.57-4.82,.11-.6,.27-1.13,.64-1.61,1.07l-8.77-5.78c.23-1.14,.14-2.3-.23-3.36l9.04-5.33c.53,.46,1.14,.85,1.83,1.11Zm.13-6.76c.23-.59,.66-1.05,1.23-1.3,.29-.13,.61-.2,.92-.2,.28,0,.56,.05,.83,.16,1.19,.46,1.79,1.83,1.32,3.04-.22,.59-.66,1.05-1.23,1.3-.56,.25-1.17,.26-1.75,.04-1.19-.46-1.79-1.83-1.32-3.04Zm-16.03,15.23c-.56,.25-1.18,.26-1.74,.04-1.19-.46-1.79-1.83-1.32-3.04,.22-.58,.66-1.05,1.23-1.3,.29-.13,.61-.2,.92-.2,.28,0,.56,.05,.83,.16,1.19,.46,1.79,1.83,1.32,3.04-.23,.59-.66,1.05-1.23,1.3Zm17.25,7.48c.29-.13,.61-.2,.92-.2,.28,0,.56,.05,.83,.16,1.19,.46,1.79,1.83,1.32,3.04-.22,.59-.66,1.05-1.23,1.3-.56,.25-1.17,.26-1.75,.04-1.19-.46-1.79-1.83-1.32-3.04,.22-.59,.66-1.05,1.23-1.3Z"/><path d="M31.79,.02C14.24,.02-.03,14.41-.03,32.11s14.27,32.09,31.82,32.09,31.82-14.39,31.82-32.09S49.33,.02,31.79,.02Zm0,60.18c-15.34,0-27.82-12.6-27.82-28.09S16.45,4.02,31.79,4.02s27.82,12.6,27.82,28.09-12.48,28.09-27.82,28.09Z"/></svg>