<?xml version="1.0" encoding="UTF-8"?>
<svg id="Layer_5" data-name="Layer 5" xmlns="http://www.w3.org/2000/svg" viewBox="0 0 64 64">
  <defs>
    <style>
      .cls-1 {
        fill: #000;
        stroke-width: 0px;
      }
    </style>
  </defs>
  <path class="cls-1" d="M8,45.86c-.38,0-.76-.11-1.1-.33-.09-.06-.2-.12-.33-.2C4.9,44.33-.21,41.27,0,32.97c.21-7.92,4.58-11.45,7.06-12.82-.42-2.73-.77-8.28,2.2-12.93C11.57,3.61,15.34,1.32,20.46.43c9.21-1.62,13.88,1.72,15.86,3.9,2.87-1.26,8.97-2.68,16.21,3,5.8,4.55,6.02,10.54,5.71,13.49,2.27,1.21,5.77,4.34,5.76,12.21,0,7.59-2.95,9.69-6.68,12.35l-.16.11c-.9.64-2.15.43-2.79-.47-.64-.9-.43-2.15.47-2.79l.16-.11c3.43-2.45,5-3.56,5-9.1,0-7.91-4.22-8.95-4.4-8.99-.53-.12-1.02-.46-1.3-.93-.28-.47-.38-1.04-.23-1.57.07-.26,1.68-6.6-4.01-11.06-7.52-5.9-13.08-2-13.13-1.96-.47.34-1.07.47-1.65.32-.57-.14-1.05-.52-1.31-1.04-.1-.19-2.94-5.17-12.82-3.43-3.96.7-6.82,2.38-8.5,4.99-3.08,4.81-1.4,11.38-1.38,11.45.27,1.04-.32,2.12-1.35,2.43-.22.07-5.71,1.94-5.91,9.84-.16,5.96,3.07,7.89,4.62,8.82.19.11.35.21.48.29.92.61,1.18,1.85.57,2.77-.38.58-1.02.9-1.67.9Z"/>
  <path class="cls-1" d="M42.87,41.43h-17.73v-7.68c0-3.8,3.08-6.89,6.87-6.89s6.87,3.09,6.87,6.89c0,1.1.9,2,2,2s2-.9,2-2c0-6-4.88-10.89-10.87-10.89s-10.87,4.88-10.87,10.89v7.68h-.09c-3.31,0-6,2.69-6,6v10.57c0,3.31,2.69,6,6,6h21.82c3.31,0,6-2.69,6-6v-10.57c0-3.31-2.69-6-6-6ZM44.87,58c0,1.1-.9,2-2,2h-21.82c-1.1,0-2-.9-2-2v-10.57c0-1.1.9-2,2-2h21.82c1.1,0,2,.9,2,2v10.57Z"/>
</svg>