<?xml version="1.0" encoding="UTF-8"?><svg id="Layer_1" xmlns="http://www.w3.org/2000/svg" viewBox="0 0 64 64"><defs><style>.cls-1{fill:none;}</style></defs><path class="cls-1" d="M4.08,7.76s0,.02,0,.03c0,2.08,1.73,3.77,3.86,3.77H53.94V4.02H9.07c-4.19,0-4.88,1.16-4.99,3.74Z"/><path class="cls-1" d="M7.94,15.56c-1.41,0-2.74-.38-3.89-1.02V54.85c0,2.56,1.51,5.14,4.88,5.14H57.24c1.48,0,2.69-1.21,2.69-2.7V15.54l-51.99,.02Zm34.83,8.32H21.22c-1.1,0-2-.9-2-2s.9-2,2-2h21.55c1.1,0,2,.9,2,2s-.9,2-2,2Z"/><path d="M62.06,.02h-5.71c-.13-.03-.27-.04-.41-.04s-.28,.01-.41,.04H9.07C.06,.02,.06,6.09,.06,9V54.85c0,5.29,3.73,9.14,8.88,9.14H57.24c3.69,0,6.69-3.01,6.69-6.7V13.54h0c0-1.1-.9-2-2-2h-3.99s0-7.52,0-7.52h4.11c1.1,0,2-.9,2-2S63.16,.02,62.06,.02Zm-4.81,59.96H8.93c-3.37,0-4.88-2.58-4.88-5.14V14.53c1.15,.65,2.47,1.02,3.89,1.02l51.99-.02V57.28c0,1.49-1.21,2.7-2.69,2.7Zm-3.3-48.44H7.94c-2.13,.01-3.86-1.68-3.86-3.75,0-.01,0-.02,0-.03,.11-2.58,.8-3.74,4.99-3.74H53.94v7.52Z"/><path d="M42.77,19.88H21.22c-1.1,0-2,.9-2,2s.9,2,2,2h21.55c1.1,0,2-.9,2-2s-.9-2-2-2Z"/></svg>