<?xml version="1.0" encoding="UTF-8"?><svg id="Layer_1" xmlns="http://www.w3.org/2000/svg" viewBox="0 0 64 64"><defs><style>.cls-1{fill:#1d1d1b;}</style></defs><path d="M57.44,15.98c-.97,.53-1.33,1.74-.81,2.71,2.2,4.06,3.36,8.66,3.36,13.31,0,15.44-12.56,27.99-28,27.99S4,47.44,4,32.01,16.56,4.01,32,4.01c4.63,0,9.22,1.15,13.27,3.34,.97,.53,2.19,.16,2.71-.81,.52-.97,.16-2.19-.81-2.71C42.54,1.33,37.29,.01,32,.01,14.36,.01,0,14.36,0,32.01s14.36,31.99,32,31.99,32-14.35,32-31.99c0-5.31-1.33-10.58-3.85-15.22-.53-.97-1.74-1.33-2.71-.81Z"/><path class="cls-1" d="M21.3,30.57c-.79-.77-2.05-.76-2.83,.03-.77,.79-.76,2.06,.03,2.83l12.1,11.86c.38,.37,.88,.57,1.4,.57,.11,0,.23,0,.34-.03,.63-.11,1.18-.52,1.46-1.1,.13-.27,13.44-27.54,29.5-41.2,.84-.72,.94-1.98,.23-2.82-.72-.84-1.98-.94-2.82-.23-13.98,11.9-25.53,32.84-29.26,40.04l-10.14-9.94Z"/></svg>