<?xml version="1.0" encoding="UTF-8"?>
<svg id="Layer_5" data-name="Layer 5" xmlns="http://www.w3.org/2000/svg" viewBox="0 0 64 64">
  <defs>
    <style>
      .cls-1 {
        stroke-width: 0px;
      }
    </style>
  </defs>
  <g>
    <path class="cls-1" d="m13.74,29.48h-2.59v-2.21h8.07v2.21h-2.59v7.8h-2.88v-7.8Z"/>
    <path class="cls-1" d="m20.62,27.27h4.06c2.2,0,4.07.71,4.07,3.23,0,1.28-.59,2.19-1.8,2.63l2.39,4.14h-3.02l-2.03-3.58h-.81v3.58h-2.86v-10.01Zm3.92,4.56c.88,0,1.44-.32,1.44-1.22,0-.96-.64-1.18-1.43-1.18h-1.08v2.41h1.07Z"/>
    <path class="cls-1" d="m30.72,27.27h2.9v10.01h-2.9v-10.01Z"/>
    <path class="cls-1" d="m38.16,27.27h3.71l3.18,10.01h-3.04l-.49-1.72h-3.4l-.49,1.72h-2.68l3.21-10.01Zm2.8,6.31l-1.13-3.99-1.13,3.99h2.27Z"/>
    <path class="cls-1" d="m46.34,27.27h2.88v7.77h3.92v2.24h-6.8v-10.01Z"/>
  </g>
  <path class="cls-1" d="m32,64c-2.21,0-3.8-1.59-5.21-2.99-.7-.7-1.58-1.57-2.11-1.72-.59-.15-1.78.15-2.82.43-1.88.5-4.02,1.06-5.87-.01-1.88-1.09-2.46-3.23-2.97-5.13-.26-.98-.59-2.2-1-2.61-.41-.41-1.63-.74-2.61-1.01-1.89-.51-4.04-1.09-5.13-2.96-1.07-1.85-.51-3.99-.01-5.87.28-1.05.59-2.23.43-2.82-.14-.53-1.01-1.41-1.72-2.11C1.59,35.8,0,34.21,0,32s1.59-3.8,2.99-5.21c.7-.7,1.58-1.58,1.72-2.11.16-.59-.16-1.77-.43-2.82-.5-1.88-1.06-4.02.01-5.87,1.08-1.88,3.23-2.45,5.13-2.97.98-.26,2.2-.59,2.61-1s.74-1.63,1-2.61c.51-1.9,1.09-4.04,2.97-5.13,1.85-1.07,3.99-.51,5.87-.01,1.05.28,2.24.59,2.82.43.53-.14,1.41-1.01,2.11-1.72C28.2,1.59,29.79,0,32,0s3.8,1.59,5.21,2.99c.7.7,1.58,1.57,2.11,1.72.59.16,1.78-.15,2.82-.43,1.88-.5,4.02-1.06,5.87.01,1.88,1.09,2.46,3.23,2.97,5.13.26.98.59,2.2,1,2.61.41.41,1.63.74,2.61,1.01,1.89.51,4.04,1.09,5.13,2.96,1.07,1.85.51,3.99.01,5.87-.28,1.05-.59,2.23-.43,2.82.14.53,1.02,1.41,1.72,2.11,1.4,1.4,2.99,3,2.99,5.21s-1.59,3.8-2.99,5.21c-.7.7-1.57,1.58-1.72,2.11-.16.59.16,1.78.43,2.82.5,1.88,1.06,4.02-.01,5.87-1.09,1.88-3.23,2.46-5.13,2.97-.98.26-2.2.59-2.61,1s-.74,1.63-1,2.61c-.51,1.9-1.09,4.04-2.97,5.13-1.85,1.07-3.99.51-5.87.01-1.05-.28-2.23-.59-2.82-.43-.53.14-1.41,1.02-2.11,1.72-1.4,1.4-3,2.99-5.21,2.99Zm-7.69-8.74c.47,0,.95.05,1.41.17,1.56.42,2.75,1.6,3.9,2.75.77.77,1.82,1.82,2.38,1.82s1.61-1.05,2.38-1.82c1.15-1.15,2.34-2.33,3.9-2.75,1.61-.43,3.35.03,4.88.43.96.25,2.42.64,2.84.39.45-.26.84-1.73,1.11-2.71.43-1.59.87-3.23,2.04-4.4,1.17-1.17,2.81-1.61,4.4-2.04.98-.26,2.45-.66,2.71-1.11.24-.42-.14-1.88-.4-2.84-.4-1.53-.86-3.26-.43-4.88.42-1.56,1.6-2.75,2.75-3.9.77-.77,1.82-1.82,1.82-2.38s-1.05-1.61-1.82-2.38c-1.15-1.15-2.33-2.34-2.75-3.9-.43-1.62.03-3.35.43-4.88.25-.96.64-2.42.39-2.84-.26-.45-1.73-.84-2.71-1.11-1.59-.43-3.23-.87-4.4-2.04s-1.61-2.81-2.04-4.4c-.26-.98-.66-2.45-1.11-2.71-.42-.25-1.88.14-2.84.39-1.53.4-3.26.86-4.88.43-1.56-.42-2.75-1.6-3.9-2.75-.77-.77-1.83-1.82-2.38-1.82s-1.61,1.05-2.38,1.82c-1.15,1.15-2.34,2.33-3.9,2.75-1.62.43-3.35-.03-4.88-.43-.96-.25-2.42-.64-2.84-.39-.45.26-.84,1.73-1.11,2.71-.43,1.59-.87,3.23-2.04,4.4-1.17,1.17-2.81,1.61-4.4,2.04-.98.26-2.45.66-2.71,1.11-.25.42.14,1.88.39,2.85.4,1.53.86,3.26.43,4.87-.42,1.57-1.6,2.75-2.75,3.9-.77.77-1.82,1.82-1.82,2.38s1.05,1.61,1.82,2.38c1.15,1.15,2.33,2.34,2.75,3.9.43,1.62-.03,3.35-.43,4.88-.25.96-.64,2.42-.39,2.85.26.45,1.73.84,2.71,1.11,1.59.43,3.23.87,4.4,2.04s1.61,2.81,2.04,4.4c.26.98.66,2.45,1.11,2.71.42.24,1.88-.14,2.84-.4,1.09-.29,2.28-.6,3.47-.6Z"/>
</svg>