<?xml version="1.0" encoding="UTF-8"?><svg id="Layer_1" xmlns="http://www.w3.org/2000/svg" viewBox="0 0 63.7 64.21"><defs><style>.cls-1{fill:none;}</style></defs><path class="cls-1" d="M31.85,14.73c-4.01,0-7.28,3.3-7.28,7.36s3.26,7.36,7.28,7.36,7.27-3.3,7.27-7.36-3.26-7.36-7.27-7.36Z"/><path class="cls-1" d="M31.85,4.02c-15.34,0-27.82,12.6-27.82,28.09,0,7.03,2.57,13.45,6.81,18.38,.43-6.87,6.1-12.33,13.03-12.33h15.96c6.93,0,12.6,5.46,13.03,12.33,4.24-4.93,6.81-11.36,6.81-18.38,0-15.49-12.48-28.09-27.82-28.09Zm0,29.43c-6.22,0-11.28-5.1-11.28-11.36s5.06-11.36,11.28-11.36,11.27,5.1,11.27,11.36-5.06,11.36-11.27,11.36Z"/><path class="cls-1" d="M39.83,42.16h-15.96c-5,0-9.07,4.11-9.07,9.17v2.95c4.71,3.7,10.63,5.92,17.05,5.92s12.34-2.21,17.05-5.92v-2.95c0-5.06-4.07-9.17-9.07-9.17Z"/><path d="M31.85,.02C14.3,.02,.03,14.41,.03,32.11s14.27,32.09,31.82,32.09,31.82-14.39,31.82-32.09S49.39,.02,31.85,.02Zm17.05,54.26c-4.71,3.7-10.63,5.92-17.05,5.92s-12.34-2.21-17.05-5.92v-2.95c0-5.06,4.07-9.17,9.07-9.17h15.96c5,0,9.07,4.11,9.07,9.17v2.95Zm3.96-3.79c-.43-6.87-6.1-12.33-13.03-12.33h-15.96c-6.93,0-12.6,5.46-13.03,12.33-4.24-4.93-6.81-11.36-6.81-18.38,0-15.49,12.48-28.09,27.82-28.09s27.82,12.6,27.82,28.09c0,7.03-2.57,13.45-6.81,18.38Z"/><path d="M31.85,10.73c-6.22,0-11.28,5.1-11.28,11.36s5.06,11.36,11.28,11.36,11.27-5.1,11.27-11.36-5.06-11.36-11.27-11.36Zm0,18.72c-4.01,0-7.28-3.3-7.28-7.36s3.26-7.36,7.28-7.36,7.27,3.3,7.27,7.36-3.26,7.36-7.27,7.36Z"/></svg>