<?xml version="1.0" encoding="UTF-8"?><svg id="Layer_1" xmlns="http://www.w3.org/2000/svg" viewBox="0 0 63.7 64.21"><defs><style>.cls-1{fill:none;}</style></defs><path class="cls-1" d="M31.87,12.87c-3.96,0-7.18,3.26-7.18,7.26s3.22,7.26,7.18,7.26,7.18-3.26,7.18-7.26-3.22-7.26-7.18-7.26Z"/><path class="cls-1" d="M51.57,38.56c-1.08-.3-1.97-.43-2.86-.43s-1.78,.13-2.86,.43c-4.72,1.3-8.01,5.68-8.01,10.65s3.26,9.25,7.92,10.55c1.08,.3,1.96,.43,2.85,.43,1.15,0,2.03-.1,2.86-.33,4.78-1.31,8.11-5.69,8.11-10.65s-3.29-9.35-8.01-10.65Zm-.86,18.13v.77c0,1.1-.9,2-2,2s-2-.9-2-2v-.7c-1.18-.48-2.17-1.4-2.72-2.6-.45-1.01,0-2.19,1-2.65,1.01-.45,2.19,0,2.65,1,.17,.38,.55,.63,.97,.63,.62,0,1.09-.44,1.09-1.02s-.47-1.02-1.09-1.02c-2.7,0-4.89-2.21-4.89-4.92,0-2.03,1.24-3.78,2.99-4.53v-.7c0-1.1,.9-2,2-2s2,.9,2,2v.83c.93,.46,1.73,1.19,2.25,2.13,.53,.97,.18,2.18-.79,2.72-.97,.53-2.18,.18-2.72-.79-.18-.33-.54-.58-.84-.58-.49,0-.89,.41-.89,.92s.4,.92,.89,.92c2.81,0,5.09,2.25,5.09,5.02,0,2.03-1.23,3.77-2.99,4.56Z"/><path d="M52.63,34.71c-2.85-.79-5-.79-7.85,0-6.45,1.77-10.95,7.74-10.95,14.51s4.46,12.62,10.85,14.41c1.42,.39,2.67,.57,3.92,.57,1.5,0,2.75-.15,3.92-.47,6.5-1.79,11.05-7.75,11.05-14.51s-4.5-12.73-10.95-14.51Zm-1.16,25.16c-.83,.23-1.71,.33-2.86,.33-.89,0-1.78-.13-2.85-.43-4.66-1.31-7.92-5.64-7.92-10.55s3.29-9.35,8.01-10.65c1.08-.3,1.96-.43,2.86-.43s1.78,.13,2.86,.43c4.71,1.3,8.01,5.68,8.01,10.65s-3.33,9.34-8.11,10.65Z"/><path d="M48.61,47.11c-.49,0-.89-.41-.89-.92s.4-.92,.89-.92c.3,0,.66,.25,.84,.58,.53,.97,1.75,1.32,2.72,.79,.97-.53,1.32-1.75,.79-2.72-.52-.94-1.32-1.68-2.25-2.13v-.83c0-1.1-.9-2-2-2s-2,.9-2,2v.7c-1.76,.75-2.99,2.5-2.99,4.53,0,2.71,2.19,4.92,4.89,4.92,.62,0,1.09,.44,1.09,1.02s-.47,1.02-1.09,1.02c-.42,0-.8-.25-.97-.63-.45-1.01-1.64-1.45-2.65-1-1.01,.45-1.46,1.64-1,2.65,.54,1.21,1.53,2.12,2.72,2.6v.7c0,1.1,.9,2,2,2s2-.9,2-2v-.77c1.76-.79,2.99-2.53,2.99-4.56,0-2.77-2.28-5.02-5.09-5.02Z"/><path d="M31.85,.02C14.3,.02,.02,14.41,.02,32.11s14.28,32.09,31.83,32.09c1.1,0,2-.9,2-2s-.9-2-2-2c-6.07,0-11.68-1.97-16.26-5.31v-7.98c0-4.46,3.32-7.96,7.56-7.96h8.69c1.1,0,2-.9,2-2s-.9-2-2-2h-8.69c-6.38,0-11.56,5.37-11.56,11.96v4.44c-4.69-5.03-7.57-11.79-7.57-19.23,0-15.49,12.48-28.09,27.83-28.09s27.83,12.6,27.83,28.09c0,1.1,.9,2,2,2s2-.9,2-2C63.68,14.41,49.4,.02,31.85,.02Z"/><path d="M31.87,8.87c-6.16,0-11.18,5.05-11.18,11.26s5.01,11.26,11.18,11.26,11.18-5.05,11.18-11.26-5.01-11.26-11.18-11.26Zm0,18.52c-3.96,0-7.18-3.26-7.18-7.26s3.22-7.26,7.18-7.26,7.18,3.26,7.18,7.26-3.22,7.26-7.18,7.26Z"/></svg>