<?xml version="1.0" encoding="UTF-8"?><svg id="Layer_1" xmlns="http://www.w3.org/2000/svg" viewBox="0 0 63.64 64.18"><defs><style>.cls-1{fill:none;}.cls-2{fill:#1d1c1a;}</style></defs><path class="cls-1" d="M3.9,34.09c.85,11.93,9.2,21.82,20.36,24.95-3.6-5.67-5.6-15.36-5.84-24.95H3.9Z"/><path class="cls-1" d="M47.25,39.66c-4.33,0-7.86,3.53-7.86,7.86s3.53,7.86,7.86,7.86,7.86-3.53,7.86-7.86-3.53-7.86-7.86-7.86Z"/><path class="cls-1" d="M38.96,5.02c3.65,5.66,5.68,15.41,5.92,25.07h14.85c-.86-12.08-9.41-22.07-20.78-25.07Z"/><path class="cls-1" d="M3.9,30.09h14.52c.25-9.6,2.25-19.28,5.84-24.95C13.1,8.27,4.75,18.15,3.9,30.09Z"/><path class="cls-1" d="M31.69,4.09s-.07,0-.11,0c-3.71,.12-8.77,9.94-9.16,25.99h18.47c-.39-16.1-5.48-25.93-9.2-26Z"/><path class="cls-2" d="M31.82,.09s-.08,0-.12,0c-.02,0-.03,0-.05,0-.04,0-.08,0-.12,0C14.02,.26-.18,14.54-.18,32.09s14.2,31.83,31.71,31.99c.04,0,.08,0,.12,0,.02,0,.03,0,.05,0,.04,0,.08,0,.12,0,1.38,0,2.76-.09,4.12-.26,1.1-.14,1.87-1.14,1.73-2.24-.03-.2-.09-.38-.16-.55,.51-.79,.4-1.86-.31-2.53-.8-.76-2.07-.72-2.83,.08-.93,.98-1.83,1.48-2.69,1.49-.03,0-.06,0-.1,0-3.71-.12-8.77-9.94-9.16-25.99H59.73c-.07,.97-.17,1.93-.34,2.88-.19,1.09,.54,2.12,1.62,2.32,1.08,.2,2.12-.54,2.32-1.62,.32-1.83,.48-3.7,.48-5.57C63.82,14.44,49.46,.09,31.82,.09Zm-7.56,58.95c-11.16-3.13-19.51-13.02-20.36-24.95h14.52c.25,9.6,2.25,19.28,5.84,24.95Zm-5.84-28.95H3.9c.85-11.93,9.2-21.82,20.36-24.95-3.6,5.67-5.6,15.36-5.84,24.95Zm4,0c.39-16.06,5.45-25.87,9.16-25.99,.04,0,.07,0,.11,0,3.71,.07,8.8,9.89,9.2,26H22.41Zm22.47,0c-.25-9.67-2.27-19.42-5.92-25.07,11.37,3,19.92,12.99,20.78,25.07h-14.85Z"/><path class="cls-2" d="M56.91,54.37c1.38-1.94,2.2-4.3,2.2-6.85,0-6.54-5.32-11.86-11.86-11.86s-11.86,5.32-11.86,11.86,5.32,11.86,11.86,11.86c2.54,0,4.9-.81,6.83-2.18l6.33,6.31c.39,.39,.9,.58,1.41,.58s1.03-.2,1.42-.59c.78-.78,.78-2.05,0-2.83l-6.32-6.3Zm-9.66,1.01c-4.33,0-7.86-3.53-7.86-7.86s3.53-7.86,7.86-7.86,7.86,3.53,7.86,7.86-3.53,7.86-7.86,7.86Z"/></svg>