<?xml version="1.0" encoding="UTF-8"?><svg id="Layer_1" xmlns="http://www.w3.org/2000/svg" viewBox="0 0 64 64"><defs><style>.cls-1{fill:none;}</style></defs><path class="cls-1" d="m57.45,24.94c-.12-.03-.23-.07-.33-.12-.15-.06-1.5-.59-3.04.14v5.72c0,1.1-.9,2-2,2s-2-.9-2-2v-6.51c-.17-.6-1-2.91-3.63-3.08-.05,0-.09,0-.14-.01-.84-.1-2.11.02-2.67.41v9.19c0,1.1-.9,2-2,2s-2-.9-2-2v-9.06c-.71-.63-2.22-1.69-4.34-1.69-1.68,0-2.51.4-2.89.67v10.58c0,1.1-.9,2-2,2s-2-.9-2-2v-11.14s-.01-.07-.01-.11l-.47-14.15c-.03-.57-.36-1.85-2.86-1.85s-3.21,1.26-3.34,1.71l.05,33.48c0,.75-.42,1.44-1.09,1.79-.67.34-1.48.28-2.08-.17-.07-.05-5.12-3.67-9.52-3.67-1.65,0-3.21.51-4.39,1.91-.27.32-.42.61-.4.76.17,1,3.25,2.78,5.49,4.07,4.22,2.44,9.46,5.48,11.67,10.39.79,1.77,4.67,4.07,11.53,5.22,9.1,1.53,18.26.23,21.33-3.03.09-.09.18-.18.29-.25.18-.13,4.75-3.67,4.91-12.85.02-1.11.05-2.23.08-3.34.16-6.06.39-14.35-2.15-15.02Z"/><path d="m58.88,21.13c-1.21-.51-3.38-.89-5.66-.07-1.1-1.83-3.11-3.71-6.33-3.94-.6-.07-3.24-.29-5.25.94-1.35-.99-3.51-2.11-6.32-2.11-1.21,0-2.21.15-3.05.39l-.35-10.58C31.94,3.44,30.1,0,25.02,0s-7.13,3.41-7.39,5.21c-.01.09-.02.19-.02.28l.05,30.08c-1.04-.54-2.27-1.09-3.59-1.55-6.84-2.33-10.68,0-12.69,2.37-1.1,1.29-1.53,2.64-1.29,4.02.5,2.83,3.58,4.59,7.49,6.83,3.95,2.26,8.42,4.82,10.11,8.55,2.25,4.96,10.99,6.9,14.65,7.51,2.7.45,5.59.7,8.45.7,6.68,0,13.17-1.37,16.55-4.8,1.05-.84,6.27-5.5,6.45-15.85.02-1.1.05-2.2.08-3.3.24-8.89.47-17.3-5-18.91Zm.96,18.8c-.03,1.11-.06,2.23-.08,3.34-.16,9.16-4.77,12.69-4.95,12.82-.1.07-.2.16-.29.25-3.09,3.25-12.33,4.55-21.51,3.02-6.92-1.15-10.83-3.45-11.63-5.21-2.23-4.9-7.52-7.93-11.77-10.37-2.26-1.29-5.36-3.07-5.53-4.06-.03-.15.13-.44.4-.76,1.18-1.4,2.76-1.9,4.43-1.9,4.44,0,9.53,3.61,9.6,3.66.61.44,1.43.51,2.1.17.68-.34,1.1-1.03,1.1-1.78l-.06-33.41c.14-.46.75-1.71,3.37-1.71s2.85,1.27,2.88,1.84l.47,14.12s0,.07.01.11v11.11c0,1.1.9,2,2.02,2s2.02-.89,2.02-2v-10.56c.38-.27,1.22-.67,2.92-.67,2.14,0,3.66,1.07,4.38,1.69v9.04c0,1.1.9,2,2.02,2s2.02-.89,2.02-2v-9.17c.56-.39,1.84-.51,2.69-.41.05,0,.09.01.14.01,2.65.17,3.48,2.48,3.66,3.07v6.5c0,1.1.9,2,2.02,2s2.02-.89,2.02-2v-5.71c1.55-.73,2.92-.2,3.07-.14.11.05.22.09.34.12,2.56.67,2.33,8.95,2.17,14.99Z"/></svg>